<svg width="33" height="32" viewBox="0 0 33 32" fill="none" xmlns="http://www.w3.org/2000/svg">
<path d="M19.698 1.63735C17.9307 1.64484 16.5061 3.08357 16.5135 4.85086L16.5279 8.2487C16.5354 10.016 17.9742 11.4426 19.7415 11.4351L24.4712 11.4151C26.2385 11.4076 27.6651 9.96957 27.6576 8.20227C27.653 7.11442 27.6478 5.89733 27.6432 4.80272C27.6357 3.03547 26.198 1.60982 24.4307 1.6173C22.909 1.62374 21.1634 1.63114 19.698 1.63735Z" fill="#868997"/>
<path d="M20.4985 8.75837C20.2863 8.75837 20.0829 8.68297 19.9329 8.54874C19.7828 8.41451 19.6986 8.23246 19.6986 8.04263V1.6009H7.69954C7.38199 1.59301 7.06598 1.64315 6.77083 1.74826C6.47568 1.85338 6.2076 2.01125 5.98297 2.21224C5.75835 2.41322 5.5819 2.65309 5.46442 2.91718C5.34694 3.18127 5.2909 3.46402 5.29973 3.74815V26.6521C5.2909 26.9362 5.34694 27.2189 5.46442 27.483C5.5819 27.7471 5.75835 27.987 5.98297 28.188C6.2076 28.3889 6.47568 28.5468 6.77083 28.6519C7.06598 28.757 7.38199 28.8072 7.69954 28.7993H25.2981C25.6157 28.8072 25.9317 28.757 26.2268 28.6519C26.522 28.5468 26.7901 28.3889 27.0147 28.188C27.2393 27.987 27.4158 27.7471 27.5332 27.483C27.6507 27.2189 27.7068 26.9362 27.6979 26.6521V8.75837H20.4985ZM22.0984 23.0733H10.8993C10.6871 23.0733 10.4837 22.9979 10.3336 22.8637C10.1836 22.7294 10.0993 22.5474 10.0993 22.3576C10.0993 22.1677 10.1836 21.9857 10.3336 21.8515C10.4837 21.7172 10.6871 21.6418 10.8993 21.6418H22.0984C22.3105 21.6418 22.514 21.7172 22.664 21.8515C22.814 21.9857 22.8983 22.1677 22.8983 22.3576C22.8983 22.5474 22.814 22.7294 22.664 22.8637C22.514 22.9979 22.3105 23.0733 22.0984 23.0733ZM22.0984 18.7788H10.8993C10.6871 18.7788 10.4837 18.7034 10.3336 18.5692C10.1836 18.435 10.0993 18.2529 10.0993 18.0631C10.0993 17.8733 10.1836 17.6912 10.3336 17.557C10.4837 17.4227 10.6871 17.3473 10.8993 17.3473H22.0984C22.3105 17.3473 22.514 17.4227 22.664 17.557C22.814 17.6912 22.8983 17.8733 22.8983 18.0631C22.8983 18.2529 22.814 18.435 22.664 18.5692C22.514 18.7034 22.3105 18.7788 22.0984 18.7788ZM22.0984 14.4844H10.8993C10.6871 14.4844 10.4837 14.4089 10.3336 14.2747C10.1836 14.1405 10.0993 13.9584 10.0993 13.7686C10.0993 13.5788 10.1836 13.3967 10.3336 13.2625C10.4837 13.1283 10.6871 13.0529 10.8993 13.0529H22.0984C22.3105 13.0529 22.514 13.1283 22.664 13.2625C22.814 13.3967 22.8983 13.5788 22.8983 13.7686C22.8983 13.9584 22.814 14.1405 22.664 14.2747C22.514 14.4089 22.3105 14.4844 22.0984 14.4844Z" fill="#868997"/>
<circle cx="23.7" cy="23.2" r="6.4" fill="#F5F6FB" stroke="#868997" stroke-width="1.6"/>
<path d="M26.7334 22.2652H24.6044V20.1362C24.6044 19.62 24.185 19.2007 23.6689 19.2007C23.1528 19.2007 22.7334 19.62 22.7334 20.1362V22.2652H20.6367C20.1205 22.2652 19.7012 22.6846 19.7012 23.2007C19.7012 23.7168 20.1205 24.1362 20.6367 24.1362H22.7657V26.2652C22.7657 26.7813 23.185 27.2007 23.7012 27.2007C24.2173 27.2007 24.6367 26.7813 24.6367 26.2652V24.1362H26.7657C27.2818 24.1362 27.7012 23.7168 27.7012 23.2007C27.7012 22.6846 27.2496 22.2652 26.7334 22.2652Z" fill="#868997"/>
</svg>
