<svg width="33" height="32" viewBox="0 0 33 32" fill="none" xmlns="http://www.w3.org/2000/svg">
<circle cx="22.0994" cy="23.2" r="6.4" stroke="url(#paint0_linear_2664_2437)" stroke-width="1.6"/>
<path fill-rule="evenodd" clip-rule="evenodd" d="M26.0574 8.20227C26.0582 8.39188 26.0425 8.5777 26.0116 8.75837H26.0983V19.1468C25.0702 18.1324 23.6581 17.5063 22.0998 17.5063C21.7595 17.5063 21.4262 17.5362 21.1024 17.5934C21.0902 17.5809 21.0776 17.5688 21.0644 17.557C20.9144 17.4227 20.7109 17.3473 20.4988 17.3473H9.29967C9.08751 17.3473 8.88405 17.4227 8.73403 17.557C8.58401 17.6912 8.49973 17.8733 8.49973 18.0631C8.49973 18.2529 8.58401 18.435 8.73403 18.5692C8.88405 18.7034 9.08751 18.7788 9.29967 18.7788H18.5119C17.6161 19.5067 16.9458 20.5014 16.6221 21.6418H9.29967C9.08751 21.6418 8.88405 21.7172 8.73403 21.8515C8.58401 21.9857 8.49973 22.1677 8.49973 22.3576C8.49973 22.5474 8.58401 22.7295 8.73403 22.8637C8.88405 22.9979 9.08751 23.0733 9.29967 23.0733H16.4076C16.4067 23.1154 16.4062 23.1576 16.4062 23.1999C16.4062 25.9904 18.4139 28.3121 21.0635 28.7993H6.09993C5.78238 28.8072 5.46637 28.757 5.17122 28.6519C4.87607 28.5468 4.60799 28.3889 4.38336 28.188C4.15874 27.987 3.98229 27.7471 3.86481 27.483C3.74733 27.2189 3.69129 26.9362 3.70012 26.6521V3.74815C3.69129 3.46402 3.74733 3.18127 3.86481 2.91718C3.98229 2.65309 4.15874 2.41322 4.38336 2.21224C4.60799 2.01125 4.87607 1.85338 5.17122 1.74826C5.46637 1.64315 5.78238 1.59301 6.09993 1.6009H18.099V1.63735L22.8305 1.6173C24.5978 1.60982 26.0355 3.03547 26.043 4.80272L26.0574 8.20227ZM23.136 28.7993H23.6985C24.0161 28.8072 24.3321 28.757 24.6272 28.6519C24.9224 28.5468 25.1904 28.3889 25.4151 28.188C25.6397 27.987 25.8161 27.7471 25.9336 27.483C25.951 27.444 25.967 27.4046 25.9816 27.3649C25.2045 28.0894 24.2244 28.5991 23.136 28.7993ZM20.4988 14.4844H9.29967C9.08751 14.4844 8.88405 14.4089 8.73403 14.2747C8.58401 14.1405 8.49973 13.9584 8.49973 13.7686C8.49973 13.5788 8.58401 13.3967 8.73403 13.2625C8.88405 13.1283 9.08751 13.0529 9.29967 13.0529H20.4988C20.7109 13.0529 20.9144 13.1283 21.0644 13.2625C21.2144 13.3967 21.2987 13.5788 21.2987 13.7686C21.2987 13.9584 21.2144 14.1405 21.0644 14.2747C20.9144 14.4089 20.7109 14.4844 20.4988 14.4844Z" fill="url(#paint1_linear_2664_2437)"/>
<path d="M25.1328 22.2647H23.0038V20.1357C23.0038 19.6195 22.5845 19.2002 22.0683 19.2002C21.5522 19.2002 21.1328 19.6195 21.1328 20.1357V22.2647H19.0361C18.5199 22.2647 18.1006 22.6841 18.1006 23.2002C18.1006 23.7163 18.5199 24.1357 19.0361 24.1357H21.1651V26.2647C21.1651 26.7808 21.5845 27.2002 22.1006 27.2002C22.6167 27.2002 23.0361 26.7808 23.0361 26.2647V24.1357H25.1651C25.6812 24.1357 26.1006 23.7163 26.1006 23.2002C26.1006 22.6841 25.649 22.2647 25.1328 22.2647Z" fill="url(#paint2_linear_2664_2437)"/>
<defs>
<linearGradient id="paint0_linear_2664_2437" x1="18.7566" y1="16" x2="25.3137" y2="30.4" gradientUnits="userSpaceOnUse">
<stop stop-color="#868997"/>
<stop offset="1" stop-color="#868997"/>
</linearGradient>
<linearGradient id="paint1_linear_2664_2437" x1="9.69898" y1="1.6001" x2="23.6058" y2="26.7501" gradientUnits="userSpaceOnUse">
<stop stop-color="#868997"/>
<stop offset="1" stop-color="#868997"/>
</linearGradient>
<linearGradient id="paint2_linear_2664_2437" x1="20.2434" y1="19.2002" x2="23.8863" y2="27.2002" gradientUnits="userSpaceOnUse">
<stop stop-color="#868997"/>
<stop offset="1" stop-color="#868997"/>
</linearGradient>
</defs>
</svg>
