<svg width="12" height="10" viewBox="0 0 12 10" fill="none" xmlns="http://www.w3.org/2000/svg">
<path fill-rule="evenodd" clip-rule="evenodd" d="M1.5 3.5C1.50007 2.98976 1.63027 2.48797 1.8783 2.04207C2.12633 1.59617 2.48399 1.22091 2.91746 0.95175C3.35093 0.682593 3.84589 0.528441 4.35554 0.503871C4.86518 0.479301 5.37267 0.585123 5.83003 0.811333C6.28738 1.03754 6.67948 1.37666 6.96925 1.79663C7.25903 2.2166 7.4369 2.70354 7.48605 3.21141C7.5352 3.71927 7.454 4.23128 7.25014 4.69902C7.04628 5.16676 6.72649 5.57478 6.321 5.8845C7.593 6.4535 8.5 7.604 8.5 9C8.5 9.1326 8.44732 9.25978 8.35355 9.35355C8.25979 9.44732 8.13261 9.5 8 9.5H1C0.867392 9.5 0.740215 9.44732 0.646447 9.35355C0.552678 9.25978 0.5 9.1326 0.5 9C0.5 7.604 1.407 6.4535 2.679 5.8845C2.31208 5.60472 2.01476 5.24394 1.81025 4.83032C1.60574 4.4167 1.49956 3.96142 1.5 3.5ZM11 9.5H9C9.13261 9.5 9.25979 9.44732 9.35355 9.35355C9.44732 9.25978 9.5 9.1326 9.5 9C9.5 7.604 8.593 6.4535 7.321 5.8845C7.75071 5.55623 8.08375 5.11796 8.28489 4.61601C8.48604 4.11407 8.54782 3.56709 8.46371 3.03293C8.3796 2.49876 8.15272 1.99724 7.80706 1.58139C7.4614 1.16555 7.0098 0.850823 6.5 0.670496C7.17425 0.43115 7.91183 0.440653 8.57969 0.697291C9.24755 0.953929 9.80169 1.4408 10.1422 2.07007C10.4826 2.69934 10.587 3.42957 10.4364 4.12902C10.2858 4.82846 9.89024 5.45106 9.321 5.8845C10.593 6.4535 11.5 7.604 11.5 9C11.5 9.1326 11.4473 9.25978 11.3536 9.35355C11.2598 9.44732 11.1326 9.5 11 9.5Z" fill="#868997"/>
</svg>
