<svg width="40" height="41" viewBox="0 0 40 41" fill="none" xmlns="http://www.w3.org/2000/svg">
<rect y="0.784973" width="40" height="40" rx="10" fill="#DEDFF1"/>
<path fill-rule="evenodd" clip-rule="evenodd" d="M12.6364 17.5139C12.6365 16.679 12.8495 15.8579 13.2554 15.1282C13.6613 14.3986 14.2465 13.7845 14.9558 13.3441C15.6652 12.9036 16.4751 12.6514 17.3091 12.6112C18.143 12.571 18.9735 12.7442 19.7219 13.1143C20.4703 13.4845 21.1119 14.0394 21.5861 14.7266C22.0602 15.4138 22.3513 16.2107 22.4317 17.0417C22.5121 17.8728 22.3793 18.7106 22.0457 19.476C21.7121 20.2414 21.1888 20.909 20.5253 21.4159C22.6067 22.3469 24.0909 24.2296 24.0909 26.5139C24.0909 26.7309 24.0047 26.939 23.8513 27.0925C23.6978 27.2459 23.4897 27.3321 23.2727 27.3321H11.8182C11.6012 27.3321 11.3931 27.2459 11.2396 27.0925C11.0862 26.939 11 26.7309 11 26.5139C11 24.2296 12.4842 22.3469 14.5656 21.4159C13.9652 20.958 13.4787 20.3677 13.144 19.6908C12.8094 19.014 12.6356 18.269 12.6364 17.5139ZM28.1818 27.3321H24.9091C25.1261 27.3321 25.3342 27.2459 25.4876 27.0925C25.6411 26.939 25.7273 26.7309 25.7273 26.5139C25.7273 24.2296 24.2431 22.3469 22.1616 21.4159C22.8648 20.8787 23.4098 20.1615 23.7389 19.3402C24.0681 18.5188 24.1692 17.6237 24.0315 16.7496C23.8939 15.8756 23.5226 15.0549 22.957 14.3744C22.3914 13.6939 21.6524 13.1789 20.8182 12.8839C21.9215 12.4922 23.1285 12.5077 24.2213 12.9277C25.3142 13.3477 26.221 14.1444 26.7781 15.1741C27.3352 16.2038 27.506 17.3987 27.2596 18.5433C27.0132 19.6878 26.3658 20.7066 25.4344 21.4159C27.5158 22.3469 29 24.2296 29 26.5139C29 26.7309 28.9138 26.939 28.7604 27.0925C28.6069 27.2459 28.3988 27.3321 28.1818 27.3321Z" fill="#3E4D97"/>
</svg>
