<svg width="28" height="28" viewBox="0 0 28 28" fill="none" xmlns="http://www.w3.org/2000/svg">
<g opacity="0.8">
<path d="M25.7603 9.96334C24.9708 10.3279 24.1096 10.5108 23.24 10.4986C22.3705 10.4864 21.5147 10.2794 20.7357 9.89293C19.9567 9.50641 19.2743 8.95017 18.7386 8.26513C18.2029 7.58008 17.8276 6.78366 17.6403 5.93445C16.4987 5.40886 15.2571 5.13562 14.0003 5.13333C11.8263 5.12356 9.72459 5.91354 8.09528 7.3529C6.46596 8.79226 5.42281 10.7805 5.16439 12.9391C4.90597 15.0977 5.45033 17.276 6.69384 19.0593C7.93736 20.8426 9.7932 22.1063 11.9081 22.61L11.667 23.8233C9.2696 23.239 7.16865 21.7982 5.75992 19.7722C4.35119 17.7463 3.73194 15.2752 4.01881 12.8243C4.30568 10.3735 5.47887 8.11217 7.31738 6.46633C9.15589 4.8205 11.5328 3.90379 14.0003 3.88889C15.1984 3.88885 16.3867 4.1049 17.5081 4.52667C17.5268 3.73638 17.7067 2.95824 18.037 2.24C15.3663 1.31655 12.4614 1.32594 9.7968 2.26663C7.13216 3.20732 4.86522 5.02373 3.36622 7.41918C1.86722 9.81464 1.22474 12.6476 1.54372 15.4553C1.86271 18.2631 3.1243 20.8797 5.12245 22.8779C7.1206 24.876 9.73723 26.1376 12.545 26.4566C15.3527 26.7756 18.1857 26.1331 20.5811 24.6341C22.9766 23.1351 24.793 20.8681 25.7337 18.2035C26.6744 15.5389 26.6838 12.634 25.7603 9.96334ZM18.8225 18.0289C18.766 18.1144 18.6932 18.1879 18.6082 18.2451C18.5232 18.3024 18.4277 18.3423 18.3272 18.3625C18.2268 18.3828 18.1233 18.3829 18.0228 18.3631C17.9222 18.3432 17.8266 18.3036 17.7414 18.2467L13.1525 15.1356V8.36111C13.1525 8.15483 13.2345 7.957 13.3803 7.81114C13.5262 7.66528 13.724 7.58333 13.9303 7.58333C14.1366 7.58333 14.3344 7.66528 14.4803 7.81114C14.6261 7.957 14.7081 8.15483 14.7081 8.36111V14.3111L18.597 16.9478C18.6831 17.0037 18.7573 17.0761 18.8153 17.1608C18.8733 17.2455 18.914 17.3408 18.9349 17.4414C18.9559 17.5419 18.9568 17.6455 18.9375 17.7464C18.9182 17.8472 18.8791 17.9432 18.8225 18.0289Z" fill="#F76A46"/>
<path d="M23.3335 8.55561C25.4812 8.55561 27.2224 6.8145 27.2224 4.66672C27.2224 2.51895 25.4812 0.777832 23.3335 0.777832C21.1857 0.777832 19.4446 2.51895 19.4446 4.66672C19.4446 6.8145 21.1857 8.55561 23.3335 8.55561Z" fill="#F76A46"/>
</g>
</svg>
