<svg width="20" height="20" viewBox="0 0 20 20" fill="none" xmlns="http://www.w3.org/2000/svg">
<path d="M9.9915 1.66675C5.3915 1.66675 1.6665 5.40008 1.6665 10.0001C1.6665 14.6001 5.3915 18.3334 9.9915 18.3334C14.5998 18.3334 18.3332 14.6001 18.3332 10.0001C18.3332 5.40008 14.5998 1.66675 9.9915 1.66675ZM9.99984 16.6667C6.3165 16.6667 3.33317 13.6834 3.33317 10.0001C3.33317 6.31675 6.3165 3.33341 9.99984 3.33341C13.6832 3.33341 16.6665 6.31675 16.6665 10.0001C16.6665 13.6834 13.6832 16.6667 9.99984 16.6667ZM9.8165 5.83342H9.7665C9.43317 5.83342 9.1665 6.10008 9.1665 6.43341V10.3667C9.1665 10.6584 9.3165 10.9334 9.57484 11.0834L13.0332 13.1584C13.3165 13.3251 13.6832 13.2417 13.8498 12.9584C13.8917 12.8909 13.9195 12.8157 13.9317 12.7373C13.9439 12.6588 13.9401 12.5787 13.9207 12.5017C13.9012 12.4247 13.8665 12.3525 13.8185 12.2892C13.7706 12.2259 13.7104 12.1729 13.6415 12.1334L10.4165 10.2167V6.43341C10.4165 6.10008 10.1498 5.83342 9.8165 5.83342Z" fill="#868997"/>
</svg>
