<svg width="28" height="28" viewBox="0 0 28 28" fill="none" xmlns="http://www.w3.org/2000/svg">
<path d="M28 10.4414C27.5209 10.5869 27.0429 10.7324 26.5387 10.8857C27.158 11.7318 27.2124 12.7212 27.1172 13.7351C27.023 14.7413 26.8044 15.697 25.9729 16.392C26.1507 16.4558 26.3076 16.5095 26.4634 16.5689C26.7343 16.6707 26.8034 16.9471 26.5973 17.1564C26.4948 17.2605 26.3641 17.3556 26.2302 17.3993C25.5011 17.6366 25.2323 18.2443 25.1633 18.9684C25.1131 19.4966 25.1538 20.0338 25.1538 20.5755C25.6047 20.7467 26.0482 20.909 26.4885 21.0836C26.6329 21.1407 26.7783 21.2078 26.9017 21.3029C26.9958 21.3746 27.0576 21.4977 27.1329 21.5973C27.0377 21.66 26.9498 21.7517 26.8463 21.7797C25.9833 22.0125 25.1172 22.233 24.2522 22.4568C20.1383 23.5223 16.0255 24.5877 11.9105 25.6476C11.7955 25.6767 11.6574 25.6733 11.5444 25.6341C8.20979 24.4791 4.8762 23.3163 1.54262 22.158C1.01857 21.9756 0.679672 21.5671 0.466289 21.0623C-0.0368343 19.8693 -0.144572 18.6214 0.200606 17.3601C0.302068 16.9886 0.535325 16.6584 0.718374 16.288C0.61482 16.2577 0.461059 16.2264 0.316712 16.1682C0.213158 16.1268 0.122157 16.0496 0.0259253 15.9891C0.102283 15.8895 0.160859 15.7508 0.260228 15.6982C0.576118 15.5303 0.905607 15.3893 1.23405 15.2482C1.3763 15.1867 1.52588 15.1296 1.6765 15.1061C1.97566 15.0602 2.04051 14.87 2.04365 14.5801C2.05202 13.9847 2.07607 13.3938 1.88989 12.8174C1.73508 12.3406 1.47777 11.9859 1.00602 11.8258C0.847031 11.7721 0.69327 11.6624 0.569842 11.5393C0.359598 11.3289 0.430725 11.057 0.707914 10.9607C1.06669 10.8365 1.4286 10.7212 1.78529 10.6037C0.832387 9.29987 0.692224 7.83488 1.00707 6.30386C1.22882 5.22834 1.87315 4.69114 2.89718 4.54229C5.11364 4.21885 7.32801 3.8831 9.54343 3.5563C11.966 3.19817 14.3895 2.84339 16.812 2.48526C17.1269 2.43825 17.4407 2.38006 17.7566 2.33865C17.8518 2.32634 17.9564 2.33641 18.0484 2.36551C21.1184 3.35149 24.1884 4.3386 27.2553 5.3369C27.3714 5.37495 27.522 5.51373 27.5377 5.62452C27.5544 5.74204 27.4508 5.90655 27.3588 6.00728C27.2678 6.10688 27.1329 6.17627 27.0053 6.21768C26.4728 6.38891 26.1726 6.80748 26.0932 7.34804C26.0032 7.95687 26.0116 8.58472 26.0001 9.20362C25.999 9.28308 26.1224 9.40395 26.2124 9.44089C26.6433 9.61995 27.0879 9.76433 27.5178 9.94675C27.6904 10.0195 27.8389 10.1572 27.999 10.2657C28 10.3239 28 10.3821 28 10.4414ZM15.4146 18.5173C15.7451 18.4188 16.0244 18.3372 16.3037 18.2532C19.2314 17.3747 22.1571 16.4849 25.09 15.6276C25.5628 15.4889 25.8662 15.2281 26.0262 14.7558C26.2992 13.9489 26.3431 13.114 26.1726 12.2836C26.0168 11.5225 25.634 11.3233 24.9446 11.5639C23.5556 12.0485 22.1654 12.5331 20.7764 13.0177C19.0421 13.6232 17.3068 14.2253 15.5736 14.8386C15.4742 14.8733 15.3246 14.992 15.3267 15.0692C15.3424 16.2074 15.3801 17.3456 15.4146 18.5173ZM12.5977 12.9069C12.6322 11.79 12.6594 10.7011 12.7023 9.61212C12.7107 9.39052 12.6532 9.2898 12.4502 9.21929C9.28925 8.1281 6.12826 7.03356 2.97458 5.91774C2.43903 5.72861 2.03319 5.9737 1.89721 6.50083C1.64722 7.47003 1.69847 8.42692 2.07817 9.35023C2.20264 9.65129 2.41916 9.86841 2.73505 9.96242C5.00904 10.6373 7.28199 11.3177 9.55493 11.9971C10.558 12.2959 11.5612 12.5969 12.5977 12.9069ZM11.7672 24.1288C11.7672 23.961 11.7641 23.8255 11.7672 23.6912C11.7923 22.7467 11.807 21.8021 11.8519 20.8586C11.8645 20.6035 11.7955 20.5095 11.5747 20.4334C8.42212 19.3433 5.27054 18.2543 2.12628 17.1363C1.57609 16.9404 1.17129 17.2337 1.04577 17.716C0.791593 18.6875 0.849123 19.6421 1.22359 20.5643C1.34492 20.8631 1.5604 21.0825 1.87838 21.1776C4.44002 21.9398 7.00062 22.7086 9.56121 23.4753C10.2861 23.6924 11.011 23.905 11.7672 24.1288ZM13.1584 12.9125C17.288 11.8124 21.382 10.7223 25.4812 9.63114C25.3735 8.60599 25.3327 7.61216 25.7417 6.60491C21.5483 7.52711 17.4145 8.43587 13.2578 9.34911C13.2243 10.5343 13.1919 11.7072 13.1584 12.9125ZM14.856 18.5218C14.8226 17.3176 14.7901 16.1436 14.7577 14.9606C10.5988 14.0463 6.46088 13.1375 2.35535 12.2354C2.43903 12.7626 2.54573 13.2449 2.58338 13.7329C2.62208 14.2231 2.59175 14.72 2.59175 15.2583C6.62615 16.3316 10.7128 17.4194 14.856 18.5218ZM24.8965 17.8391C24.7595 17.8626 24.6706 17.8738 24.5827 17.8928C23.2041 18.195 21.8234 18.486 20.449 18.8038C18.8099 19.1844 17.1384 19.4216 15.5527 20.045C15.5025 20.0651 15.4387 20.0954 15.3968 20.0775C15.0286 19.9197 14.6803 20.0752 14.3289 20.1491C13.6908 20.2823 13.0559 20.43 12.4126 20.5732C12.3749 21.7696 12.3394 22.9358 12.3017 24.1344C16.4303 23.0354 20.5274 21.9442 24.6308 20.8519C24.5221 19.8133 24.475 18.8251 24.8965 17.8391Z" fill="#F76A46"/>
</svg>
