<svg width="4" height="16" viewBox="0 0 4 16" fill="none" xmlns="http://www.w3.org/2000/svg">
<path d="M1.99983 4C3.09983 4 3.99983 3.1 3.99983 2C3.99983 0.9 3.09983 0 1.99983 0C0.899832 0 -0.000167847 0.9 -0.000167847 2C-0.000167847 3.1 0.899832 4 1.99983 4ZM1.99983 6C0.899832 6 -0.000167847 6.9 -0.000167847 8C-0.000167847 9.1 0.899832 10 1.99983 10C3.09983 10 3.99983 9.1 3.99983 8C3.99983 6.9 3.09983 6 1.99983 6ZM1.99983 12C0.899832 12 -0.000167847 12.9 -0.000167847 14C-0.000167847 15.1 0.899832 16 1.99983 16C3.09983 16 3.99983 15.1 3.99983 14C3.99983 12.9 3.09983 12 1.99983 12Z" fill="#474C66"/>
</svg>
