<svg width="70" height="70" viewBox="0 0 70 70" fill="none" xmlns="http://www.w3.org/2000/svg">
<path fill-rule="evenodd" clip-rule="evenodd" d="M7 28.5775L0.1155 22.939C0.399293 21.0549 1.18973 19.2834 2.40233 17.8137C3.61493 16.344 5.20411 15.2315 7 14.595V28.574V28.5775ZM10.5 31.4475L30.562 47.8835C31.8135 48.9095 33.3817 49.4702 35 49.4702C36.6183 49.4702 38.1865 48.9095 39.438 47.8835L59.5 31.4475V10.5C59.5 7.71523 58.3938 5.04451 56.4246 3.07538C54.4555 1.10625 51.7848 0 49 0H21C18.2152 0 15.5445 1.10625 13.5754 3.07538C11.6062 5.04451 10.5 7.71523 10.5 10.5V31.4475ZM69.8845 22.939L63 28.5775V14.5985C64.7954 15.2347 66.3843 16.3467 67.5968 17.8157C68.8094 19.2847 69.6001 21.0555 69.8845 22.939ZM39.431 56.861L70 31.885V59.5C70 62.2848 68.8938 64.9555 66.9246 66.9246C64.9555 68.8938 62.2848 70 59.5 70H10.5C7.71523 70 5.04451 68.8938 3.07538 66.9246C1.10625 64.9555 0 62.2848 0 59.5V31.8815L30.569 56.861C31.8194 57.8834 33.3848 58.4419 35 58.4419C36.6152 58.4419 38.1806 57.8834 39.431 56.861ZM28 24.5C27.0717 24.5 26.1815 24.8688 25.5251 25.5251C24.8688 26.1815 24.5 27.0717 24.5 28C24.5 28.9283 24.8688 29.8185 25.5251 30.4749C26.1815 31.1313 27.0717 31.5 28 31.5H42C42.9283 31.5 43.8185 31.1313 44.4749 30.4749C45.1313 29.8185 45.5 28.9283 45.5 28C45.5 27.0717 45.1313 26.1815 44.4749 25.5251C43.8185 24.8688 42.9283 24.5 42 24.5H28ZM28 10.5C27.0717 10.5 26.1815 10.8688 25.5251 11.5251C24.8688 12.1815 24.5 13.0717 24.5 14C24.5 14.9283 24.8688 15.8185 25.5251 16.4749C26.1815 17.1313 27.0717 17.5 28 17.5H42C42.9283 17.5 43.8185 17.1313 44.4749 16.4749C45.1313 15.8185 45.5 14.9283 45.5 14C45.5 13.0717 45.1313 12.1815 44.4749 11.5251C43.8185 10.8688 42.9283 10.5 42 10.5H28Z" fill="#3E4D97"/>
</svg>
