<svg width="36" height="44" viewBox="0 0 36 44" fill="none" xmlns="http://www.w3.org/2000/svg">
<path d="M34.7285 11.0967C35.0215 11.3896 35.1875 11.7852 35.1875 12.2002V42.3125C35.1875 43.1768 34.4893 43.875 33.625 43.875H2.375C1.51074 43.875 0.8125 43.1768 0.8125 42.3125V1.6875C0.8125 0.823242 1.51074 0.125 2.375 0.125H23.1123C23.5273 0.125 23.9277 0.291016 24.2207 0.583984L34.7285 11.0967ZM31.584 12.918L22.3945 3.72852V12.918H31.584ZM8.625 20.5352C8.5214 20.5352 8.42204 20.5763 8.34879 20.6496C8.27553 20.7228 8.23438 20.8222 8.23438 20.9258V23.2695C8.23438 23.3731 8.27553 23.4725 8.34879 23.5457C8.42204 23.619 8.5214 23.6602 8.625 23.6602H27.375C27.4786 23.6602 27.578 23.619 27.6512 23.5457C27.7245 23.4725 27.7656 23.3731 27.7656 23.2695V20.9258C27.7656 20.8222 27.7245 20.7228 27.6512 20.6496C27.578 20.5763 27.4786 20.5352 27.375 20.5352H8.625ZM8.625 27.1758C8.5214 27.1758 8.42204 27.2169 8.34879 27.2902C8.27553 27.3634 8.23438 27.4628 8.23438 27.5664V29.9102C8.23438 30.0138 8.27553 30.1131 8.34879 30.1864C8.42204 30.2596 8.5214 30.3008 8.625 30.3008H17.6094C17.713 30.3008 17.8123 30.2596 17.8856 30.1864C17.9588 30.1131 18 30.0138 18 29.9102V27.5664C18 27.4628 17.9588 27.3634 17.8856 27.2902C17.8123 27.2169 17.713 27.1758 17.6094 27.1758H8.625Z" fill="#FFA28B"/>
</svg>
