<svg width="18" height="18" viewBox="0 0 18 18" fill="none" xmlns="http://www.w3.org/2000/svg">
<mask id="path-1-inside-1_738_17800" fill="white">
<path fill-rule="evenodd" clip-rule="evenodd" d="M14.3113 5.22648C14.3538 5.06292 14.376 4.89124 14.3753 4.71428L14.3689 3.20224C14.3642 2.09771 13.4651 1.20623 12.3606 1.2109L10.099 1.22049C10.0318 1.22077 9.96535 1.22437 9.89986 1.23113V1.20041H3.1504C2.97178 1.19596 2.79403 1.22417 2.628 1.28329C2.46198 1.34242 2.31119 1.43123 2.18483 1.54428C2.05848 1.65734 1.95923 1.79226 1.89315 1.94081C1.82707 2.08936 1.79555 2.24841 1.80051 2.40823V15.2917C1.79555 15.4515 1.82707 15.6105 1.89315 15.7591C1.95923 15.9076 2.05848 16.0426 2.18483 16.1556C2.31119 16.2687 2.46198 16.3575 2.628 16.4166C2.79403 16.4757 2.97178 16.5039 3.1504 16.4995H9.60364C10.2993 17.0626 11.1853 17.3999 12.15 17.3999C14.3867 17.3999 16.2 15.5867 16.2 13.3499C16.2 11.9455 15.4852 10.7081 14.3995 9.98161V5.22648H14.3113ZM8.10061 13.2786C8.10537 13.0026 8.13775 12.7333 8.1951 12.4734H4.95026C4.83092 12.4734 4.71647 12.5158 4.63208 12.5913C4.5477 12.6668 4.50029 12.7692 4.50029 12.876C4.50029 12.9828 4.5477 13.0852 4.63208 13.1607C4.71647 13.2362 4.83092 13.2786 4.95026 13.2786H8.10061ZM8.95327 10.863C9.19225 10.5562 9.47442 10.2848 9.79063 10.0578H4.95026C4.83092 10.0578 4.71647 10.1002 4.63208 10.1757C4.5477 10.2512 4.50029 10.3536 4.50029 10.4604C4.50029 10.5672 4.5477 10.6696 4.63208 10.7451C4.71647 10.8206 4.83092 10.863 4.95026 10.863H8.95327ZM4.95026 8.44734H11.2497C11.3691 8.44734 11.4835 8.40493 11.5679 8.32942C11.6523 8.25392 11.6997 8.15151 11.6997 8.04474C11.6997 7.93796 11.6523 7.83555 11.5679 7.76005C11.4835 7.68455 11.3691 7.64213 11.2497 7.64213H4.95026C4.83092 7.64213 4.71647 7.68455 4.63208 7.76005C4.5477 7.83555 4.50029 7.93796 4.50029 8.04474C4.50029 8.15151 4.5477 8.25392 4.63208 8.32942C4.71647 8.40493 4.83092 8.44734 4.95026 8.44734ZM12.6581 12.8237H13.8556C14.146 12.8237 14.4 13.0596 14.4 13.3499C14.4 13.6403 14.1641 13.8762 13.8738 13.8762H12.6762V15.0737C12.6762 15.3641 12.4403 15.5999 12.15 15.5999C11.8597 15.5999 11.6238 15.3641 11.6238 15.0737V13.8762H10.4262C10.1359 13.8762 9.89999 13.6403 9.89999 13.3499C9.89999 13.0596 10.1359 12.8237 10.4262 12.8237H11.6056V11.6262C11.6056 11.3358 11.8415 11.0999 12.1318 11.0999C12.4222 11.0999 12.6581 11.3358 12.6581 11.6262V12.8237Z"/>
</mask>
<path fill-rule="evenodd" clip-rule="evenodd" d="M14.3113 5.22648C14.3538 5.06292 14.376 4.89124 14.3753 4.71428L14.3689 3.20224C14.3642 2.09771 13.4651 1.20623 12.3606 1.2109L10.099 1.22049C10.0318 1.22077 9.96535 1.22437 9.89986 1.23113V1.20041H3.1504C2.97178 1.19596 2.79403 1.22417 2.628 1.28329C2.46198 1.34242 2.31119 1.43123 2.18483 1.54428C2.05848 1.65734 1.95923 1.79226 1.89315 1.94081C1.82707 2.08936 1.79555 2.24841 1.80051 2.40823V15.2917C1.79555 15.4515 1.82707 15.6105 1.89315 15.7591C1.95923 15.9076 2.05848 16.0426 2.18483 16.1556C2.31119 16.2687 2.46198 16.3575 2.628 16.4166C2.79403 16.4757 2.97178 16.5039 3.1504 16.4995H9.60364C10.2993 17.0626 11.1853 17.3999 12.15 17.3999C14.3867 17.3999 16.2 15.5867 16.2 13.3499C16.2 11.9455 15.4852 10.7081 14.3995 9.98161V5.22648H14.3113ZM8.10061 13.2786C8.10537 13.0026 8.13775 12.7333 8.1951 12.4734H4.95026C4.83092 12.4734 4.71647 12.5158 4.63208 12.5913C4.5477 12.6668 4.50029 12.7692 4.50029 12.876C4.50029 12.9828 4.5477 13.0852 4.63208 13.1607C4.71647 13.2362 4.83092 13.2786 4.95026 13.2786H8.10061ZM8.95327 10.863C9.19225 10.5562 9.47442 10.2848 9.79063 10.0578H4.95026C4.83092 10.0578 4.71647 10.1002 4.63208 10.1757C4.5477 10.2512 4.50029 10.3536 4.50029 10.4604C4.50029 10.5672 4.5477 10.6696 4.63208 10.7451C4.71647 10.8206 4.83092 10.863 4.95026 10.863H8.95327ZM4.95026 8.44734H11.2497C11.3691 8.44734 11.4835 8.40493 11.5679 8.32942C11.6523 8.25392 11.6997 8.15151 11.6997 8.04474C11.6997 7.93796 11.6523 7.83555 11.5679 7.76005C11.4835 7.68455 11.3691 7.64213 11.2497 7.64213H4.95026C4.83092 7.64213 4.71647 7.68455 4.63208 7.76005C4.5477 7.83555 4.50029 7.93796 4.50029 8.04474C4.50029 8.15151 4.5477 8.25392 4.63208 8.32942C4.71647 8.40493 4.83092 8.44734 4.95026 8.44734ZM12.6581 12.8237H13.8556C14.146 12.8237 14.4 13.0596 14.4 13.3499C14.4 13.6403 14.1641 13.8762 13.8738 13.8762H12.6762V15.0737C12.6762 15.3641 12.4403 15.5999 12.15 15.5999C11.8597 15.5999 11.6238 15.3641 11.6238 15.0737V13.8762H10.4262C10.1359 13.8762 9.89999 13.6403 9.89999 13.3499C9.89999 13.0596 10.1359 12.8237 10.4262 12.8237H11.6056V11.6262C11.6056 11.3358 11.8415 11.0999 12.1318 11.0999C12.4222 11.0999 12.6581 11.3358 12.6581 11.6262V12.8237Z" fill="#5B5DBB"/>
<path d="M14.3753 4.71428L13.3753 4.71851V4.71852L14.3753 4.71428ZM14.3113 5.22648L13.3434 4.97525L13.0186 6.22648H14.3113V5.22648ZM14.3689 3.20224L15.3689 3.198V3.198L14.3689 3.20224ZM12.3606 1.2109L12.3564 0.210912H12.3564L12.3606 1.2109ZM10.099 1.22049L10.0948 0.220494H10.0948L10.099 1.22049ZM9.89986 1.23113H8.89986V2.33961L10.0025 2.22585L9.89986 1.23113ZM9.89986 1.20041H10.8999V0.200405H9.89986V1.20041ZM3.1504 1.20041L3.12554 2.2001L3.13797 2.20041H3.1504V1.20041ZM2.628 1.28329L2.29251 0.341253H2.29251L2.628 1.28329ZM2.18483 1.54428L2.85164 2.28952L2.18483 1.54428ZM1.89315 1.94081L0.979474 1.53437L0.979474 1.53437L1.89315 1.94081ZM1.80051 2.40823H2.80051V2.3927L2.80003 2.37718L1.80051 2.40823ZM1.80051 15.2917L2.80003 15.3227L2.80051 15.3072V15.2917H1.80051ZM1.89315 15.7591L2.80682 15.3526L2.80682 15.3526L1.89315 15.7591ZM2.18483 16.1556L1.51803 16.9009H1.51803L2.18483 16.1556ZM2.628 16.4166L2.9635 15.4746L2.9635 15.4746L2.628 16.4166ZM3.1504 16.4995V15.4995H3.13797L3.12554 15.4998L3.1504 16.4995ZM9.60364 16.4995L10.2328 15.7222L9.95766 15.4995H9.60364V16.4995ZM14.3995 9.98161H13.3995V10.5157L13.8434 10.8127L14.3995 9.98161ZM14.3995 5.22648H15.3995V4.22648H14.3995V5.22648ZM8.1951 12.4734L9.17161 12.6889L9.43978 11.4734H8.1951V12.4734ZM8.10061 13.2786V14.2786H9.08349L9.10046 13.2959L8.10061 13.2786ZM4.63208 12.5913L3.96528 11.8461L3.96528 11.8461L4.63208 12.5913ZM4.63208 13.1607L3.96528 13.9059L3.96528 13.906L4.63208 13.1607ZM9.79063 10.0578L10.3738 10.8701L12.8982 9.05777H9.79063V10.0578ZM8.95327 10.863V11.863H9.44185L9.74212 11.4776L8.95327 10.863ZM4.63208 10.1757L3.96528 9.43046L3.96528 9.43046L4.63208 10.1757ZM4.63208 10.7451L3.96528 11.4903L3.96528 11.4903L4.63208 10.7451ZM11.5679 8.32942L10.9011 7.58419L10.9011 7.58419L11.5679 8.32942ZM11.5679 7.76005L12.2347 7.01481L12.2347 7.01481L11.5679 7.76005ZM4.63208 7.76005L3.96528 7.01481L3.96528 7.01482L4.63208 7.76005ZM4.63208 8.32942L5.29889 7.58419L5.29889 7.58419L4.63208 8.32942ZM12.6581 12.8237H11.6581V13.8237H12.6581V12.8237ZM12.6762 13.8762V12.8762H11.6762V13.8762H12.6762ZM11.6238 13.8762H12.6238V12.8762H11.6238V13.8762ZM11.6056 12.8237V13.8237H12.6056V12.8237H11.6056ZM13.3753 4.71852C13.3757 4.80856 13.3644 4.89439 13.3434 4.97525L15.2793 5.47771C15.3432 5.23145 15.3764 4.97393 15.3753 4.71005L13.3753 4.71852ZM13.3689 3.20647L13.3753 4.71851L15.3753 4.71005L15.3689 3.198L13.3689 3.20647ZM12.3648 2.21089C12.9171 2.20856 13.3666 2.65423 13.3689 3.20647L15.3689 3.198C15.3619 1.54118 14.0132 0.203898 12.3564 0.210912L12.3648 2.21089ZM10.1032 2.22048L12.3648 2.21089L12.3564 0.210912L10.0948 0.220494L10.1032 2.22048ZM10.0025 2.22585C10.0353 2.22246 10.0689 2.22062 10.1033 2.22048L10.0948 0.220494C9.99463 0.220919 9.89536 0.226282 9.79722 0.236407L10.0025 2.22585ZM8.89986 1.20041V1.23113H10.8999V1.20041H8.89986ZM3.1504 2.20041H9.89986V0.200405H3.1504V2.20041ZM2.9635 2.22534C3.01233 2.20794 3.06782 2.19866 3.12554 2.2001L3.17526 0.200714C2.87574 0.193265 2.57572 0.24039 2.29251 0.341253L2.9635 2.22534ZM2.85164 2.28952C2.87755 2.26633 2.91472 2.24271 2.9635 2.22534L2.29251 0.341253C2.00924 0.442134 1.74482 0.596123 1.51803 0.799046L2.85164 2.28952ZM2.80682 2.34726C2.81301 2.33335 2.82597 2.31248 2.85164 2.28952L1.51803 0.799046C1.29099 1.00219 1.10545 1.25117 0.979474 1.53437L2.80682 2.34726ZM2.80003 2.37718C2.79982 2.37038 2.80085 2.36068 2.80682 2.34726L0.979474 1.53437C0.853283 1.81804 0.791274 2.12643 0.800992 2.43928L2.80003 2.37718ZM2.80051 15.2917V2.40823H0.80051V15.2917H2.80051ZM2.80682 15.3526C2.80085 15.3392 2.79982 15.3295 2.80003 15.3227L0.800992 15.2606C0.791274 15.5735 0.853283 15.8819 0.979474 16.1655L2.80682 15.3526ZM2.85164 15.4104C2.82597 15.3874 2.81301 15.3666 2.80682 15.3526L0.979473 16.1655C1.10545 16.4487 1.29099 16.6977 1.51803 16.9009L2.85164 15.4104ZM2.9635 15.4746C2.91473 15.4572 2.87755 15.4336 2.85164 15.4104L1.51803 16.9009C1.74482 17.1038 2.00924 17.2578 2.29251 17.3587L2.9635 15.4746ZM3.12554 15.4998C3.06782 15.5012 3.01233 15.492 2.9635 15.4746L2.29251 17.3587C2.57572 17.4595 2.87574 17.5066 3.17526 17.4992L3.12554 15.4998ZM9.60364 15.4995H3.1504V17.4995H9.60364V15.4995ZM12.15 16.3999C11.4225 16.3999 10.7569 16.1465 10.2328 15.7222L8.97446 17.2768C9.84165 17.9787 10.948 18.3999 12.15 18.3999V16.3999ZM15.2 13.3499C15.2 15.0344 13.8345 16.3999 12.15 16.3999V18.3999C14.939 18.3999 17.2 16.139 17.2 13.3499H15.2ZM13.8434 10.8127C14.6635 11.3615 15.2 12.2933 15.2 13.3499H17.2C17.2 11.5978 16.3068 10.0547 14.9556 9.15052L13.8434 10.8127ZM13.3995 5.22648V9.98161H15.3995V5.22648H13.3995ZM14.3113 6.22648H14.3995V4.22648H14.3113V6.22648ZM7.21858 12.258C7.14696 12.5826 7.10668 12.9183 7.10076 13.2614L9.10046 13.2959C9.10407 13.087 9.12854 12.8841 9.17161 12.6889L7.21858 12.258ZM4.95026 13.4734H8.1951V11.4734H4.95026V13.4734ZM5.29889 13.3366C5.18938 13.4346 5.06246 13.4734 4.95026 13.4734V11.4734C4.59938 11.4734 4.24355 11.5971 3.96528 11.8461L5.29889 13.3366ZM5.50029 12.876C5.50029 13.0726 5.41204 13.2353 5.29889 13.3366L3.96528 11.8461C3.68336 12.0984 3.50029 12.4659 3.50029 12.876H5.50029ZM5.29889 12.4155C5.41203 12.5167 5.50029 12.6794 5.50029 12.876H3.50029C3.50029 13.2862 3.68336 13.6537 3.96528 13.9059L5.29889 12.4155ZM4.95026 12.2786C5.06245 12.2786 5.18938 12.3175 5.29889 12.4155L3.96528 13.906C4.24356 14.1549 4.59939 14.2786 4.95026 14.2786V12.2786ZM8.10061 12.2786H4.95026V14.2786H8.10061V12.2786ZM9.20744 9.24544C8.81347 9.52828 8.46208 9.86635 8.16442 10.2484L9.74212 11.4776C9.92243 11.2461 10.1354 11.0413 10.3738 10.8701L9.20744 9.24544ZM4.95026 11.0578H9.79063V9.05777H4.95026V11.0578ZM5.29889 10.9209C5.18938 11.0189 5.06246 11.0578 4.95026 11.0578V9.05777C4.59938 9.05777 4.24355 9.18148 3.96528 9.43046L5.29889 10.9209ZM5.50029 10.4604C5.50029 10.657 5.41204 10.8197 5.29889 10.9209L3.96528 9.43046C3.68336 9.68271 3.50029 10.0502 3.50029 10.4604H5.50029ZM5.29889 9.99983C5.41204 10.1011 5.50029 10.2638 5.50029 10.4604H3.50029C3.50029 10.8705 3.68336 11.2381 3.96528 11.4903L5.29889 9.99983ZM4.95026 9.86299C5.06246 9.86299 5.18938 9.90186 5.29889 9.99983L3.96528 11.4903C4.24355 11.7393 4.59938 11.863 4.95026 11.863V9.86299ZM8.95327 9.86299H4.95026V11.863H8.95327V9.86299ZM11.2497 7.44734H4.95026V9.44734H11.2497V7.44734ZM10.9011 7.58419C11.0106 7.48621 11.1376 7.44734 11.2497 7.44734V9.44734C11.6006 9.44734 11.9565 9.32364 12.2347 9.07466L10.9011 7.58419ZM10.6997 8.04474C10.6997 7.84815 10.788 7.68543 10.9011 7.58419L12.2347 9.07466C12.5166 8.82241 12.6997 8.45488 12.6997 8.04474H10.6997ZM10.9011 8.50528C10.788 8.40404 10.6997 8.24133 10.6997 8.04474H12.6997C12.6997 7.63459 12.5166 7.26707 12.2347 7.01481L10.9011 8.50528ZM11.2497 8.64213C11.1376 8.64213 11.0106 8.60326 10.9011 8.50529L12.2347 7.01481C11.9565 6.76583 11.6006 6.64213 11.2497 6.64213V8.64213ZM4.95026 8.64213H11.2497V6.64213H4.95026V8.64213ZM5.29889 8.50528C5.18938 8.60326 5.06245 8.64213 4.95026 8.64213V6.64213C4.59938 6.64213 4.24356 6.76583 3.96528 7.01481L5.29889 8.50528ZM5.50029 8.04474C5.50029 8.24133 5.41204 8.40404 5.29889 8.50528L3.96528 7.01482C3.68336 7.26706 3.50029 7.63458 3.50029 8.04474H5.50029ZM5.29889 7.58419C5.41204 7.68543 5.50029 7.84814 5.50029 8.04474H3.50029C3.50029 8.45488 3.68336 8.82241 3.96528 9.07466L5.29889 7.58419ZM4.95026 7.44734C5.06245 7.44734 5.18938 7.48621 5.29889 7.58419L3.96528 9.07466C4.24355 9.32364 4.59938 9.44734 4.95026 9.44734V7.44734ZM13.8556 11.8237H12.6581V13.8237H13.8556V11.8237ZM15.4 13.3499C15.4 12.464 14.6539 11.8237 13.8556 11.8237V13.8237C13.7295 13.8237 13.6219 13.7736 13.5462 13.7013C13.4686 13.6272 13.4 13.5049 13.4 13.3499H15.4ZM13.8738 14.8762C14.7164 14.8762 15.4 14.1926 15.4 13.3499H13.4C13.4 13.088 13.6118 12.8762 13.8738 12.8762V14.8762ZM12.6762 14.8762H13.8738V12.8762H12.6762V14.8762ZM13.6762 15.0737V13.8762H11.6762V15.0737H13.6762ZM12.15 16.5999C12.9926 16.5999 13.6762 15.9163 13.6762 15.0737H11.6762C11.6762 14.8118 11.888 14.5999 12.15 14.5999V16.5999ZM10.6238 15.0737C10.6238 15.9163 11.3074 16.5999 12.15 16.5999V14.5999C12.412 14.5999 12.6238 14.8118 12.6238 15.0737H10.6238ZM10.6238 13.8762V15.0737H12.6238V13.8762H10.6238ZM10.4262 14.8762H11.6238V12.8762H10.4262V14.8762ZM8.89999 13.3499C8.89999 14.1926 9.5836 14.8762 10.4262 14.8762V12.8762C10.6882 12.8762 10.9 13.088 10.9 13.3499H8.89999ZM10.4262 11.8237C9.58359 11.8237 8.89999 12.5073 8.89999 13.3499H10.9C10.9 13.6119 10.6882 13.8237 10.4262 13.8237V11.8237ZM11.6056 11.8237H10.4262V13.8237H11.6056V11.8237ZM10.6056 11.6262V12.8237H12.6056V11.6262H10.6056ZM12.1318 10.0999C11.2892 10.0999 10.6056 10.7835 10.6056 11.6262H12.6056C12.6056 11.8881 12.3938 12.0999 12.1318 12.0999V10.0999ZM13.6581 11.6262C13.6581 10.7835 12.9745 10.0999 12.1318 10.0999V12.0999C11.8699 12.0999 11.6581 11.8881 11.6581 11.6262H13.6581ZM13.6581 12.8237V11.6262H11.6581V12.8237H13.6581Z" fill="#5B5DBB" mask="url(#path-1-inside-1_738_17800)"/>
</svg>
