<svg width="32" height="32" viewBox="0 0 32 32" fill="none" xmlns="http://www.w3.org/2000/svg">
<path fill-rule="evenodd" clip-rule="evenodd" d="M26.5411 9.01013C26.0214 9.01013 25.523 9.23479 25.1555 9.63469C24.788 10.0346 24.5815 10.577 24.5815 11.1425V12.5641H28.5006V11.1425C28.5006 10.577 28.2942 10.0346 27.9267 9.63469C27.5592 9.23479 27.0608 9.01013 26.5411 9.01013ZM28.5006 13.9857H24.5815V25.7139L26.5411 28.9125L28.5006 25.7139V13.9857Z" fill="#868997"/>
<path fill-rule="evenodd" clip-rule="evenodd" d="M3.50024 5.22016V26.5441C3.50024 27.1096 3.72054 27.652 4.11266 28.0519C4.50478 28.4518 5.03661 28.6765 5.59116 28.6765H20.9245C21.4791 28.6765 22.0109 28.4518 22.403 28.0519C22.7952 27.652 23.0155 27.1096 23.0155 26.5441V5.22016C23.0155 4.65462 22.7952 4.11223 22.403 3.71233C22.0109 3.31243 21.4791 3.08777 20.9245 3.08777H5.59116C5.03661 3.08777 4.50478 3.31243 4.11266 3.71233C3.72054 4.11223 3.50024 4.65462 3.50024 5.22016ZM13.2578 9.48495C13.2578 9.29643 13.3313 9.11564 13.462 8.98234C13.5927 8.84904 13.77 8.77415 13.9548 8.77415H19.5306C19.7154 8.77415 19.8927 8.84904 20.0234 8.98234C20.1541 9.11564 20.2276 9.29643 20.2276 9.48495C20.2276 9.67346 20.1541 9.85426 20.0234 9.98756C19.8927 10.1209 19.7154 10.1957 19.5306 10.1957H13.9548C13.77 10.1957 13.5927 10.1209 13.462 9.98756C13.3313 9.85426 13.2578 9.67346 13.2578 9.48495ZM13.9548 11.6173C13.77 11.6173 13.5927 11.6922 13.462 11.8255C13.3313 11.9588 13.2578 12.1396 13.2578 12.3281C13.2578 12.5167 13.3313 12.6974 13.462 12.8307C13.5927 12.964 13.77 13.0389 13.9548 13.0389H19.5306C19.7154 13.0389 19.8927 12.964 20.0234 12.8307C20.1541 12.6974 20.2276 12.5167 20.2276 12.3281C20.2276 12.1396 20.1541 11.9588 20.0234 11.8255C19.8927 11.6922 19.7154 11.6173 19.5306 11.6173H13.9548ZM13.2578 18.7253C13.2578 18.5368 13.3313 18.356 13.462 18.2227C13.5927 18.0894 13.77 18.0145 13.9548 18.0145H19.5306C19.7154 18.0145 19.8927 18.0894 20.0234 18.2227C20.1541 18.356 20.2276 18.5368 20.2276 18.7253C20.2276 18.9138 20.1541 19.0946 20.0234 19.2279C19.8927 19.3612 19.7154 19.4361 19.5306 19.4361H13.9548C13.77 19.4361 13.5927 19.3612 13.462 19.2279C13.3313 19.0946 13.2578 18.9138 13.2578 18.7253ZM13.9548 20.8577C13.77 20.8577 13.5927 20.9326 13.462 21.0659C13.3313 21.1992 13.2578 21.38 13.2578 21.5685C13.2578 21.757 13.3313 21.9378 13.462 22.0711C13.5927 22.2044 13.77 22.2793 13.9548 22.2793H19.5306C19.7154 22.2793 19.8927 22.2044 20.0234 22.0711C20.1541 21.9378 20.2276 21.757 20.2276 21.5685C20.2276 21.38 20.1541 21.1992 20.0234 21.0659C19.8927 20.9326 19.7154 20.8577 19.5306 20.8577H13.9548ZM7.68207 18.7253V20.8577H9.77299V18.7253H7.68207ZM6.9851 17.3037H10.47C10.6548 17.3037 10.8321 17.3786 10.9628 17.5119C11.0935 17.6452 11.1669 17.826 11.1669 18.0145V21.5685C11.1669 21.757 11.0935 21.9378 10.9628 22.0711C10.8321 22.2044 10.6548 22.2793 10.47 22.2793H6.9851C6.80025 22.2793 6.62298 22.2044 6.49227 22.0711C6.36156 21.9378 6.28813 21.757 6.28813 21.5685V18.0145C6.28813 17.826 6.36156 17.6452 6.49227 17.5119C6.62298 17.3786 6.80025 17.3037 6.9851 17.3037ZM11.6597 9.98748C11.7867 9.85342 11.8569 9.67387 11.8553 9.4875C11.8537 9.30114 11.7804 9.12286 11.6512 8.99107C11.522 8.85928 11.3472 8.78453 11.1644 8.78291C10.9817 8.78129 10.8056 8.85293 10.6742 8.98241L8.37905 11.3231L7.47786 10.404C7.34641 10.2745 7.17036 10.2029 6.98761 10.2045C6.80487 10.2061 6.63006 10.2809 6.50083 10.4127C6.37161 10.5445 6.29831 10.7227 6.29672 10.9091C6.29513 11.0955 6.36538 11.275 6.49234 11.4091L8.37905 13.3332L11.6597 9.98748Z" fill="#868997"/>
</svg>
