<svg width="42" height="38" viewBox="0 0 42 38" fill="none" xmlns="http://www.w3.org/2000/svg">
<path d="M38.2463 0.25H3.75337C1.78797 0.25 0.166504 2.04348 0.166504 4.21739V33.7826C0.166504 35.9565 1.78797 37.75 3.75337 37.75H38.2463C40.2117 37.75 41.8332 35.9565 41.8332 33.7826V4.21739C41.8332 2.04348 40.2117 0.25 38.2463 0.25ZM15.7424 6.06522C17.4621 6.06522 18.887 7.6413 18.887 9.54348C18.887 11.4457 17.4621 13.0217 15.7424 13.0217C14.0226 13.0217 12.5977 11.4457 12.5977 9.54348C12.5977 7.6413 13.9735 6.06522 15.7424 6.06522ZM36.4774 32.5326L4.14646 32.4783C3.01635 32.4783 2.32845 31.1196 2.86894 30.087L8.47036 19.3804C9.01084 18.2935 10.4358 18.2935 10.9763 19.3804L15.3984 27.8587L24.685 10.0326C25.6677 8.18478 28.0753 8.18478 29.0089 10.0326L38.5902 28.3478C39.6221 30.1957 38.3937 32.5326 36.4774 32.5326Z" fill="#FFA28B"/>
</svg>
