<svg width="21" height="20" viewBox="0 0 21 20" fill="none" xmlns="http://www.w3.org/2000/svg">
<path d="M10.5 0C4.98 0 0.5 4.48 0.5 10C0.5 15.52 4.98 20 10.5 20C16.02 20 20.5 15.52 20.5 10C20.5 4.48 16.02 0 10.5 0ZM11.5 17H9.5V15H11.5V17ZM13.57 9.25L12.67 10.17C11.95 10.9 11.5 11.5 11.5 13H9.5V12.5C9.5 11.4 9.95 10.4 10.67 9.67L11.91 8.41C12.28 8.05 12.5 7.55 12.5 7C12.5 5.9 11.6 5 10.5 5C9.4 5 8.5 5.9 8.5 7H6.5C6.5 4.79 8.29 3 10.5 3C12.71 3 14.5 4.79 14.5 7C14.5 7.88 14.14 8.68 13.57 9.25Z" fill="#868997"/>
</svg>
