<svg width="38" height="41" viewBox="0 0 38 41" fill="none" xmlns="http://www.w3.org/2000/svg">
<rect y="0.784973" width="37.25" height="40" rx="10" fill="#DEDFF1"/>
<path d="M18.625 20.785C21.1105 20.785 23.125 18.7705 23.125 16.285C23.125 13.7994 21.1105 11.785 18.625 11.785C16.1395 11.785 14.125 13.7994 14.125 16.285C14.125 18.7705 16.1395 20.785 18.625 20.785ZM21.993 21.9311L20.3125 28.66L19.1875 23.8787L20.3125 21.91H16.9375L18.0625 23.8787L16.9375 28.66L15.257 21.9311C12.7504 22.0506 10.75 24.1002 10.75 26.635V28.0975C10.75 29.0291 11.5059 29.785 12.4375 29.785H24.8125C25.7441 29.785 26.5 29.0291 26.5 28.0975V26.635C26.5 24.1002 24.4996 22.0506 21.993 21.9311Z" fill="#3E4D97"/>
</svg>
