<svg width="33" height="32" viewBox="0 0 33 32" fill="none" xmlns="http://www.w3.org/2000/svg">
<path d="M18.3227 19.8077C19.4107 19.8077 20.2747 18.9437 20.2747 17.8557V14.1117C20.2747 13.0237 19.4107 12.1597 18.3227 12.1597H14.5467C13.4587 12.1597 12.5947 13.0237 12.5947 14.1117V17.8877C12.5947 18.9757 13.4587 19.8397 14.5467 19.8397H18.3227V19.8077Z" fill="#868997"/>
<path d="M8.72312 12.1274H4.94712C3.85912 12.1274 2.99512 12.9914 2.99512 14.0794V17.8554C2.99512 18.9434 3.85912 19.8074 4.94712 19.8074H8.72312C9.81112 19.8074 10.6751 18.9434 10.6751 17.8554V14.1114C10.6751 13.0234 9.81112 12.1274 8.72312 12.1274Z" fill="#868997"/>
<path d="M27.9233 12.1274H24.1473C23.0593 12.1274 22.1953 12.9914 22.1953 14.0794V17.8554C22.1953 18.9434 23.0593 19.8074 24.1473 19.8074H27.9233C29.0113 19.8074 29.8753 18.9434 29.8753 17.8554V14.1114C29.8753 13.0234 29.0113 12.1274 27.9233 12.1274Z" fill="#868997"/>
</svg>
