<svg width="30" height="30" viewBox="0 0 30 30" fill="none" xmlns="http://www.w3.org/2000/svg">
<path d="M25.0371 8.45801C25.2129 8.63379 25.3125 8.87109 25.3125 9.12012V27.1875C25.3125 27.7061 24.8936 28.125 24.375 28.125H5.625C5.10645 28.125 4.6875 27.7061 4.6875 27.1875V2.8125C4.6875 2.29395 5.10645 1.875 5.625 1.875H18.0674C18.3164 1.875 18.5566 1.97461 18.7324 2.15039L25.0371 8.45801ZM23.1504 9.55078L17.6367 4.03711V9.55078H23.1504ZM13.7265 22.2656V19.5838H15.4629C17.2374 19.5838 18.3984 18.4222 18.3984 16.7092C18.3984 15.0035 17.2389 13.8281 15.4693 13.8281H12.4219C12.3286 13.8281 12.2392 13.8652 12.1733 13.9311C12.1074 13.997 12.0703 14.0864 12.0703 14.1797V22.2656C12.0703 22.3589 12.1074 22.4483 12.1733 22.5142C12.2392 22.5801 12.3286 22.6172 12.4219 22.6172H13.3749C13.4681 22.6172 13.5576 22.5801 13.6235 22.5142C13.6894 22.4483 13.7265 22.3589 13.7265 22.2656ZM13.7265 18.1837H14.7489C16.1499 18.1837 16.7174 17.8049 16.7174 16.7092C16.7174 15.7702 16.1865 15.2408 15.2563 15.2408H13.7265V18.1837Z" fill="#FF5F57"/>
</svg>
