<svg width="25" height="24" viewBox="0 0 25 24" fill="none" xmlns="http://www.w3.org/2000/svg">
<path d="M8.32294 7.3212C6.85471 9.31895 5.82773 11.2191 5.43458 12.0581C5.38111 12.1722 5.2954 12.268 5.18804 12.3339C5.08069 12.3998 4.95639 12.4327 4.8305 12.4287L4.18328 12.4086C2.62791 12.3609 1.91641 10.438 3.06997 9.3896L5.45748 7.21862C6.0968 6.63753 6.92593 6.30926 7.78975 6.29523C7.90992 6.29299 8.02832 6.32435 8.13162 6.38578C8.23493 6.44721 8.31902 6.53626 8.37445 6.6429C8.42987 6.74955 8.45441 6.86955 8.44531 6.98939C8.43621 7.10923 8.39383 7.22415 8.32294 7.3212ZM18.2049 16.7107C18.207 16.5902 18.1754 16.4716 18.1136 16.3682C18.0519 16.2648 17.9624 16.1807 17.8553 16.1254C17.7483 16.0702 17.6279 16.046 17.5078 16.0556C17.3878 16.0652 17.2727 16.1082 17.1758 16.1797C15.1505 17.6695 13.266 18.6773 12.4431 19.0637C12.3288 19.1172 12.2327 19.203 12.1666 19.3104C12.1006 19.4179 12.0674 19.5424 12.0712 19.6685L12.0914 20.3169C12.1391 21.8744 14.0637 22.5823 15.1104 21.4302L17.2813 19.0427C17.8624 18.4035 18.1908 17.5744 18.2049 16.7107ZM4.40308 17.0891L5.23853 16.2536C5.29954 16.194 5.34811 16.1228 5.38143 16.0442C5.41475 15.9657 5.43216 15.8813 5.43264 15.796C5.43312 15.7106 5.41667 15.6261 5.38424 15.5471C5.35181 15.4682 5.30404 15.3965 5.2437 15.3362C5.18337 15.2758 5.11166 15.228 5.03273 15.1956C4.95381 15.1632 4.86923 15.1467 4.7839 15.1472C4.69857 15.1477 4.61418 15.165 4.53562 15.1984C4.45706 15.2317 4.38589 15.2802 4.32623 15.3412L3.49078 16.1767C3.08303 16.5844 3.37751 17.2781 3.94699 17.2781C4.03171 17.2782 4.11562 17.2615 4.19389 17.2291C4.27216 17.1966 4.34325 17.1491 4.40308 17.0891ZM8.35536 21.0414L9.19089 20.2058C9.31188 20.0848 9.37985 19.9207 9.37985 19.7496C9.37984 19.5785 9.31187 19.4144 9.19087 19.2934C9.06988 19.1724 8.90577 19.1044 8.73466 19.1044C8.56356 19.1044 8.39946 19.1724 8.27847 19.2934L7.44302 20.1292C7.03527 20.5369 7.32983 21.2305 7.89923 21.2305C7.98399 21.2306 8.06792 21.2139 8.14622 21.1815C8.22451 21.149 8.29553 21.1014 8.35536 21.0414ZM4.94486 20.4675L7.78161 17.6308C7.90139 17.5095 7.96833 17.3458 7.96781 17.1754C7.96729 17.005 7.89936 16.8417 7.77885 16.7212C7.65834 16.6006 7.49503 16.5327 7.3246 16.5322C7.15418 16.5317 6.99047 16.5986 6.86922 16.7184L4.03247 19.5551C3.62485 19.9629 3.91921 20.6565 4.48865 20.6565C4.57339 20.6566 4.65732 20.64 4.73561 20.6075C4.8139 20.5751 4.88502 20.5275 4.94486 20.4675ZM18.4136 14.1941C17.4982 14.9792 16.532 15.703 15.5212 16.3608C15.4108 16.4324 15.2792 16.4639 15.1484 16.45C15.0176 16.4361 14.8955 16.3778 14.8026 16.2847L8.21532 9.69742C8.12222 9.6045 8.06386 9.48242 8.05 9.35161C8.03614 9.2208 8.06763 9.0892 8.13919 8.97883C8.81255 7.94424 9.55504 6.95633 10.3616 6.02184C11.6846 4.49168 13.384 3.33321 15.2918 2.6609C17.1996 1.98859 19.2498 1.82571 21.2399 2.18835L21.7076 2.27303C21.8367 2.29656 21.9556 2.35887 22.0483 2.45165C22.1411 2.54444 22.2034 2.66329 22.227 2.79238L22.3117 3.26013C23.0201 7.15241 21.7308 11.3324 18.4136 14.1941ZM17.839 6.66095C17.4501 6.27205 16.9546 6.0072 16.4152 5.89991C15.8758 5.79261 15.3167 5.84768 14.8085 6.05815C14.3004 6.26863 13.8661 6.62505 13.5605 7.08236C13.255 7.53966 13.0919 8.0773 13.0919 8.6273C13.0919 9.17729 13.255 9.71493 13.5605 10.1722C13.8661 10.6295 14.3004 10.986 14.8085 11.1964C15.3167 11.4069 15.8758 11.462 16.4152 11.3547C16.9546 11.2474 17.4501 10.9825 17.839 10.5936C18.3598 10.0717 18.6522 9.36457 18.6522 8.6273C18.6522 7.89003 18.3598 7.18286 17.839 6.66095ZM7.75084 11.0577C7.68744 10.9941 7.61 10.9463 7.52475 10.9181C7.4395 10.8899 7.34882 10.8821 7.26 10.8953C7.17118 10.9085 7.08671 10.9424 7.01338 10.9942C6.94004 11.046 6.8799 11.1143 6.83777 11.1936C6.71426 11.4284 6.59789 11.6568 6.48092 11.8953C6.28834 12.2882 6.22352 12.7315 6.29554 13.1631C6.36756 13.5947 6.57281 13.993 6.88253 14.3021L10.1979 17.6175C10.3928 17.8127 10.6243 17.9675 10.8791 18.0732C11.134 18.1788 11.4071 18.2332 11.683 18.2332C12.2537 18.2332 12.5907 18.0388 13.3064 17.6622C13.3857 17.6201 13.454 17.5599 13.5059 17.4866C13.5577 17.4133 13.5915 17.3288 13.6048 17.24C13.618 17.1512 13.6102 17.0605 13.582 16.9752C13.5537 16.89 13.5059 16.8126 13.4423 16.7492L7.75084 11.0577Z" fill="#5B5DBB"/>
</svg>
