<svg width="12" height="12" viewBox="0 0 12 12" fill="none" xmlns="http://www.w3.org/2000/svg">
<path fill-rule="evenodd" clip-rule="evenodd" d="M6 0.375C2.89537 0.375 0.375 2.89537 0.375 6C0.375 9.10462 2.89537 11.625 6 11.625C9.10462 11.625 11.625 9.10462 11.625 6C11.625 2.89537 9.10462 0.375 6 0.375ZM5.625 3V6C5.625 6.207 5.793 6.375 6 6.375H9C9.207 6.375 9.375 6.207 9.375 6C9.375 5.793 9.207 5.625 9 5.625H6.375V3C6.375 2.793 6.207 2.625 6 2.625C5.793 2.625 5.625 2.793 5.625 3Z" fill="#3E4D97"/>
</svg>
