<svg width="17" height="22" viewBox="0 0 17 22" fill="none" xmlns="http://www.w3.org/2000/svg">
<path d="M16.5297 5.76641C16.6703 5.90703 16.75 6.09687 16.75 6.29609V20.75C16.75 21.1648 16.4148 21.5 16 21.5H1C0.585156 21.5 0.25 21.1648 0.25 20.75V1.25C0.25 0.835156 0.585156 0.5 1 0.5H10.9539C11.1531 0.5 11.3453 0.579688 11.4859 0.720313L16.5297 5.76641ZM15.0203 6.64062L10.6094 2.22969V6.64062H15.0203ZM8.5 12.268L9.73773 16.8852C9.75374 16.945 9.78907 16.9979 9.83823 17.0356C9.8874 17.0734 9.94764 17.0938 10.0096 17.0938H10.7542C10.8161 17.0938 10.8763 17.0735 10.9255 17.0358C10.9746 16.9982 11.01 16.9454 11.0261 16.8856L12.7691 10.4169C12.7755 10.393 12.7786 10.3684 12.7785 10.3438C12.7785 10.2692 12.7489 10.1976 12.6961 10.1449C12.6434 10.0921 12.5719 10.0625 12.4973 10.0625H11.6636C11.5999 10.0625 11.5382 10.084 11.4883 10.1237C11.4385 10.1633 11.4036 10.2187 11.3894 10.2807L10.3164 14.9471L9.15016 10.2755C9.13495 10.2147 9.09984 10.1607 9.05041 10.1221C9.00098 10.0835 8.94006 10.0625 8.87734 10.0625H8.12266C8.05991 10.0625 7.99897 10.0835 7.94953 10.1222C7.9001 10.1608 7.86501 10.2149 7.84984 10.2758L6.68594 14.9377L5.60547 10.2805C5.59113 10.2186 5.55626 10.1634 5.50656 10.1239C5.45685 10.0843 5.39523 10.0628 5.33172 10.0627H4.50227C4.47765 10.0627 4.45315 10.066 4.42938 10.0723C4.35737 10.0917 4.29602 10.1389 4.25879 10.2035C4.22157 10.2681 4.21152 10.3449 4.23086 10.4169L5.96922 16.8856C5.98529 16.9453 6.02059 16.9981 6.06965 17.0357C6.11871 17.0733 6.1788 17.0937 6.24063 17.0938H6.99039C7.05232 17.0937 7.11251 17.0733 7.16162 17.0356C7.21074 16.9979 7.24603 16.945 7.26203 16.8852L8.49977 12.268H8.5Z" fill="#5B5DBB"/>
</svg>
