<svg width="30" height="30" viewBox="0 0 30 30" fill="none" xmlns="http://www.w3.org/2000/svg">
<path d="M25.0371 8.45801C25.2129 8.63379 25.3125 8.87109 25.3125 9.12012V27.1875C25.3125 27.7061 24.8936 28.125 24.375 28.125H5.625C5.10645 28.125 4.6875 27.7061 4.6875 27.1875V2.8125C4.6875 2.29395 5.10645 1.875 5.625 1.875H18.0674C18.3164 1.875 18.5566 1.97461 18.7324 2.15039L25.0371 8.45801ZM23.1504 9.55078L17.6367 4.03711V9.55078H23.1504ZM15 16.585L16.5472 22.3564C16.5672 22.4313 16.6113 22.4974 16.6728 22.5445C16.7342 22.5917 16.8096 22.6172 16.887 22.6172H17.8178C17.8952 22.6173 17.9704 22.5918 18.0318 22.5448C18.0933 22.4977 18.1375 22.4318 18.1576 22.357L20.3364 14.2711C20.3443 14.2413 20.3483 14.2105 20.3481 14.1797C20.3481 14.0864 20.3111 13.997 20.2452 13.9311C20.1792 13.8652 20.0898 13.8281 19.9966 13.8281H18.9545C18.8749 13.8281 18.7977 13.855 18.7354 13.9046C18.6732 13.9541 18.6296 14.0233 18.6117 14.1009L17.2705 19.9339L15.8127 14.0944C15.7937 14.0184 15.7498 13.9509 15.688 13.9026C15.6262 13.8544 15.5501 13.8281 15.4717 13.8281H14.5283C14.4499 13.8282 14.3737 13.8544 14.3119 13.9027C14.2501 13.951 14.2063 14.0186 14.1873 14.0947L12.7324 19.9222L11.3818 14.1006C11.3639 14.0232 11.3203 13.9543 11.2582 13.9048C11.1961 13.8554 11.119 13.8285 11.0396 13.8284H10.0028C9.97207 13.8284 9.94143 13.8325 9.91172 13.8404C9.82172 13.8647 9.74502 13.9236 9.69849 14.0044C9.65196 14.0851 9.6394 14.1811 9.66357 14.2711L11.8365 22.357C11.8566 22.4317 11.9007 22.4976 11.9621 22.5446C12.0234 22.5916 12.0985 22.6171 12.1758 22.6172H13.113C13.1904 22.6172 13.2656 22.5916 13.327 22.5445C13.3884 22.4973 13.4325 22.4312 13.4525 22.3564L14.9997 16.585H15Z" fill="#5B5DBB"/>
</svg>
