<svg width="16" height="16" viewBox="0 0 16 16" fill="none" xmlns="http://www.w3.org/2000/svg">
<path d="M9.66173 9.343C9.58758 9.31875 9.11884 9.10747 9.41174 8.21711H9.40755C10.171 7.43076 10.7545 6.16542 10.7545 4.91966C10.7545 3.00416 9.48077 2 8.00042 2C6.51913 2 5.25239 3.00369 5.25239 4.91966C5.25239 6.17055 5.83259 7.44102 6.60075 8.2255C6.90018 9.01092 6.36475 9.30242 6.25282 9.343C4.7025 9.90408 2.88354 10.926 2.88354 11.9348V12.313C2.88354 13.6875 5.54855 14 8.01488 14C10.4849 14 13.1164 13.6875 13.1164 12.313V11.9348C13.1164 10.8956 11.2885 9.88169 9.66173 9.343ZM7.08907 13.4049C7.08907 12.216 7.84604 10.6111 7.84604 10.6111L7.32227 10.2002C7.32227 9.80753 7.99995 9.39663 7.99995 9.39663C7.99995 9.39663 8.67576 9.81406 8.67576 10.2002L8.15386 10.6111C8.15386 10.6111 8.91083 12.21 8.91083 13.4179C8.91083 13.6073 7.08907 13.5634 7.08907 13.4049Z" fill="#383F5B"/>
</svg>
