<svg width="25" height="24" viewBox="0 0 25 24" fill="none" xmlns="http://www.w3.org/2000/svg">
<path d="M15.8998 7.36871C15.7406 7.36871 15.588 7.31215 15.4755 7.21148C15.363 7.11081 15.2998 6.97427 15.2998 6.8319V2.00061H6.30053C6.06237 1.99468 5.82536 2.03229 5.604 2.11112C5.38264 2.18996 5.18158 2.30837 5.01311 2.45911C4.84464 2.60985 4.7123 2.78975 4.62419 2.98781C4.53609 3.18588 4.49406 3.39794 4.50068 3.61104V20.789C4.49406 21.0021 4.53609 21.2141 4.62419 21.4122C4.7123 21.6103 4.84464 21.7902 5.01311 21.9409C5.18158 22.0916 5.38264 22.21 5.604 22.2889C5.82536 22.3677 6.06237 22.4053 6.30053 22.3994H19.4995C19.7376 22.4053 19.9746 22.3677 20.196 22.2889C20.4174 22.21 20.6184 22.0916 20.7869 21.9409C20.9554 21.7902 21.0877 21.6103 21.1758 21.4122C21.2639 21.2141 21.3059 21.0021 21.2993 20.789V7.36871H15.8998ZM17.0997 18.1049H8.70034C8.54122 18.1049 8.38862 18.0484 8.27611 17.9477C8.1636 17.847 8.10039 17.7105 8.10039 17.5681C8.10039 17.4257 8.1636 17.2892 8.27611 17.1885C8.38862 17.0878 8.54122 17.0313 8.70034 17.0313H17.0997C17.2588 17.0313 17.4114 17.0878 17.5239 17.1885C17.6364 17.2892 17.6996 17.4257 17.6996 17.5681C17.6996 17.7105 17.6364 17.847 17.5239 17.9477C17.4114 18.0484 17.2588 18.1049 17.0997 18.1049ZM17.0997 14.8841H8.70034C8.54122 14.8841 8.38862 14.8275 8.27611 14.7268C8.1636 14.6262 8.10039 14.4896 8.10039 14.3472C8.10039 14.2049 8.1636 14.0683 8.27611 13.9677C8.38862 13.867 8.54122 13.8104 8.70034 13.8104H17.0997C17.2588 13.8104 17.4114 13.867 17.5239 13.9677C17.6364 14.0683 17.6996 14.2049 17.6996 14.3472C17.6996 14.4896 17.6364 14.6262 17.5239 14.7268C17.4114 14.8275 17.2588 14.8841 17.0997 14.8841ZM17.0997 11.6632H8.70034C8.54122 11.6632 8.38862 11.6066 8.27611 11.506C8.1636 11.4053 8.10039 11.2688 8.10039 11.1264C8.10039 10.984 8.1636 10.8475 8.27611 10.7468C8.38862 10.6461 8.54122 10.5896 8.70034 10.5896H17.0997C17.2588 10.5896 17.4114 10.6461 17.5239 10.7468C17.6364 10.8475 17.6996 10.984 17.6996 11.1264C17.6996 11.2688 17.6364 11.4053 17.5239 11.506C17.4114 11.6066 17.2588 11.6632 17.0997 11.6632Z" fill="#3E4D97"/>
<path d="M9.90004 7.36871C10.0592 7.36871 10.2118 7.31215 10.3243 7.21148C10.4368 7.11081 10.5 6.97427 10.5 6.8319V2.00061H19.4993C19.7374 1.99468 19.9744 2.03229 20.1958 2.11112C20.4172 2.18996 20.6182 2.30837 20.7867 2.45911C20.9552 2.60985 21.0875 2.78975 21.1756 2.98781C21.2637 3.18588 21.3057 3.39794 21.2991 3.61104V20.789C21.3057 21.0021 21.2637 21.2141 21.1756 21.4122C21.0875 21.6103 20.9552 21.7902 20.7867 21.9409C20.6182 22.0916 20.4172 22.21 20.1958 22.2889C19.9744 22.3677 19.7374 22.4053 19.4993 22.3994H6.30033C6.06217 22.4053 5.82516 22.3677 5.6038 22.2889C5.38244 22.21 5.18138 22.0916 5.01291 21.9409C4.84444 21.7902 4.7121 21.6103 4.62399 21.4122C4.53588 21.2141 4.49386 21.0021 4.50048 20.789V7.36871H9.90004ZM8.70014 18.1049H17.0995C17.2586 18.1049 17.4112 18.0484 17.5237 17.9477C17.6362 17.847 17.6994 17.7105 17.6994 17.5681C17.6994 17.4257 17.6362 17.2892 17.5237 17.1885C17.4112 17.0878 17.2586 17.0313 17.0995 17.0313H8.70014C8.54102 17.0313 8.38842 17.0878 8.27591 17.1885C8.1634 17.2892 8.10019 17.4257 8.10019 17.5681C8.10019 17.7105 8.1634 17.847 8.27591 17.9477C8.38842 18.0484 8.54102 18.1049 8.70014 18.1049ZM8.70014 14.8841H17.0995C17.2586 14.8841 17.4112 14.8275 17.5237 14.7268C17.6362 14.6262 17.6994 14.4896 17.6994 14.3472C17.6994 14.2049 17.6362 14.0683 17.5237 13.9677C17.4112 13.867 17.2586 13.8104 17.0995 13.8104H8.70014C8.54102 13.8104 8.38842 13.867 8.27591 13.9677C8.1634 14.0683 8.10019 14.2049 8.10019 14.3472C8.10019 14.4896 8.1634 14.6262 8.27591 14.7268C8.38842 14.8275 8.54102 14.8841 8.70014 14.8841ZM8.70014 11.6632H17.0995C17.2586 11.6632 17.4112 11.6066 17.5237 11.506C17.6362 11.4053 17.6994 11.2688 17.6994 11.1264C17.6994 10.984 17.6362 10.8475 17.5237 10.7468C17.4112 10.6461 17.2586 10.5896 17.0995 10.5896H8.70014C8.54102 10.5896 8.38842 10.6461 8.27591 10.7468C8.1634 10.8475 8.10019 10.984 8.10019 11.1264C8.10019 11.2688 8.1634 11.4053 8.27591 11.506C8.38842 11.6066 8.54102 11.6632 8.70014 11.6632Z" fill="#3E4D97"/>
</svg>
