<svg width="28" height="28" viewBox="0 0 28 28" fill="none" xmlns="http://www.w3.org/2000/svg">
<path d="M18.3365 16.8909L14.0002 21.1593L9.66381 16.8909C6.41381 17.0296 3.81836 19.647 3.81836 22.8774V23.3069C3.81836 24.4925 4.79563 25.4545 6.00018 25.4545H22.0002C23.2047 25.4545 24.182 24.4925 24.182 23.3069V22.8774C24.182 19.647 21.5865 17.0296 18.3365 16.8909ZM4.43654 6.11695L4.72745 6.18406V8.797C4.40927 8.98492 4.182 9.31154 4.182 9.70527C4.182 10.0811 4.39109 10.3943 4.68654 10.5867L3.97745 13.3741C3.90018 13.6828 4.0729 14.0005 4.3229 14.0005H6.2229C6.4729 14.0005 6.64563 13.6828 6.56836 13.3741L5.85927 10.5867C6.15472 10.3943 6.36381 10.0811 6.36381 9.70527C6.36381 9.31154 6.13654 8.98492 5.81836 8.797V6.44357L8.81836 7.15497C8.42745 7.92453 8.182 8.78358 8.182 9.70527C8.182 12.8685 10.7865 15.4323 14.0002 15.4323C17.2138 15.4323 19.8184 12.8685 19.8184 9.70527C19.8184 8.78358 19.5774 7.92453 19.182 7.15497L23.5593 6.11695C24.3865 5.92009 24.3865 4.90444 23.5593 4.70757L14.9047 2.64944C14.3138 2.51073 13.6911 2.51073 13.1002 2.64944L4.43654 4.7031C3.61381 4.89997 3.61381 5.92009 4.43654 6.11695Z" fill="#F76A46"/>
</svg>
