<svg width="16" height="16" viewBox="0 0 16 16" fill="none" xmlns="http://www.w3.org/2000/svg">
<path d="M11.47 7.46891V1.60169C11.47 0.724974 10.735 0 9.84611 0H2.29056C1.38457 0 0.666626 0.724974 0.666626 1.60169V10.5037C0.666626 11.3973 1.40167 12.1054 2.29056 12.1054H6.64953C6.85466 14.2803 8.71791 16 10.9743 16C13.3675 16 15.3333 14.078 15.3333 11.7007C15.3333 9.52582 13.641 7.70495 11.47 7.46891ZM3.72645 2.647H8.41022C8.71791 2.647 8.95722 2.88303 8.95722 3.18651C8.95722 3.48999 8.71791 3.72603 8.41022 3.72603H3.72645C3.43586 3.72603 3.17945 3.48999 3.17945 3.18651C3.17945 2.89989 3.41876 2.647 3.72645 2.647ZM3.72645 5.53003H8.41022C8.71791 5.53003 8.95722 5.76607 8.95722 6.06955C8.95722 6.35616 8.71791 6.60906 8.41022 6.60906H3.72645C3.43586 6.60906 3.17945 6.37302 3.17945 6.06955C3.17945 5.76607 3.41876 5.53003 3.72645 5.53003ZM6.06834 9.45838H3.72645C3.43586 9.45838 3.17945 9.22234 3.17945 8.91886C3.17945 8.63224 3.41876 8.37935 3.72645 8.37935H6.06834C6.37603 8.37935 6.61534 8.61538 6.61534 8.91886C6.59825 9.22234 6.35893 9.45838 6.06834 9.45838ZM10.9914 15.0558C9.12817 15.0558 7.62389 13.5553 7.62389 11.7345C7.62389 9.89673 9.12817 8.41307 10.9914 8.41307C12.8547 8.41307 14.3589 9.91359 14.3589 11.7345C14.3589 13.5553 12.8376 15.0558 10.9914 15.0558Z" fill="white"/>
</svg>
