<svg width="38" height="41" viewBox="0 0 38 41" fill="none" xmlns="http://www.w3.org/2000/svg">
<rect y="0.784973" width="37.25" height="40" rx="10" fill="#DEDFF1"/>
<path d="M21.9788 23.0564L18.6251 26.4101L15.2714 23.0564C12.7578 23.1654 10.7505 25.2219 10.7505 27.7601V28.0976C10.7505 29.0292 11.5063 29.785 12.4379 29.785H24.8123C25.7439 29.785 26.4997 29.0292 26.4997 28.0976V27.7601C26.4997 25.2219 24.4924 23.1654 21.9788 23.0564ZM11.2286 14.5912L11.4536 14.6439V16.6969C11.2075 16.8446 11.0317 17.1012 11.0317 17.4106C11.0317 17.7059 11.1934 17.952 11.4219 18.1031L10.8735 20.2932C10.8138 20.5358 10.9474 20.7854 11.1407 20.7854H12.6102C12.8035 20.7854 12.9371 20.5358 12.8773 20.2932L12.3289 18.1031C12.5574 17.952 12.7191 17.7059 12.7191 17.4106C12.7191 17.1012 12.5434 16.8446 12.2973 16.6969V14.8478L14.6175 15.4068C14.3152 16.0114 14.1253 16.6864 14.1253 17.4106C14.1253 19.896 16.1397 21.9104 18.6251 21.9104C21.1105 21.9104 23.1249 19.896 23.1249 17.4106C23.1249 16.6864 22.9386 16.0114 22.6327 15.4068L26.0181 14.5912C26.6579 14.4365 26.6579 13.6385 26.0181 13.4838L19.3247 11.8667C18.8677 11.7577 18.3861 11.7577 17.929 11.8667L11.2286 13.4803C10.5923 13.635 10.5923 14.4365 11.2286 14.5912Z" fill="#3E4D97"/>
</svg>
