<svg width="40" height="41" viewBox="0 0 40 41" fill="none" xmlns="http://www.w3.org/2000/svg">
<rect y="0.284973" width="40" height="40" rx="10" fill="#5B5DBB" fill-opacity="0.2"/>
<path d="M31 17.4888C30.6236 17.6031 30.248 17.7174 29.8519 17.8379C30.3384 18.5027 30.3811 19.28 30.3064 20.0767C30.2324 20.8672 30.0606 21.6182 29.4072 22.1643C29.547 22.2144 29.6702 22.2566 29.7927 22.3032C30.0056 22.3832 30.0598 22.6004 29.8979 22.7649C29.8174 22.8467 29.7146 22.9214 29.6094 22.9557C29.0366 23.1421 28.8254 23.6196 28.7711 24.1885C28.7317 24.6036 28.7637 25.0257 28.7637 25.4513C29.118 25.5858 29.4664 25.7133 29.8124 25.8505C29.9258 25.8953 30.0401 25.9481 30.1371 26.0229C30.211 26.0791 30.2595 26.1759 30.3187 26.2541C30.2439 26.3034 30.1749 26.3755 30.0935 26.3975C29.4155 26.5804 28.735 26.7536 28.0553 26.9295C24.823 27.7666 21.5914 28.6037 18.3583 29.4365C18.2679 29.4593 18.1594 29.4567 18.0706 29.4259C15.4505 28.5184 12.8313 27.6048 10.2121 26.6947C9.80031 26.5513 9.53403 26.2304 9.36637 25.8338C8.97106 24.8964 8.88641 23.9159 9.15762 22.9249C9.23734 22.633 9.42061 22.3736 9.56444 22.0825C9.48307 22.0588 9.36226 22.0341 9.24884 21.9884C9.16748 21.9559 9.09598 21.8952 9.02037 21.8477C9.08037 21.7695 9.12639 21.6604 9.20446 21.6191C9.45266 21.4872 9.71155 21.3764 9.96961 21.2656C10.0814 21.2172 10.1989 21.1724 10.3173 21.1539C10.5523 21.1179 10.6033 20.9684 10.6057 20.7406C10.6123 20.2728 10.6312 19.8085 10.4849 19.3557C10.3633 18.981 10.1611 18.7023 9.79045 18.5766C9.66552 18.5343 9.54471 18.4482 9.44773 18.3514C9.28254 18.1861 9.33843 17.9724 9.55622 17.8968C9.83811 17.7992 10.1225 17.7086 10.4027 17.6163C9.65402 16.5919 9.54389 15.4408 9.79127 14.2379C9.9655 13.3928 10.4718 12.9707 11.2764 12.8538C13.0179 12.5996 14.7577 12.3358 16.4984 12.0791C18.4018 11.7977 20.3061 11.5189 22.2095 11.2375C22.4568 11.2006 22.7034 11.1549 22.9516 11.1223C23.0264 11.1127 23.1086 11.1206 23.1809 11.1434C25.593 11.9181 28.0052 12.6937 30.4148 13.4781C30.5061 13.508 30.6244 13.617 30.6367 13.7041C30.6499 13.7964 30.5685 13.9257 30.4962 14.0048C30.4247 14.0831 30.3187 14.1376 30.2184 14.1701C29.8001 14.3047 29.5642 14.6336 29.5018 15.0583C29.4311 15.5367 29.4377 16.03 29.4286 16.5162C29.4278 16.5787 29.5248 16.6736 29.5955 16.7027C29.9341 16.8434 30.2833 16.9568 30.6211 17.1001C30.7567 17.1573 30.8734 17.2654 30.9992 17.3507C31 17.3965 31 17.4422 31 17.4888ZM21.1115 23.8342C21.3712 23.7568 21.5906 23.6926 21.81 23.6266C24.1104 22.9363 26.4091 22.2373 28.7136 21.5637C29.0851 21.4546 29.3234 21.2498 29.4492 20.8787C29.6637 20.2447 29.6982 19.5887 29.5642 18.9362C29.4418 18.3382 29.141 18.1817 28.5994 18.3708C27.5079 18.7515 26.4157 19.1323 25.3243 19.5131C23.9617 19.9888 22.5982 20.4619 21.2364 20.9438C21.1583 20.971 21.0408 21.0642 21.0424 21.1249C21.0548 22.0192 21.0843 22.9135 21.1115 23.8342ZM18.8982 19.426C18.9253 18.5484 18.9467 17.6928 18.9804 16.8372C18.987 16.6631 18.9418 16.584 18.7823 16.5286C16.2987 15.6712 13.8151 14.8112 11.3372 13.9345C10.9164 13.7859 10.5975 13.9784 10.4907 14.3926C10.2942 15.1541 10.3345 15.906 10.6328 16.6314C10.7306 16.868 10.9008 17.0386 11.149 17.1124C12.9357 17.6427 14.7216 18.1773 16.5074 18.7111C17.2956 18.9459 18.0838 19.1824 18.8982 19.426ZM18.2457 28.2432C18.2457 28.1113 18.2432 28.0049 18.2457 27.8994C18.2654 27.1572 18.2769 26.415 18.3122 25.6738C18.3221 25.4733 18.2679 25.3994 18.0944 25.3396C15.6174 24.4831 13.1411 23.6275 10.6707 22.749C10.2384 22.5952 9.9203 22.8256 9.82168 23.2045C9.62197 23.9678 9.66717 24.7179 9.96139 25.4425C10.0567 25.6773 10.226 25.8496 10.4759 25.9244C12.4886 26.5232 14.5005 27.1273 16.5124 27.7297C17.0819 27.9003 17.6515 28.0673 18.2457 28.2432ZM19.3387 19.4304C22.5834 18.566 25.8001 17.7095 29.021 16.8522C28.9363 16.0467 28.9043 15.2658 29.2256 14.4744C25.9308 15.199 22.6828 15.913 19.4168 16.6306C19.3905 17.5618 19.365 18.4833 19.3387 19.4304ZM20.6726 23.8377C20.6463 22.8915 20.6208 21.9691 20.5953 21.0396C17.3277 20.3212 14.0764 19.6071 10.8506 18.8984C10.9164 19.3126 11.0002 19.6916 11.0298 20.075C11.0602 20.4601 11.0364 20.8505 11.0364 21.2735C14.2063 22.1168 17.4172 22.9715 20.6726 23.8377ZM28.5616 23.3013C28.4539 23.3197 28.384 23.3285 28.315 23.3435C27.2318 23.5809 26.147 23.8095 25.067 24.0593C23.7792 24.3583 22.4659 24.5447 21.22 25.0345C21.1805 25.0503 21.1304 25.074 21.0975 25.06C20.8082 24.936 20.5345 25.0582 20.2584 25.1162C19.7571 25.2209 19.2582 25.337 18.7527 25.4495C18.7232 26.3895 18.6952 27.3058 18.6656 28.2476C21.9095 27.3841 25.1287 26.5267 28.3528 25.6685C28.2673 24.8524 28.2304 24.076 28.5616 23.3013Z" fill="#3E4D97"/>
</svg>
