<svg width="12" height="12" viewBox="0 0 12 12" fill="none" xmlns="http://www.w3.org/2000/svg">
<path d="M3.60371 0.719971C3.47117 0.719971 3.36371 0.827419 3.36371 0.959971V2.27997C3.36371 2.41251 3.47117 2.51997 3.60371 2.51997C3.73626 2.51997 3.84371 2.41251 3.84371 2.27997V0.959971C3.84371 0.827419 3.73626 0.719971 3.60371 0.719971ZM8.40371 0.719971C8.27117 0.719971 8.16371 0.827419 8.16371 0.959971V2.27997C8.16371 2.41251 8.27117 2.51997 8.40371 2.51997C8.53626 2.51997 8.64371 2.41251 8.64371 2.27997V0.959971C8.64371 0.827419 8.53626 0.719971 8.40371 0.719971ZM1.92371 1.67997C1.39025 1.67997 0.959961 2.11022 0.959961 2.64371V4.79997H11.04V2.64371C11.04 2.11022 10.6097 1.67997 10.0762 1.67997H9.35996H8.88371V2.53121C9.16999 2.69801 9.36371 3.00703 9.36371 3.35997C9.36371 3.88732 8.93111 4.31997 8.40371 4.31997C7.87639 4.31997 7.44371 3.88732 7.44371 3.35997C7.44371 3.00703 7.63746 2.69801 7.92371 2.53121V1.67997H4.07996V2.52747C4.36869 2.69362 4.56371 3.00519 4.56371 3.35997C4.56371 3.88732 4.13111 4.31997 3.60371 4.31997C3.07639 4.31997 2.64371 3.88732 2.64371 3.35997C2.64371 3.00817 2.8352 2.6984 3.11996 2.53121V1.67997H1.92371ZM3.60371 2.87997C3.33582 2.87997 3.12371 3.09202 3.12371 3.35997C3.12371 3.62791 3.33582 3.83997 3.60371 3.83997C3.87164 3.83997 4.08371 3.62791 4.08371 3.35997C4.08371 3.09202 3.87164 2.87997 3.60371 2.87997ZM8.40371 2.87997C8.13582 2.87997 7.92371 3.09202 7.92371 3.35997C7.92371 3.62791 8.13582 3.83997 8.40371 3.83997C8.67164 3.83997 8.88371 3.62791 8.88371 3.35997C8.88371 3.09202 8.67164 2.87997 8.40371 2.87997ZM0.959961 5.27997V10.3162C0.959961 10.8497 1.39023 11.28 1.92371 11.28H10.0762C10.6097 11.28 11.04 10.8497 11.04 10.3162V5.27997H0.959961Z" fill="#3E4D97"/>
</svg>
