<svg width="130" height="28" viewBox="0 0 130 28" fill="none" xmlns="http://www.w3.org/2000/svg">
<g clip-path="url(#clip0_820_4817)">
<path d="M25.1408 6.65898V3.08147C25.1408 2.99128 25.0259 2.94618 24.9586 3.01011L23.4321 4.45866L22.2002 5.62771L21.642 6.15748L21.6273 6.18375C21.02 6.75364 20.4137 7.32502 19.8085 7.89741C19.6659 8.03169 19.5234 8.16651 19.3808 8.30133C17.1702 10.3926 14.9696 12.4943 12.7685 14.5945C12.6902 14.6694 12.6291 14.7055 12.5701 14.7065C12.5111 14.7055 12.45 14.6694 12.3716 14.5945C10.1705 12.4943 7.96986 10.3926 5.75935 8.30133C5.61679 8.16651 5.47422 8.03169 5.33166 7.89741C4.72641 7.32502 4.12012 6.75364 3.51279 6.18375L3.49816 6.157L2.93992 5.62721L1.70801 4.45817L0.181579 3.00961C0.114214 2.94618 -0.000673731 2.99128 -0.000673731 3.08147V6.65945H-0.000151515C0.0003707 10.7484 0.000892916 14.8384 0.00193734 18.9273C0.00193734 19.2247 -0.00694033 19.5225 0.00768173 19.8193C0.0129039 19.9278 0.0390146 20.0641 0.112125 20.137C0.950799 20.9745 1.79888 21.8031 2.64904 22.6297C2.69552 22.6748 2.78116 22.6832 2.84905 22.709C2.87464 22.643 2.91746 22.5782 2.92321 22.5103C2.93522 22.3705 2.92738 22.2298 2.92738 22.0895V9.88267L3.02608 9.83656C3.08875 9.91585 3.14254 10.0031 3.21512 10.0725C3.9081 10.7351 4.59795 11.3996 5.30294 12.0503C5.48624 12.2188 5.56561 12.3878 5.56509 12.6321C5.5583 16.7701 5.56195 20.9081 5.55726 25.0461C5.55726 25.2736 5.6053 25.4529 5.78494 25.62C6.57506 26.3534 7.35107 27.0997 8.13806 27.8366C8.21692 27.91 8.33337 27.9471 8.43259 28.0012C8.45086 27.9214 8.46962 27.8421 8.48741 27.7623C8.49575 27.7251 8.502 27.6632 8.502 27.625C8.50255 23.5698 8.50305 19.5141 8.50305 15.4588V15.1129C8.61949 15.2135 8.6832 15.265 8.74226 15.3206C9.93654 16.4529 11.1345 17.5818 12.3204 18.7216C12.4171 18.8143 12.4933 18.8594 12.5701 18.8554C12.6469 18.8594 12.7231 18.8143 12.8197 18.7216C14.0057 17.5818 15.2036 16.4529 16.3979 15.3206C16.4569 15.265 16.5206 15.2135 16.6371 15.1129V15.4588C16.6371 19.5141 16.6376 23.5698 16.6381 27.625C16.6381 27.6632 16.6444 27.7251 16.6528 27.7623C16.6705 27.8421 16.6893 27.9214 16.7076 28.0012C16.8068 27.9471 16.9232 27.91 17.0021 27.8366C17.7891 27.0997 18.5651 26.3534 19.3552 25.62C19.5348 25.4529 19.5829 25.2736 19.5829 25.0461C19.5782 20.9081 19.5819 16.7701 19.5751 12.6321C19.5745 12.3878 19.6539 12.2188 19.8372 12.0503C20.5422 11.3996 21.2321 10.7351 21.925 10.0725C21.9976 10.0031 22.0514 9.91585 22.114 9.83656L22.2128 9.88267V22.089C22.2128 22.2292 22.2049 22.37 22.2169 22.5098C22.2227 22.5776 22.2655 22.6426 22.2911 22.7085C22.359 22.6827 22.4446 22.6743 22.4911 22.6292C23.3413 21.8026 24.1893 20.974 25.028 20.1365C25.1011 20.0637 25.1272 19.9273 25.1324 19.8188C25.1471 19.522 25.1382 19.2241 25.1382 18.9268C25.1392 14.8378 25.1398 10.7479 25.1403 6.65898H25.1408Z" fill="#3E4D97"/>
<path d="M45.0103 4.17017H45.8197V15.876H43.3362V9.74439L40.2824 13.3676H39.473L36.4192 9.74439V15.876H33.9357V4.17017H34.7452L39.8777 10.3889L45.0103 4.17017ZM56.45 15.876L55.7694 14.378H50.8024L50.1217 15.876H47.4543L52.8811 4.17017H53.709L59.1175 15.876H56.45ZM54.9047 12.4444L53.2859 8.55986L51.667 12.4444H54.9047ZM68.6123 15.876L67.9316 14.378H62.9647L62.284 15.876H59.6166L65.0434 4.17017H65.8713L71.2798 15.876H68.6123ZM67.067 12.4444L65.4482 8.55986L63.8293 12.4444H67.067ZM80.7931 4.3792H83.2766V16.0851H82.4487L75.4214 8.97793V15.876H72.9379V4.17017H73.7473L80.7931 11.2425V4.3792ZM93.8893 15.876L93.2087 14.378H88.2417L87.561 15.876H84.8936L90.3205 4.17017H91.1483L96.5568 15.876H93.8893ZM92.3441 12.4444L90.7252 8.55986L89.1063 12.4444H92.3441ZM104.449 4.3792H107.246L101.837 16.0851H101.009L95.5824 4.3792H98.397L101.432 11.347L104.449 4.3792ZM115.268 15.876L114.587 14.378H109.62L108.939 15.876H106.272L111.699 4.17017H112.527L117.935 15.876H115.268ZM113.722 12.4444L112.103 8.55986L110.485 12.4444H113.722ZM129.84 15.876H127.044L123.898 11.8173H122.077V15.876H119.593V4.3792H124.155C125.431 4.3792 126.479 4.72178 127.301 5.40695C128.123 6.09211 128.534 6.98631 128.534 8.08954C128.534 8.80954 128.344 9.45987 127.963 10.0405C127.596 10.6096 127.074 11.0508 126.4 11.3644L129.84 15.876ZM122.077 6.45211V9.74439H124.155C124.732 9.74439 125.179 9.59342 125.498 9.29148C125.829 8.98954 125.995 8.5889 125.995 8.08954C125.995 7.60179 125.823 7.20695 125.48 6.90502C125.149 6.60308 124.707 6.45211 124.155 6.45211H122.077Z" fill="#202020"/>
<path d="M33.9357 24.2995V20.3219H35.4307C35.8443 20.3219 36.1793 20.4364 36.4357 20.6654C36.6921 20.8904 36.8203 21.1817 36.8203 21.5393C36.8203 21.8969 36.69 22.1902 36.4295 22.4192C36.1731 22.6482 35.8401 22.7627 35.4307 22.7627H34.5933V24.2995H33.9357ZM34.5933 22.1962H35.4183C35.6458 22.1962 35.8236 22.1379 35.9518 22.0214C36.08 21.9049 36.1441 21.7462 36.1441 21.5453C36.1441 21.3444 36.08 21.1857 35.9518 21.0692C35.8236 20.9487 35.6458 20.8884 35.4183 20.8884H34.5933V22.1962Z" fill="#929292"/>
<path d="M39.1962 22.3107C39.1879 21.7442 39.3967 21.258 39.8227 20.8522C40.2487 20.4464 40.7553 20.2476 41.3425 20.2556C41.9256 20.2476 42.4322 20.4464 42.8623 20.8522C43.2966 21.258 43.5075 21.7442 43.4951 22.3107C43.5075 22.8772 43.2966 23.3633 42.8623 23.7691C42.4322 24.1749 41.9256 24.3738 41.3425 24.3658C40.7553 24.3738 40.2466 24.1749 39.8165 23.7691C39.3905 23.3633 39.1838 22.8772 39.1962 22.3107ZM42.8189 22.3047C42.8189 21.8868 42.6783 21.5393 42.3971 21.2621C42.1159 20.9808 41.7664 20.8402 41.3487 20.8402C40.9269 20.8402 40.5754 20.9788 40.2942 21.256C40.0171 21.5333 39.8785 21.8828 39.8785 22.3047C39.8785 22.7305 40.0171 23.0841 40.2942 23.3654C40.5712 23.6426 40.9228 23.7812 41.3487 23.7812C41.7664 23.7812 42.1159 23.6406 42.3971 23.3593C42.6783 23.0781 42.8189 22.7265 42.8189 22.3047Z" fill="#929292"/>
<path d="M45.9285 22.3107C45.916 21.7442 46.1249 21.258 46.555 20.8522C46.9851 20.4464 47.4937 20.2476 48.081 20.2556C48.4532 20.2556 48.7944 20.338 49.1045 20.5027C49.4147 20.6674 49.6587 20.8904 49.8365 21.1717L49.3403 21.5272C49.0384 21.0692 48.6207 20.8402 48.0872 20.8402C47.6654 20.8402 47.3139 20.9808 47.0326 21.2621C46.7514 21.5393 46.6108 21.8888 46.6108 22.3107C46.6108 22.7326 46.7514 23.0841 47.0326 23.3654C47.3139 23.6426 47.6654 23.7812 48.0872 23.7812C48.6207 23.7812 49.0384 23.5522 49.3403 23.0942L49.8365 23.4497C49.6587 23.735 49.4147 23.96 49.1045 24.1247C48.7985 24.2854 48.4573 24.3658 48.081 24.3658C47.4937 24.3738 46.9851 24.1749 46.555 23.7691C46.1249 23.3633 45.916 22.8772 45.9285 22.3107Z" fill="#929292"/>
<path d="M52.5151 24.2995V20.3219H53.1726V24.2995H52.5151ZM54.0163 22.1841L55.9021 24.2995H55.0895L53.1913 22.1841L54.9096 20.3219H55.716L54.0163 22.1841Z" fill="#929292"/>
<path d="M58.4477 24.2995V20.3219H61.14V20.8944H59.1053V21.9129H60.6375V22.4674H59.1053V23.727H61.2144V24.2995H58.4477Z" fill="#929292"/>
<path d="M64.833 24.2995V20.8944H63.4559V20.3219H66.8739V20.8944H65.4906V24.2995H64.833Z" fill="#929292"/>
<path d="M72.4536 22.3107C72.4412 21.7442 72.65 21.258 73.0801 20.8522C73.5102 20.4464 74.0189 20.2476 74.6061 20.2556C74.9783 20.2556 75.3195 20.338 75.6297 20.5027C75.9399 20.6674 76.1839 20.8904 76.3617 21.1717L75.8654 21.5272C75.5635 21.0692 75.1458 20.8402 74.6124 20.8402C74.1905 20.8402 73.839 20.9808 73.5578 21.2621C73.2766 21.5393 73.136 21.8888 73.136 22.3107C73.136 22.7326 73.2766 23.0841 73.5578 23.3654C73.839 23.6426 74.1905 23.7812 74.6124 23.7812C75.1458 23.7812 75.5635 23.5522 75.8654 23.0942L76.3617 23.4497C76.1839 23.735 75.9399 23.96 75.6297 24.1247C75.3237 24.2854 74.9825 24.3658 74.6061 24.3658C74.0189 24.3738 73.5102 24.1749 73.0801 23.7691C72.65 23.3633 72.4412 22.8772 72.4536 22.3107Z" fill="#929292"/>
<path d="M79.0402 24.2995V20.3219H79.6978V23.727H81.5712V24.2995H79.0402Z" fill="#929292"/>
<path d="M86.8728 24.2995L86.5813 23.6366H84.7389L84.4473 24.2995H83.7464L85.5515 20.2556H85.7748L87.58 24.2995H86.8728ZM86.3456 23.0881L85.6632 21.4429L84.9746 23.0881H86.3456Z" fill="#929292"/>
<path d="M92.8721 24.2995L92.5805 23.6366H90.7382L90.4466 24.2995H89.7456L91.5508 20.2556H91.7741L93.5793 24.2995H92.8721ZM92.3448 23.0881L91.6625 21.4429L90.9739 23.0881H92.3448Z" fill="#929292"/>
<path d="M95.8015 23.504L96.2667 23.1604C96.5645 23.5823 96.9222 23.7932 97.3399 23.7932C97.5508 23.7932 97.7204 23.743 97.8486 23.6426C97.9809 23.5421 98.0471 23.4075 98.0471 23.2388C98.0471 23.1022 98.0036 22.9957 97.9168 22.9194C97.8299 22.839 97.6728 22.7466 97.4453 22.6422L96.9925 22.4373C96.6741 22.2966 96.4342 22.1419 96.2729 21.9732C96.1158 21.8004 96.0372 21.5875 96.0372 21.3344C96.0372 21.017 96.1613 20.7578 96.4094 20.5569C96.6575 20.356 96.9635 20.2556 97.3275 20.2556C97.6128 20.2556 97.8713 20.3199 98.1029 20.4485C98.3386 20.577 98.5206 20.7498 98.6488 20.9667L98.1897 21.3103C97.9664 20.9888 97.679 20.8281 97.3275 20.8281C97.1455 20.8281 96.9966 20.8703 96.8808 20.9547C96.765 21.0391 96.7071 21.1576 96.7071 21.3103C96.7113 21.3826 96.7196 21.4429 96.732 21.4911C96.7485 21.5353 96.7878 21.5835 96.8498 21.6357C96.9119 21.6839 96.9553 21.7141 96.9801 21.7261C97.0049 21.7382 97.0855 21.7783 97.222 21.8466C97.2468 21.8587 97.2654 21.8687 97.2779 21.8768L97.7369 22.0817C98.0801 22.2344 98.3283 22.3971 98.4813 22.5698C98.6384 22.7426 98.717 22.9576 98.717 23.2147C98.717 23.5562 98.5867 23.8334 98.3262 24.0464C98.0698 24.2593 97.7431 24.3658 97.3461 24.3658C97.0152 24.3658 96.7154 24.2894 96.4466 24.1368C96.1778 23.9841 95.9627 23.7732 95.8015 23.504Z" fill="#929292"/>
<path d="M101.128 23.504L101.594 23.1604C101.891 23.5823 102.249 23.7932 102.667 23.7932C102.878 23.7932 103.047 23.743 103.175 23.6426C103.308 23.5421 103.374 23.4075 103.374 23.2388C103.374 23.1022 103.33 22.9957 103.244 22.9194C103.157 22.839 103 22.7466 102.772 22.6422L102.319 22.4373C102.001 22.2966 101.761 22.1419 101.6 21.9732C101.443 21.8004 101.364 21.5875 101.364 21.3344C101.364 21.017 101.488 20.7578 101.736 20.5569C101.984 20.356 102.29 20.2556 102.654 20.2556C102.94 20.2556 103.198 20.3199 103.43 20.4485C103.665 20.577 103.847 20.7498 103.976 20.9667L103.517 21.3103C103.293 20.9888 103.006 20.8281 102.654 20.8281C102.472 20.8281 102.323 20.8703 102.208 20.9547C102.092 21.0391 102.034 21.1576 102.034 21.3103C102.038 21.3826 102.046 21.4429 102.059 21.4911C102.075 21.5353 102.115 21.5835 102.177 21.6357C102.239 21.6839 102.282 21.7141 102.307 21.7261C102.332 21.7382 102.412 21.7783 102.549 21.8466C102.574 21.8587 102.592 21.8687 102.605 21.8768L103.064 22.0817C103.407 22.2344 103.655 22.3971 103.808 22.5698C103.965 22.7426 104.044 22.9576 104.044 23.2147C104.044 23.5562 103.914 23.8334 103.653 24.0464C103.397 24.2593 103.07 24.3658 102.673 24.3658C102.342 24.3658 102.042 24.2894 101.773 24.1368C101.505 23.9841 101.29 23.7732 101.128 23.504Z" fill="#929292"/>
<path d="M110.102 24.2995H109.351L108.185 22.7627H107.435V24.2995H106.777V20.3219H108.272C108.686 20.3219 109.021 20.4364 109.277 20.6654C109.533 20.8904 109.662 21.1817 109.662 21.5393C109.662 21.8004 109.591 22.0294 109.451 22.2263C109.314 22.4232 109.122 22.5678 108.874 22.6602L110.102 24.2995ZM107.435 20.8884V22.1962H108.26C108.483 22.1962 108.659 22.1379 108.787 22.0214C108.919 21.9009 108.985 21.7422 108.985 21.5453C108.985 21.3484 108.919 21.1897 108.787 21.0692C108.659 20.9487 108.483 20.8884 108.26 20.8884H107.435Z" fill="#929292"/>
<path d="M112.243 22.3107C112.235 21.7442 112.444 21.258 112.87 20.8522C113.296 20.4464 113.802 20.2476 114.39 20.2556C114.973 20.2476 115.479 20.4464 115.91 20.8522C116.344 21.258 116.555 21.7442 116.542 22.3107C116.555 22.8772 116.344 23.3633 115.91 23.7691C115.479 24.1749 114.973 24.3738 114.39 24.3658C113.802 24.3738 113.294 24.1749 112.864 23.7691C112.438 23.3633 112.231 22.8772 112.243 22.3107ZM115.866 22.3047C115.866 21.8868 115.726 21.5393 115.444 21.2621C115.163 20.9808 114.814 20.8402 114.396 20.8402C113.974 20.8402 113.623 20.9788 113.341 21.256C113.064 21.5333 112.926 21.8828 112.926 22.3047C112.926 22.7305 113.064 23.0841 113.341 23.3654C113.618 23.6426 113.97 23.7812 114.396 23.7812C114.814 23.7812 115.163 23.6406 115.444 23.3593C115.726 23.0781 115.866 22.7265 115.866 22.3047Z" fill="#929292"/>
<path d="M118.976 22.3107C118.967 21.7442 119.176 21.258 119.602 20.8522C120.028 20.4464 120.535 20.2476 121.122 20.2556C121.705 20.2476 122.212 20.4464 122.642 20.8522C123.076 21.258 123.287 21.7442 123.275 22.3107C123.287 22.8772 123.076 23.3633 122.642 23.7691C122.212 24.1749 121.705 24.3738 121.122 24.3658C120.535 24.3738 120.026 24.1749 119.596 23.7691C119.17 23.3633 118.963 22.8772 118.976 22.3107ZM122.598 22.3047C122.598 21.8868 122.458 21.5393 122.177 21.2621C121.895 20.9808 121.546 20.8402 121.128 20.8402C120.706 20.8402 120.355 20.9788 120.074 21.256C119.797 21.5333 119.658 21.8828 119.658 22.3047C119.658 22.7305 119.797 23.0841 120.074 23.3654C120.351 23.6426 120.702 23.7812 121.128 23.7812C121.546 23.7812 121.895 23.6406 122.177 23.3593C122.458 23.0781 122.598 22.7265 122.598 22.3047Z" fill="#929292"/>
<path d="M129.622 20.2556H129.846V24.2995H129.188V21.8045L128.016 23.2991H127.792L126.614 21.7984V24.2995H125.956V20.2556H126.186L127.904 22.4794L129.622 20.2556Z" fill="#929292"/>
</g>
<defs>
<clipPath id="clip0_820_4817">
<rect width="130" height="28" fill="white"/>
</clipPath>
</defs>
</svg>
