<svg width="21" height="20" viewBox="0 0 21 20" fill="none" xmlns="http://www.w3.org/2000/svg">
<path d="M13.4167 4.44428H17.5833C17.7675 4.44428 17.9441 4.51745 18.0744 4.64768C18.2046 4.77791 18.2778 4.95455 18.2778 5.13873C18.2778 5.3229 18.2046 5.49954 18.0744 5.62977C17.9441 5.76001 17.7675 5.83317 17.5833 5.83317H16.8153L15.7708 15.2443C15.6765 16.0936 15.2722 16.8784 14.6354 17.4483C13.9986 18.0182 13.174 18.3333 12.3194 18.3332H8.95833C8.10375 18.3333 7.27914 18.0182 6.64235 17.4483C6.00555 16.8784 5.60129 16.0936 5.50694 15.2443L4.46111 5.83317H3.69444C3.51027 5.83317 3.33363 5.76001 3.2034 5.62977C3.07316 5.49954 3 5.3229 3 5.13873C3 4.95455 3.07316 4.77791 3.2034 4.64768C3.33363 4.51745 3.51027 4.44428 3.69444 4.44428H7.86111C7.86111 3.70757 8.15377 3.00103 8.6747 2.4801C9.19564 1.95916 9.90218 1.6665 10.6389 1.6665C11.3756 1.6665 12.0821 1.95916 12.6031 2.4801C13.124 3.00103 13.4167 3.70757 13.4167 4.44428ZM10.6389 3.05539C10.2705 3.05539 9.91726 3.20172 9.6568 3.46219C9.39633 3.72266 9.25 4.07593 9.25 4.44428H12.0278C12.0278 4.07593 11.8814 3.72266 11.621 3.46219C11.3605 3.20172 11.0072 3.05539 10.6389 3.05539ZM8.55556 8.61095V14.1665C8.55556 14.3507 8.62872 14.5273 8.75895 14.6576C8.88919 14.7878 9.06582 14.8609 9.25 14.8609C9.43418 14.8609 9.61081 14.7878 9.74105 14.6576C9.87128 14.5273 9.94444 14.3507 9.94444 14.1665V8.61095C9.94444 8.42677 9.87128 8.25014 9.74105 8.1199C9.61081 7.98967 9.43418 7.9165 9.25 7.9165C9.06582 7.9165 8.88919 7.98967 8.75895 8.1199C8.62872 8.25014 8.55556 8.42677 8.55556 8.61095ZM12.0278 7.9165C11.8436 7.9165 11.667 7.98967 11.5367 8.1199C11.4065 8.25014 11.3333 8.42677 11.3333 8.61095V14.1665C11.3333 14.3507 11.4065 14.5273 11.5367 14.6576C11.667 14.7878 11.8436 14.8609 12.0278 14.8609C12.212 14.8609 12.3886 14.7878 12.5188 14.6576C12.6491 14.5273 12.7222 14.3507 12.7222 14.1665V8.61095C12.7222 8.42677 12.6491 8.25014 12.5188 8.1199C12.3886 7.98967 12.212 7.9165 12.0278 7.9165Z" fill="#FD4651"/>
</svg>
