<svg width="4" height="16" viewBox="0 0 4 16" fill="none" xmlns="http://www.w3.org/2000/svg">
<path d="M1.99982 4C3.09982 4 3.99982 3.1 3.99982 2C3.99982 0.9 3.09982 0 1.99982 0C0.899817 0 -0.000183105 0.9 -0.000183105 2C-0.000183105 3.1 0.899817 4 1.99982 4ZM1.99982 6C0.899817 6 -0.000183105 6.9 -0.000183105 8C-0.000183105 9.1 0.899817 10 1.99982 10C3.09982 10 3.99982 9.1 3.99982 8C3.99982 6.9 3.09982 6 1.99982 6ZM1.99982 12C0.899817 12 -0.000183105 12.9 -0.000183105 14C-0.000183105 15.1 0.899817 16 1.99982 16C3.09982 16 3.99982 15.1 3.99982 14C3.99982 12.9 3.09982 12 1.99982 12Z" fill="#383F5B"/>
</svg>
