<svg width="16" height="16" viewBox="0 0 16 16" fill="none" xmlns="http://www.w3.org/2000/svg">
<path d="M2.31189 7.17757H6.69908C6.96293 7.17757 7.1776 6.9629 7.1776 6.69905V2.31201C7.1776 2.04817 6.96293 1.8335 6.69908 1.8335H2.31189C2.04804 1.8335 1.83337 2.04817 1.83337 2.31201V6.6992C1.83337 6.9629 2.04804 7.17757 2.31189 7.17757Z" fill="#383F5B"/>
<path d="M2.31189 14.1214H6.69908C6.96293 14.1214 7.1776 13.9067 7.1776 13.6429V9.25586C7.1776 8.99201 6.96293 8.77734 6.69908 8.77734H2.31189C2.04804 8.77734 1.83337 8.99201 1.83337 9.25586V13.6431C1.83337 13.9067 2.04804 14.1214 2.31189 14.1214Z" fill="#383F5B"/>
<path d="M8.77734 2.31201V6.6992C8.77734 6.96305 8.99201 7.17772 9.25586 7.17772H13.6431C13.9069 7.17772 14.1216 6.96305 14.1216 6.6992V2.31201C14.1216 2.04817 13.9069 1.8335 13.6431 1.8335H9.25586C8.99201 1.8335 8.77734 2.04817 8.77734 2.31201Z" fill="#383F5B"/>
<path d="M9.25586 14.1214H13.6431C13.9069 14.1214 14.1216 13.9067 14.1216 13.6429V9.25586C14.1216 8.99201 13.9069 8.77734 13.6431 8.77734H9.25586C8.99201 8.77734 8.77734 8.99201 8.77734 9.25586V13.6431C8.77734 13.9067 8.99201 14.1214 9.25586 14.1214Z" fill="#383F5B"/>
</svg>
