<svg width="18" height="16" viewBox="0 0 18 16" fill="none" xmlns="http://www.w3.org/2000/svg">
<path d="M13.1431 0C11.6259 0 10.1698 0.706267 9.21935 1.82234C8.26894 0.706267 6.81281 0 5.29564 0C2.61008 0 0.5 2.11008 0.5 4.79564C0.5 8.09155 3.46458 10.7771 7.95504 14.8578C8.67238 15.5058 9.76877 15.4998 10.4837 14.849C14.9741 10.7771 17.9387 8.09155 17.9387 4.79564C17.9387 2.11008 15.8286 0 13.1431 0ZM9.30654 13.5586L9.21935 13.6458L9.13215 13.5586C4.98174 9.80054 2.24387 7.31553 2.24387 4.79564C2.24387 3.05177 3.55177 1.74387 5.29564 1.74387C6.63842 1.74387 7.94632 2.60708 8.40845 3.80164H10.039C10.4924 2.60708 11.8003 1.74387 13.1431 1.74387C14.8869 1.74387 16.1948 3.05177 16.1948 4.79564C16.1948 7.31553 13.4569 9.80054 9.30654 13.5586Z" fill="#868997"/>
</svg>
