<svg width="30" height="30" viewBox="0 0 30 30" fill="none" xmlns="http://www.w3.org/2000/svg">
<path d="M24.3092 5H5.913C4.86478 5 4 5.95652 4 7.11594V22.8841C4 24.0435 4.86478 25 5.913 25H24.3092C25.3574 25 26.2222 24.0435 26.2222 22.8841V7.11594C26.2222 5.95652 25.3574 5 24.3092 5ZM12.3071 8.10145C13.2243 8.10145 13.9843 8.94203 13.9843 9.95652C13.9843 10.971 13.2243 11.8116 12.3071 11.8116C11.3899 11.8116 10.63 10.971 10.63 9.95652C10.63 8.94203 11.3637 8.10145 12.3071 8.10145ZM23.3658 22.2174L6.12264 22.1884C5.51992 22.1884 5.15304 21.4638 5.4413 20.913L8.42872 15.2029C8.71698 14.6232 9.47694 14.6232 9.7652 15.2029L12.1237 19.7246L17.0765 10.2174C17.6006 9.23188 18.8847 9.23188 19.3826 10.2174L24.4927 19.9855C25.043 20.971 24.3878 22.2174 23.3658 22.2174Z" fill="#F76A46"/>
</svg>
