<svg width="14" height="12" viewBox="0 0 14 12" fill="none" xmlns="http://www.w3.org/2000/svg">
<path d="M4.22999 2.93167H13.4509C13.7444 2.93167 13.9833 2.69279 13.9833 2.39916V0.93232C13.9833 0.638784 13.7444 0.399902 13.4509 0.399902H4.22999C3.93645 0.399902 3.69757 0.638784 3.69757 0.93232V2.39916C3.69757 2.69279 3.93645 2.93167 4.22999 2.93167Z" fill="#383F5B"/>
<path d="M0.652413 2.93167H2.12264C2.41618 2.93167 2.65506 2.69279 2.65506 2.39916V0.93232C2.65506 0.638784 2.41618 0.399902 2.12264 0.399902H0.652413C0.358876 0.399902 0.119995 0.638784 0.119995 0.93232V2.39916C0.119995 2.69279 0.358876 2.93167 0.652413 2.93167Z" fill="#383F5B"/>
<path d="M0.652413 7.26749H2.12264C2.41618 7.26749 2.65506 7.0286 2.65506 6.73507V5.26484C2.65506 4.9713 2.41618 4.73242 2.12264 4.73242H0.652413C0.358876 4.73242 0.119995 4.9713 0.119995 5.26484V6.73507C0.119995 7.0286 0.358876 7.26749 0.652413 7.26749Z" fill="#383F5B"/>
<path d="M4.22999 7.26749H13.4509C13.7444 7.26749 13.9833 7.0286 13.9833 6.73507V5.26484C13.9833 4.9713 13.7444 4.73242 13.4509 4.73242H4.22999C3.93645 4.73242 3.69757 4.9713 3.69757 5.26484V6.73507C3.69757 7.0286 3.93645 7.26749 4.22999 7.26749Z" fill="#383F5B"/>
<path d="M4.22999 11.6H13.4509C13.7444 11.6 13.9833 11.3611 13.9833 11.0676V9.60078C13.9833 9.30724 13.7444 9.06836 13.4509 9.06836H4.22999C3.93645 9.06836 3.69757 9.30724 3.69757 9.60078V11.0676C3.69757 11.3611 3.93645 11.6 4.22999 11.6Z" fill="#383F5B"/>
<path d="M0.652413 11.6H2.12264C2.41618 11.6 2.65506 11.3611 2.65506 11.0676V9.60078C2.65506 9.30724 2.41618 9.06836 2.12264 9.06836H0.652413C0.358876 9.06836 0.119995 9.30724 0.119995 9.60078V11.0676C0.119995 11.3611 0.358876 11.6 0.652413 11.6Z" fill="#383F5B"/>
</svg>
