<svg width="145" height="32" viewBox="0 0 145 32" fill="none" xmlns="http://www.w3.org/2000/svg">
<g clip-path="url(#clip0_354_17502)">
<path d="M28.0415 7.61009V3.52151C28.0415 3.41843 27.9134 3.36689 27.8383 3.43996L26.1357 5.09544L24.7616 6.43149L24.139 7.03695L24.1226 7.06697C23.4452 7.71827 22.769 8.37128 22.0939 9.02544C21.9349 9.1789 21.7759 9.33298 21.6169 9.48706C19.1513 11.8771 16.6967 14.279 14.2416 16.6793C14.1543 16.7648 14.0861 16.8061 14.0203 16.8073C13.9545 16.8061 13.8863 16.7648 13.799 16.6793C11.3438 14.279 8.8893 11.8771 6.42373 9.48706C6.26472 9.33298 6.1057 9.1789 5.94669 9.02544C5.27161 8.37128 4.59536 7.71827 3.91795 7.06697L3.90164 7.0364L3.27898 6.43092L1.90493 5.09487L0.202371 3.43938C0.127233 3.36689 -0.0009111 3.41843 -0.0009111 3.52151V7.61063H-0.000328628C0.000253842 12.2837 0.000836314 16.958 0.00200125 21.631C0.00200125 21.9709 -0.00790076 22.3112 0.00840845 22.6505C0.0142331 22.7745 0.0433566 22.9303 0.124902 23.0135C1.06035 23.9707 2.00628 24.9177 2.95454 25.8623C3.00638 25.9139 3.10191 25.9235 3.17763 25.953C3.20617 25.8776 3.25393 25.8034 3.26034 25.7258C3.27374 25.5661 3.265 25.4053 3.265 25.245V11.2943L3.37509 11.2416C3.44498 11.3322 3.50498 11.4319 3.58594 11.5112C4.35888 12.2685 5.12832 13.028 5.91465 13.7716C6.1191 13.9641 6.20763 14.1573 6.20705 14.4365C6.19948 19.1656 6.20356 23.8948 6.19832 28.6239C6.19832 28.8839 6.2519 29.0889 6.45227 29.2798C7.33356 30.118 8.19911 30.9709 9.07691 31.8131C9.16487 31.8969 9.29475 31.9394 9.40542 32.0012C9.4258 31.91 9.44673 31.8194 9.46656 31.7281C9.47587 31.6857 9.48284 31.6149 9.48284 31.5713C9.48346 26.9367 9.48401 22.3016 9.48401 17.667V17.2717C9.61389 17.3867 9.68495 17.4456 9.75082 17.509C11.0829 18.8031 12.4191 20.0934 13.7419 21.396C13.8497 21.5019 13.9347 21.5534 14.0203 21.5489C14.1059 21.5534 14.191 21.5019 14.2988 21.396C15.6215 20.0934 16.9577 18.8031 18.2898 17.509C18.3556 17.4456 18.4267 17.3867 18.5566 17.2717V17.667C18.5566 22.3016 18.5572 26.9367 18.5577 31.5713C18.5577 31.6149 18.5648 31.6857 18.5741 31.7281C18.5938 31.8194 18.6148 31.91 18.6352 32.0012C18.7459 31.9394 18.8758 31.8969 18.9637 31.8131C19.8415 30.9709 20.7071 30.118 21.5884 29.2798C21.7887 29.0889 21.8423 28.8839 21.8423 28.6239C21.837 23.8948 21.8412 19.1656 21.8336 14.4365C21.8329 14.1573 21.9215 13.9641 22.126 13.7716C22.9123 13.028 23.6818 12.2685 24.4546 11.5112C24.5356 11.4319 24.5956 11.3322 24.6655 11.2416L24.7756 11.2943V25.2444C24.7756 25.4047 24.7669 25.5656 24.7803 25.7253C24.7867 25.8028 24.8344 25.877 24.863 25.9524C24.9387 25.9229 25.0342 25.9133 25.0861 25.8617C26.0343 24.917 26.9802 23.9701 27.9157 23.013C27.9972 22.9297 28.0264 22.7739 28.0322 22.6499C28.0485 22.3107 28.0386 21.9703 28.0386 21.6304C28.0398 16.9574 28.0404 12.2832 28.0409 7.61009H28.0415Z" fill="#3E4D97"/>
<path d="M50.2039 4.76587H51.1067V18.144H48.3367V11.1364L44.9306 15.2773H44.0277L40.6216 11.1364V18.144H37.8516V4.76587H38.7544L44.4792 11.873L50.2039 4.76587ZM62.9636 18.144L62.2044 16.4319H56.6644L55.9052 18.144H52.9299L58.983 4.76587H59.9063L65.9389 18.144H62.9636ZM61.2401 14.2221L59.4344 9.78267L57.6287 14.2221H61.2401ZM76.5293 18.144L75.7701 16.4319H70.23L69.4708 18.144H66.4956L72.5486 4.76587H73.472L79.5045 18.144H76.5293ZM74.8057 14.2221L73 9.78267L71.1944 14.2221H74.8057ZM90.1155 5.00476H92.8856V18.3829H91.9622L84.124 10.2605V18.144H81.354V4.76587H82.2568L90.1155 12.8485V5.00476ZM104.723 18.144L103.964 16.4319H98.4236L97.6644 18.144H94.6892L100.742 4.76587H101.666L107.698 18.144H104.723ZM102.999 14.2221L101.194 9.78267L99.388 14.2221H102.999ZM116.501 5.00476H119.62L113.588 18.3829H112.664L106.611 5.00476H109.751L113.136 12.9679L116.501 5.00476ZM128.568 18.144L127.809 16.4319H122.269L121.509 18.144H118.534L124.587 4.76587H125.511L131.543 18.144H128.568ZM126.844 14.2221L125.039 9.78267L123.233 14.2221H126.844ZM144.822 18.144H141.703L138.194 13.5054H136.163V18.144H133.393V5.00476H138.481C139.904 5.00476 141.073 5.39629 141.99 6.17933C142.906 6.96238 143.365 7.98432 143.365 9.24515C143.365 10.068 143.153 10.8112 142.729 11.4748C142.318 12.1252 141.737 12.6295 140.985 12.9878L144.822 18.144ZM136.163 7.37381V11.1364H138.481C139.124 11.1364 139.623 10.9639 139.979 10.6188C140.348 10.2737 140.533 9.81585 140.533 9.24515C140.533 8.68773 140.342 8.23648 139.959 7.89141C139.589 7.54634 139.097 7.37381 138.481 7.37381H136.163Z" fill="#202020"/>
<path d="M37.8516 27.7708V23.225H39.5191C39.9803 23.225 40.354 23.3558 40.6399 23.6175C40.9259 23.8747 41.0689 24.2076 41.0689 24.6162C41.0689 25.0249 40.9236 25.3601 40.633 25.6218C40.347 25.8836 39.9757 26.0144 39.5191 26.0144H38.585V27.7708H37.8516ZM38.585 25.367H39.5052C39.7589 25.367 39.9573 25.3004 40.1003 25.1673C40.2433 25.0341 40.3147 24.8527 40.3147 24.6231C40.3147 24.3936 40.2433 24.2122 40.1003 24.079C39.9573 23.9413 39.7589 23.8724 39.5052 23.8724H38.585V25.367Z" fill="#929292"/>
<path d="M43.719 25.4979C43.7098 24.8504 43.9427 24.2948 44.4178 23.8311C44.8929 23.3673 45.458 23.14 46.113 23.1492C46.7634 23.14 47.3284 23.3673 47.8081 23.8311C48.2925 24.2948 48.5277 24.8504 48.5139 25.4979C48.5277 26.1453 48.2925 26.7009 47.8081 27.1647C47.3284 27.6284 46.7634 27.8557 46.113 27.8465C45.458 27.8557 44.8906 27.6284 44.4109 27.1647C43.9358 26.7009 43.7051 26.1453 43.719 25.4979ZM47.7597 25.491C47.7597 25.0134 47.6029 24.6163 47.2892 24.2994C46.9756 23.978 46.5858 23.8173 46.1199 23.8173C45.6494 23.8173 45.2573 23.9757 44.9437 24.2925C44.6346 24.6094 44.4801 25.0088 44.4801 25.491C44.4801 25.9777 44.6346 26.3818 44.9437 26.7032C45.2527 27.02 45.6448 27.1784 46.1199 27.1784C46.5858 27.1784 46.9756 27.0177 47.2892 26.6963C47.6029 26.3749 47.7597 25.9731 47.7597 25.491Z" fill="#929292"/>
<path d="M51.2281 25.4979C51.2142 24.8504 51.4472 24.2948 51.9269 23.8311C52.4066 23.3673 52.974 23.14 53.629 23.1492C54.0441 23.1492 54.4247 23.2433 54.7706 23.4316C55.1166 23.6198 55.3887 23.8747 55.5871 24.1961L55.0335 24.6025C54.6968 24.079 54.2309 23.8173 53.6359 23.8173C53.1654 23.8173 52.7733 23.978 52.4597 24.2994C52.146 24.6163 51.9892 25.0157 51.9892 25.4979C51.9892 25.98 52.146 26.3818 52.4597 26.7032C52.7733 27.02 53.1654 27.1784 53.6359 27.1784C54.2309 27.1784 54.6968 26.9167 55.0335 26.3932L55.5871 26.7996C55.3887 27.1256 55.1166 27.3828 54.7706 27.571C54.4293 27.7547 54.0487 27.8465 53.629 27.8465C52.974 27.8557 52.4066 27.6284 51.9269 27.1647C51.4472 26.7009 51.2142 26.1453 51.2281 25.4979Z" fill="#929292"/>
<path d="M58.5747 27.7708V23.225H59.3081V27.7708H58.5747ZM60.2491 25.3532L62.3525 27.7708H61.4461L59.3289 25.3532L61.2455 23.225H62.1449L60.2491 25.3532Z" fill="#929292"/>
<path d="M65.1919 27.7708V23.225H68.1947V23.8793H65.9253V25.0433H67.6343V25.6769H65.9253V27.1164H68.2778V27.7708H65.1919Z" fill="#929292"/>
<path d="M72.3139 27.7708V23.8793H70.7779V23.225H74.5903V23.8793H73.0473V27.7708H72.3139Z" fill="#929292"/>
<path d="M80.8138 25.4979C80.8 24.8504 81.0329 24.2948 81.5126 23.8311C81.9924 23.3673 82.5597 23.14 83.2147 23.1492C83.6299 23.1492 84.0104 23.2433 84.3564 23.4316C84.7023 23.6198 84.9745 23.8747 85.1728 24.1961L84.6193 24.6025C84.2826 24.079 83.8167 23.8173 83.2216 23.8173C82.7511 23.8173 82.3591 23.978 82.0454 24.2994C81.7317 24.6163 81.5749 25.0157 81.5749 25.4979C81.5749 25.98 81.7317 26.3818 82.0454 26.7032C82.3591 27.02 82.7511 27.1784 83.2216 27.1784C83.8167 27.1784 84.2826 26.9167 84.6193 26.3932L85.1728 26.7996C84.9745 27.1256 84.7023 27.3828 84.3564 27.571C84.015 27.7547 83.6345 27.8465 83.2147 27.8465C82.5597 27.8557 81.9924 27.6284 81.5126 27.1647C81.0329 26.7009 80.8 26.1453 80.8138 25.4979Z" fill="#929292"/>
<path d="M88.1604 27.7708V23.225H88.8939V27.1164H90.9834V27.7708H88.1604Z" fill="#929292"/>
<path d="M96.8968 27.7708L96.5716 27.0131H94.5166L94.1914 27.7708H93.4096L95.423 23.1492H95.6721L97.6856 27.7708H96.8968ZM96.3087 26.3864L95.5476 24.506L94.7796 26.3864H96.3087Z" fill="#929292"/>
<path d="M103.588 27.7708L103.263 27.0131H101.208L100.883 27.7708H100.101L102.115 23.1492H102.364L104.377 27.7708H103.588ZM103 26.3864L102.239 24.506L101.471 26.3864H103Z" fill="#929292"/>
<path d="M106.856 26.8616L107.375 26.469C107.707 26.9511 108.106 27.1922 108.572 27.1922C108.807 27.1922 108.996 27.1348 109.139 27.02C109.287 26.9052 109.36 26.7514 109.36 26.5586C109.36 26.4024 109.312 26.2808 109.215 26.1935C109.118 26.1017 108.943 25.9961 108.689 25.8767L108.184 25.6425C107.829 25.4818 107.561 25.305 107.382 25.1122C107.206 24.9147 107.119 24.6714 107.119 24.3821C107.119 24.0193 107.257 23.7232 107.534 23.4936C107.81 23.264 108.152 23.1492 108.558 23.1492C108.876 23.1492 109.164 23.2227 109.423 23.3696C109.686 23.5165 109.889 23.714 110.032 23.9619L109.519 24.3545C109.27 23.9872 108.95 23.8035 108.558 23.8035C108.355 23.8035 108.189 23.8517 108.06 23.9482C107.93 24.0446 107.866 24.18 107.866 24.3545C107.87 24.4372 107.88 24.506 107.894 24.5611C107.912 24.6117 107.956 24.6668 108.025 24.7265C108.094 24.7816 108.143 24.816 108.17 24.8298C108.198 24.8435 108.288 24.8895 108.44 24.9675C108.468 24.9813 108.489 24.9928 108.502 25.002L109.014 25.2361C109.397 25.4106 109.674 25.5966 109.845 25.794C110.02 25.9915 110.108 26.2371 110.108 26.531C110.108 26.9213 109.962 27.2381 109.672 27.4815C109.386 27.7248 109.021 27.8465 108.578 27.8465C108.209 27.8465 107.875 27.7593 107.575 27.5848C107.275 27.4103 107.036 27.1693 106.856 26.8616Z" fill="#929292"/>
<path d="M112.797 26.8616L113.316 26.469C113.648 26.9511 114.047 27.1922 114.513 27.1922C114.748 27.1922 114.937 27.1348 115.08 27.02C115.228 26.9052 115.302 26.7514 115.302 26.5586C115.302 26.4024 115.253 26.2808 115.157 26.1935C115.06 26.1017 114.884 25.9961 114.631 25.8767L114.126 25.6425C113.77 25.4818 113.503 25.305 113.323 25.1122C113.148 24.9147 113.06 24.6714 113.06 24.3821C113.06 24.0193 113.198 23.7232 113.475 23.4936C113.752 23.264 114.093 23.1492 114.499 23.1492C114.817 23.1492 115.106 23.2227 115.364 23.3696C115.627 23.5165 115.83 23.714 115.973 23.9619L115.461 24.3545C115.212 23.9872 114.891 23.8035 114.499 23.8035C114.296 23.8035 114.13 23.8517 114.001 23.9482C113.872 24.0446 113.807 24.18 113.807 24.3545C113.812 24.4372 113.821 24.506 113.835 24.5611C113.853 24.6117 113.897 24.6668 113.966 24.7265C114.036 24.7816 114.084 24.816 114.112 24.8298C114.139 24.8435 114.229 24.8895 114.382 24.9675C114.409 24.9813 114.43 24.9928 114.444 25.002L114.956 25.2361C115.339 25.4106 115.615 25.5966 115.786 25.794C115.961 25.9915 116.049 26.2371 116.049 26.531C116.049 26.9213 115.904 27.2381 115.613 27.4815C115.327 27.7248 114.963 27.8465 114.52 27.8465C114.151 27.8465 113.817 27.7593 113.517 27.5848C113.217 27.4103 112.977 27.1693 112.797 26.8616Z" fill="#929292"/>
<path d="M122.806 27.7708H121.969L120.668 26.0144H119.831V27.7708H119.098V23.225H120.765C121.226 23.225 121.6 23.3558 121.886 23.6175C122.172 23.8747 122.315 24.2076 122.315 24.6162C122.315 24.9147 122.237 25.1764 122.08 25.4014C121.927 25.6264 121.713 25.7917 121.436 25.8973L122.806 27.7708ZM119.831 23.8724V25.367H120.751C121 25.367 121.196 25.3004 121.339 25.1673C121.487 25.0295 121.561 24.8481 121.561 24.6231C121.561 24.3981 121.487 24.2168 121.339 24.079C121.196 23.9413 121 23.8724 120.751 23.8724H119.831Z" fill="#929292"/>
<path d="M125.195 25.4979C125.186 24.8504 125.418 24.2948 125.894 23.8311C126.369 23.3673 126.934 23.14 127.589 23.1492C128.239 23.14 128.804 23.3673 129.284 23.8311C129.768 24.2948 130.003 24.8504 129.99 25.4979C130.003 26.1453 129.768 26.7009 129.284 27.1647C128.804 27.6284 128.239 27.8557 127.589 27.8465C126.934 27.8557 126.366 27.6284 125.887 27.1647C125.412 26.7009 125.181 26.1453 125.195 25.4979ZM129.235 25.491C129.235 25.0134 129.079 24.6163 128.765 24.2994C128.451 23.978 128.062 23.8173 127.596 23.8173C127.125 23.8173 126.733 23.9757 126.419 24.2925C126.11 24.6094 125.956 25.0088 125.956 25.491C125.956 25.9777 126.11 26.3818 126.419 26.7032C126.728 27.02 127.121 27.1784 127.596 27.1784C128.062 27.1784 128.451 27.0177 128.765 26.6963C129.079 26.3749 129.235 25.9731 129.235 25.491Z" fill="#929292"/>
<path d="M132.704 25.4979C132.695 24.8504 132.928 24.2948 133.403 23.8311C133.878 23.3673 134.443 23.14 135.098 23.1492C135.748 23.14 136.313 23.3673 136.793 23.8311C137.277 24.2948 137.513 24.8504 137.499 25.4979C137.513 26.1453 137.277 26.7009 136.793 27.1647C136.313 27.6284 135.748 27.8557 135.098 27.8465C134.443 27.8557 133.875 27.6284 133.396 27.1647C132.921 26.7009 132.69 26.1453 132.704 25.4979ZM136.745 25.491C136.745 25.0134 136.588 24.6163 136.274 24.2994C135.96 23.978 135.571 23.8173 135.105 23.8173C134.634 23.8173 134.242 23.9757 133.928 24.2925C133.619 24.6094 133.465 25.0088 133.465 25.491C133.465 25.9777 133.619 26.3818 133.928 26.7032C134.238 27.02 134.63 27.1784 135.105 27.1784C135.571 27.1784 135.96 27.0177 136.274 26.6963C136.588 26.3749 136.745 25.9731 136.745 25.491Z" fill="#929292"/>
<path d="M144.579 23.1492H144.828V27.7708H144.094V24.9193L142.787 26.6274H142.538L141.223 24.9124V27.7708H140.49V23.1492H140.746L142.662 25.6907L144.579 23.1492Z" fill="#929292"/>
</g>
<defs>
<clipPath id="clip0_354_17502">
<rect width="145" height="32" fill="white"/>
</clipPath>
</defs>
</svg>
