<svg width="131" height="28" viewBox="0 0 131 28" fill="none" xmlns="http://www.w3.org/2000/svg">
<g clip-path="url(#clip0_701_3878)">
<path d="M25.6406 6.65886V3.08135C25.6406 2.99116 25.5257 2.94606 25.4583 3.00999L23.9319 4.45854L22.7 5.62759L22.1418 6.15736L22.1271 6.18363C21.5198 6.75352 20.9135 7.3249 20.3083 7.89729C20.1657 8.03157 20.0231 8.16639 19.8806 8.30121C17.67 10.3925 15.4694 12.4942 13.2683 14.5944C13.19 14.6692 13.1288 14.7054 13.0698 14.7064C13.0108 14.7054 12.9497 14.6692 12.8714 14.5944C10.6702 12.4942 8.46962 10.3925 6.25911 8.30121C6.11654 8.16639 5.97398 8.03157 5.83141 7.89729C5.22617 7.3249 4.61988 6.75352 4.01254 6.18363L3.99792 6.15688L3.43967 5.62709L2.20777 4.45804L0.681335 3.00949C0.61397 2.94606 0.499082 2.99116 0.499082 3.08135V6.65933H0.499604C0.500127 10.7483 0.500649 14.8383 0.501693 18.9271C0.501693 19.2245 0.492816 19.5224 0.507438 19.8192C0.51266 19.9277 0.53877 20.064 0.61188 20.1369C1.45056 20.9744 2.29863 21.803 3.1488 22.6296C3.19528 22.6747 3.28092 22.6831 3.34881 22.7089C3.3744 22.6429 3.41722 22.578 3.42296 22.5101C3.43497 22.3704 3.42714 22.2297 3.42714 22.0894V9.88255L3.52584 9.83644C3.5885 9.91573 3.64229 10.0029 3.71488 10.0724C4.40786 10.7349 5.0977 11.3995 5.80269 12.0502C5.98599 12.2186 6.06536 12.3877 6.06484 12.632C6.05806 16.77 6.06171 20.9079 6.05701 25.046C6.05701 25.2734 6.10505 25.4528 6.2847 25.6199C7.07481 26.3533 7.85083 27.0996 8.63782 27.8365C8.71668 27.9098 8.83313 27.947 8.93234 28.0011C8.95062 27.9213 8.96938 27.842 8.98716 27.7622C8.9955 27.725 9.00176 27.6631 9.00176 27.6249C9.00231 23.5697 9.0028 19.514 9.0028 15.4587V15.1128C9.11925 15.2134 9.18296 15.2649 9.24201 15.3204C10.4363 16.4528 11.6343 17.5817 12.8202 18.7215C12.9168 18.8142 12.9931 18.8593 13.0698 18.8553C13.1466 18.8593 13.2228 18.8142 13.3195 18.7215C14.5054 17.5817 15.7034 16.4528 16.8977 15.3204C16.9567 15.2649 17.0204 15.2134 17.1368 15.1128V15.4587C17.1368 19.514 17.1374 23.5697 17.1379 27.6249C17.1379 27.6631 17.1442 27.725 17.1525 27.7622C17.1702 27.842 17.1891 27.9213 17.2073 28.0011C17.3065 27.947 17.423 27.9098 17.5019 27.8365C18.2888 27.0996 19.0649 26.3533 19.855 25.6199C20.0346 25.4528 20.0827 25.2734 20.0827 25.046C20.0779 20.9079 20.0816 16.77 20.0748 12.632C20.0743 12.3877 20.1537 12.2186 20.337 12.0502C21.042 11.3995 21.7318 10.7349 22.4247 10.0724C22.4974 10.0029 22.5511 9.91573 22.6138 9.83644L22.7125 9.88255V22.0889C22.7125 22.2291 22.7047 22.3699 22.7167 22.5097C22.7225 22.5775 22.7653 22.6424 22.7908 22.7083C22.8587 22.6826 22.9444 22.6741 22.9909 22.629C23.841 21.8024 24.6891 20.9739 25.5278 20.1364C25.6009 20.0635 25.627 19.9272 25.6322 19.8187C25.6468 19.5219 25.638 19.224 25.638 18.9267C25.639 14.8377 25.6395 10.7478 25.64 6.65886H25.6406Z" fill="#3E4D97"/>
<path d="M45.5101 4.17023H46.3195V15.8761H43.836V9.74445L40.7822 13.3677H39.9728L36.919 9.74445V15.8761H34.4355V4.17023H35.245L40.3775 10.389L45.5101 4.17023ZM56.9498 15.8761L56.2692 14.378H51.3022L50.6215 15.8761H47.9541L53.381 4.17023H54.2088L59.6173 15.8761H56.9498ZM55.4045 12.4445L53.7857 8.55992L52.1668 12.4445H55.4045ZM69.1121 15.8761L68.4315 14.378H63.4645L62.7838 15.8761H60.1164L65.5433 4.17023H66.3711L71.7796 15.8761H69.1121ZM67.5668 12.4445L65.948 8.55992L64.3291 12.4445H67.5668ZM81.2929 4.37926H83.7764V16.0851H82.9485L75.9212 8.97799V15.8761H73.4377V4.17023H74.2471L81.2929 11.2425V4.37926ZM94.3892 15.8761L93.7085 14.378H88.7415L88.0609 15.8761H85.3934L90.8203 4.17023H91.6481L97.0566 15.8761H94.3892ZM92.8439 12.4445L91.225 8.55992L89.6061 12.4445H92.8439ZM104.949 4.37926H107.745L102.337 16.0851H101.509L96.0822 4.37926H98.8968L101.932 11.347L104.949 4.37926ZM115.767 15.8761L115.087 14.378H110.12L109.439 15.8761H106.772L112.199 4.17023H113.026L118.435 15.8761H115.767ZM114.222 12.4445L112.603 8.55992L110.984 12.4445H114.222ZM130.34 15.8761H127.543L124.398 11.8174H122.576V15.8761H120.093V4.37926H124.655C125.931 4.37926 126.979 4.72184 127.801 5.40701C128.623 6.09217 129.034 6.98637 129.034 8.0896C129.034 8.8096 128.843 9.45993 128.463 10.0406C128.095 10.6096 127.574 11.0509 126.9 11.3645L130.34 15.8761ZM122.576 6.45217V9.74445H124.655C125.232 9.74445 125.679 9.59348 125.998 9.29154C126.329 8.9896 126.495 8.58896 126.495 8.0896C126.495 7.60186 126.323 7.20702 125.98 6.90508C125.649 6.60314 125.207 6.45217 124.655 6.45217H122.576Z" fill="#202020"/>
<path d="M34.4355 24.2994V20.3218H35.9305C36.3441 20.3218 36.6791 20.4363 36.9355 20.6654C37.1919 20.8904 37.3201 21.1816 37.3201 21.5392C37.3201 21.8968 37.1898 22.1901 36.9293 22.4191C36.6729 22.6481 36.34 22.7626 35.9305 22.7626H35.0931V24.2994H34.4355ZM35.0931 22.1961H35.9181C36.1456 22.1961 36.3234 22.1379 36.4516 22.0214C36.5798 21.9048 36.6439 21.7461 36.6439 21.5452C36.6439 21.3444 36.5798 21.1857 36.4516 21.0691C36.3234 20.9486 36.1456 20.8883 35.9181 20.8883H35.0931V22.1961Z" fill="#929292"/>
<path d="M39.696 22.3106C39.6877 21.7441 39.8966 21.258 40.3225 20.8522C40.7485 20.4464 41.2551 20.2475 41.8423 20.2555C42.4254 20.2475 42.932 20.4464 43.3621 20.8522C43.7964 21.258 44.0073 21.7441 43.9949 22.3106C44.0073 22.8771 43.7964 23.3633 43.3621 23.7691C42.932 24.1749 42.4254 24.3738 41.8423 24.3657C41.2551 24.3738 40.7464 24.1749 40.3163 23.7691C39.8904 23.3633 39.6836 22.8771 39.696 22.3106ZM43.3187 22.3046C43.3187 21.8868 43.1781 21.5392 42.8969 21.262C42.6157 20.9808 42.2662 20.8401 41.8485 20.8401C41.4267 20.8401 41.0752 20.9787 40.794 21.256C40.5169 21.5332 40.3784 21.8827 40.3784 22.3046C40.3784 22.7305 40.5169 23.084 40.794 23.3653C41.0711 23.6425 41.4226 23.7811 41.8485 23.7811C42.2662 23.7811 42.6157 23.6405 42.8969 23.3593C43.1781 23.078 43.3187 22.7265 43.3187 22.3046Z" fill="#929292"/>
<path d="M46.4283 22.3106C46.4159 21.7441 46.6247 21.258 47.0548 20.8522C47.4849 20.4464 47.9936 20.2475 48.5808 20.2555C48.953 20.2555 49.2942 20.3379 49.6044 20.5026C49.9145 20.6674 50.1585 20.8904 50.3363 21.1716L49.8401 21.5272C49.5382 21.0691 49.1205 20.8401 48.587 20.8401C48.1652 20.8401 47.8137 20.9808 47.5325 21.262C47.2512 21.5392 47.1106 21.8888 47.1106 22.3106C47.1106 22.7325 47.2512 23.084 47.5325 23.3653C47.8137 23.6425 48.1652 23.7811 48.587 23.7811C49.1205 23.7811 49.5382 23.5521 49.8401 23.0941L50.3363 23.4497C50.1585 23.7349 49.9145 23.9599 49.6044 24.1246C49.2983 24.2854 48.9571 24.3657 48.5808 24.3657C47.9936 24.3738 47.4849 24.1749 47.0548 23.7691C46.6247 23.3633 46.4159 22.8771 46.4283 22.3106Z" fill="#929292"/>
<path d="M53.0149 24.2994V20.3218H53.6725V24.2994H53.0149ZM54.5161 22.1841L56.4019 24.2994H55.5893L53.6911 22.1841L55.4094 20.3218H56.2158L54.5161 22.1841Z" fill="#929292"/>
<path d="M58.9475 24.2994V20.3218H61.6398V20.8944H59.6051V21.9129H61.1373V22.4673H59.6051V23.7269H61.7142V24.2994H58.9475Z" fill="#929292"/>
<path d="M65.3328 24.2994V20.8944H63.9557V20.3218H67.3737V20.8944H65.9904V24.2994H65.3328Z" fill="#929292"/>
<path d="M72.9534 22.3106C72.941 21.7441 73.1499 21.258 73.58 20.8522C74.0101 20.4464 74.5187 20.2475 75.106 20.2555C75.4782 20.2555 75.8193 20.3379 76.1295 20.5026C76.4397 20.6674 76.6837 20.8904 76.8615 21.1716L76.3652 21.5272C76.0633 21.0691 75.6457 20.8401 75.1122 20.8401C74.6903 20.8401 74.3388 20.9808 74.0576 21.262C73.7764 21.5392 73.6358 21.8888 73.6358 22.3106C73.6358 22.7325 73.7764 23.084 74.0576 23.3653C74.3388 23.6425 74.6903 23.7811 75.1122 23.7811C75.6457 23.7811 76.0633 23.5521 76.3652 23.0941L76.8615 23.4497C76.6837 23.7349 76.4397 23.9599 76.1295 24.1246C75.8235 24.2854 75.4823 24.3657 75.106 24.3657C74.5187 24.3738 74.0101 24.1749 73.58 23.7691C73.1499 23.3633 72.941 22.8771 72.9534 22.3106Z" fill="#929292"/>
<path d="M79.5401 24.2994V20.3218H80.1976V23.7269H82.071V24.2994H79.5401Z" fill="#929292"/>
<path d="M87.3727 24.2994L87.0811 23.6365H85.2387L84.9472 24.2994H84.2462L86.0513 20.2555H86.2747L88.0798 24.2994H87.3727ZM86.8454 23.0881L86.163 21.4428L85.4744 23.0881H86.8454Z" fill="#929292"/>
<path d="M93.3719 24.2994L93.0804 23.6365H91.238L90.9464 24.2994H90.2455L92.0506 20.2555H92.2739L94.0791 24.2994H93.3719ZM92.8446 23.0881L92.1623 21.4428L91.4737 23.0881H92.8446Z" fill="#929292"/>
<path d="M96.3013 23.5039L96.7665 23.1604C97.0643 23.5823 97.422 23.7932 97.8397 23.7932C98.0506 23.7932 98.2202 23.743 98.3484 23.6425C98.4807 23.5421 98.5469 23.4075 98.5469 23.2387C98.5469 23.1021 98.5035 22.9957 98.4166 22.9193C98.3298 22.839 98.1726 22.7466 97.9452 22.6421L97.4923 22.4372C97.1739 22.2966 96.934 22.1419 96.7727 21.9731C96.6156 21.8004 96.537 21.5874 96.537 21.3343C96.537 21.0169 96.6611 20.7578 96.9092 20.5569C97.1573 20.356 97.4634 20.2555 97.8273 20.2555C98.1126 20.2555 98.3711 20.3198 98.6027 20.4484C98.8384 20.577 99.0204 20.7497 99.1486 20.9667L98.6896 21.3102C98.4662 20.9888 98.1788 20.8281 97.8273 20.8281C97.6453 20.8281 97.4964 20.8703 97.3807 20.9546C97.2649 21.039 97.207 21.1575 97.207 21.3102C97.2111 21.3825 97.2194 21.4428 97.2318 21.491C97.2483 21.5352 97.2876 21.5834 97.3496 21.6356C97.4117 21.6839 97.4551 21.714 97.4799 21.726C97.5047 21.7381 97.5854 21.7783 97.7218 21.8466C97.7467 21.8586 97.7653 21.8687 97.7777 21.8767L98.2367 22.0816C98.58 22.2343 98.8281 22.397 98.9811 22.5698C99.1383 22.7425 99.2168 22.9575 99.2168 23.2146C99.2168 23.5561 99.0866 23.8334 98.826 24.0463C98.5696 24.2592 98.2429 24.3657 97.8459 24.3657C97.5151 24.3657 97.2152 24.2894 96.9464 24.1367C96.6776 23.984 96.4626 23.7731 96.3013 23.5039Z" fill="#929292"/>
<path d="M101.628 23.5039L102.093 23.1604C102.391 23.5823 102.749 23.7932 103.167 23.7932C103.377 23.7932 103.547 23.743 103.675 23.6425C103.808 23.5421 103.874 23.4075 103.874 23.2387C103.874 23.1021 103.83 22.9957 103.743 22.9193C103.657 22.839 103.499 22.7466 103.272 22.6421L102.819 22.4372C102.501 22.2966 102.261 22.1419 102.1 21.9731C101.942 21.8004 101.864 21.5874 101.864 21.3343C101.864 21.0169 101.988 20.7578 102.236 20.5569C102.484 20.356 102.79 20.2555 103.154 20.2555C103.439 20.2555 103.698 20.3198 103.93 20.4484C104.165 20.577 104.347 20.7497 104.475 20.9667L104.016 21.3102C103.793 20.9888 103.506 20.8281 103.154 20.8281C102.972 20.8281 102.823 20.8703 102.707 20.9546C102.592 21.039 102.534 21.1575 102.534 21.3102C102.538 21.3825 102.546 21.4428 102.559 21.491C102.575 21.5352 102.614 21.5834 102.676 21.6356C102.739 21.6839 102.782 21.714 102.807 21.726C102.832 21.7381 102.912 21.7783 103.049 21.8466C103.073 21.8586 103.092 21.8687 103.105 21.8767L103.564 22.0816C103.907 22.2343 104.155 22.397 104.308 22.5698C104.465 22.7425 104.544 22.9575 104.544 23.2146C104.544 23.5561 104.413 23.8334 104.153 24.0463C103.896 24.2592 103.57 24.3657 103.173 24.3657C102.842 24.3657 102.542 24.2894 102.273 24.1367C102.004 23.984 101.789 23.7731 101.628 23.5039Z" fill="#929292"/>
<path d="M110.602 24.2994H109.851L108.685 22.7626H107.934V24.2994H107.277V20.3218H108.772C109.185 20.3218 109.52 20.4363 109.777 20.6654C110.033 20.8904 110.161 21.1816 110.161 21.5392C110.161 21.8004 110.091 22.0294 109.95 22.2263C109.814 22.4231 109.622 22.5678 109.374 22.6602L110.602 24.2994ZM107.934 20.8883V22.1961H108.759C108.983 22.1961 109.158 22.1379 109.287 22.0214C109.419 21.9008 109.485 21.7421 109.485 21.5452C109.485 21.3484 109.419 21.1897 109.287 21.0691C109.158 20.9486 108.983 20.8883 108.759 20.8883H107.934Z" fill="#929292"/>
<path d="M112.743 22.3106C112.735 21.7441 112.944 21.258 113.37 20.8522C113.796 20.4464 114.302 20.2475 114.89 20.2555C115.473 20.2475 115.979 20.4464 116.409 20.8522C116.844 21.258 117.055 21.7441 117.042 22.3106C117.055 22.8771 116.844 23.3633 116.409 23.7691C115.979 24.1749 115.473 24.3738 114.89 24.3657C114.302 24.3738 113.794 24.1749 113.364 23.7691C112.938 23.3633 112.731 22.8771 112.743 22.3106ZM116.366 22.3046C116.366 21.8868 116.225 21.5392 115.944 21.262C115.663 20.9808 115.313 20.8401 114.896 20.8401C114.474 20.8401 114.122 20.9787 113.841 21.256C113.564 21.5332 113.426 21.8827 113.426 22.3046C113.426 22.7305 113.564 23.084 113.841 23.3653C114.118 23.6425 114.47 23.7811 114.896 23.7811C115.313 23.7811 115.663 23.6405 115.944 23.3593C116.225 23.078 116.366 22.7265 116.366 22.3046Z" fill="#929292"/>
<path d="M119.475 22.3106C119.467 21.7441 119.676 21.258 120.102 20.8522C120.528 20.4464 121.035 20.2475 121.622 20.2555C122.205 20.2475 122.712 20.4464 123.142 20.8522C123.576 21.258 123.787 21.7441 123.774 22.3106C123.787 22.8771 123.576 23.3633 123.142 23.7691C122.712 24.1749 122.205 24.3738 121.622 24.3657C121.035 24.3738 120.526 24.1749 120.096 23.7691C119.67 23.3633 119.463 22.8771 119.475 22.3106ZM123.098 22.3046C123.098 21.8868 122.958 21.5392 122.676 21.262C122.395 20.9808 122.046 20.8401 121.628 20.8401C121.206 20.8401 120.855 20.9787 120.573 21.256C120.296 21.5332 120.158 21.8827 120.158 22.3046C120.158 22.7305 120.296 23.084 120.573 23.3653C120.851 23.6425 121.202 23.7811 121.628 23.7811C122.046 23.7811 122.395 23.6405 122.676 23.3593C122.958 23.078 123.098 22.7265 123.098 22.3046Z" fill="#929292"/>
<path d="M130.122 20.2555H130.345V24.2994H129.688V21.8044L128.515 23.299H128.292L127.113 21.7984V24.2994H126.456V20.2555H126.685L128.404 22.4794L130.122 20.2555Z" fill="#929292"/>
</g>
<defs>
<clipPath id="clip0_701_3878">
<rect width="130" height="28" fill="white" transform="translate(0.5)"/>
</clipPath>
</defs>
</svg>
