<svg width="68" height="71" viewBox="0 0 68 71" fill="none" xmlns="http://www.w3.org/2000/svg">
<g clip-path="url(#clip0_354_17501)">
<path d="M67.9982 10.4427V0.291169C67.9982 0.0352374 67.6874 -0.0927285 67.5052 0.0886738L63.3767 4.19905L60.0448 7.51632L58.5349 9.01957L58.4953 9.0941C56.8527 10.7113 55.2129 12.3326 53.5758 13.9568C53.1903 14.3379 52.8047 14.7204 52.4191 15.1029C46.4403 21.0371 40.4883 27.0009 34.5349 32.9605C34.323 33.1728 34.1578 33.2755 33.9982 33.2783C33.8386 33.2755 33.6733 33.1728 33.4615 32.9605C27.5081 27.0009 21.5561 21.0371 15.5773 15.1029C15.1917 14.7204 14.8061 14.3379 14.4205 13.9568C12.7835 12.3326 11.1437 10.7113 9.50102 9.0941L9.46148 9.01817L7.95159 7.51492L4.61967 4.19765L0.491143 0.0872675C0.30894 -0.0927285 -0.00179439 0.0352374 -0.00179439 0.291169V10.4441H-0.000381964C0.00103046 22.0468 0.00244289 33.6523 0.00526775 45.255C0.00526775 46.0988 -0.0187435 46.9439 0.0208045 47.7862C0.0349287 48.0942 0.10555 48.4809 0.30329 48.6876C2.57165 51.0641 4.86543 53.4153 7.16487 55.7609C7.29057 55.8889 7.52221 55.9128 7.70583 55.9859C7.77504 55.7989 7.89086 55.6147 7.90639 55.422C7.93888 55.0254 7.91769 54.6261 7.91769 54.2281V19.5901L8.18464 19.4593C8.35413 19.6843 8.49961 19.9318 8.69594 20.1287C10.5702 22.0088 12.436 23.8946 14.3428 25.7409C14.8386 26.219 15.0533 26.6986 15.0519 27.3918C15.0335 39.1338 15.0434 50.8757 15.0307 62.6176C15.0307 63.2631 15.1606 63.7721 15.6465 64.246C17.7835 66.3272 19.8824 68.445 22.0109 70.536C22.2242 70.7442 22.5392 70.8496 22.8075 71.0029C22.8569 70.7765 22.9078 70.5515 22.9558 70.3251C22.9784 70.2196 22.9954 70.0439 22.9954 69.9356C22.9968 58.4285 22.9982 46.92 22.9982 35.4129V34.4314C23.3132 34.7168 23.4855 34.8631 23.6451 35.0206C26.8753 38.2338 30.1154 41.4371 33.323 44.6715C33.5843 44.9344 33.7906 45.0624 33.9982 45.0511C34.2058 45.0624 34.412 44.9344 34.6733 44.6715C37.8809 41.4371 41.1211 38.2338 44.3513 35.0206C44.5109 34.8631 44.6832 34.7168 44.9982 34.4314V35.4129C44.9982 46.92 44.9996 58.4285 45.001 69.9356C45.001 70.0439 45.0179 70.2196 45.0405 70.3251C45.0886 70.5515 45.1394 70.7765 45.1889 71.0029C45.4572 70.8496 45.7722 70.7442 45.9855 70.536C48.114 68.445 50.2129 66.3272 52.3499 64.246C52.8357 63.7721 52.9657 63.2631 52.9657 62.6176C52.953 50.8757 52.9629 39.1338 52.9445 27.3918C52.9431 26.6986 53.1578 26.219 53.6535 25.7409C55.5603 23.8946 57.4261 22.0088 59.3004 20.1287C59.4967 19.9318 59.6422 19.6843 59.8117 19.4593L60.0787 19.5901V54.2267C60.0787 54.6247 60.0575 55.024 60.09 55.4206C60.1055 55.6132 60.2213 55.7975 60.2905 55.9845C60.4741 55.9114 60.7058 55.8875 60.8315 55.7595C63.1309 53.4139 65.4247 51.0627 67.6931 48.6862C67.8908 48.4795 67.9614 48.0928 67.9756 47.7848C68.0151 46.9425 67.9911 46.0974 67.9911 45.2536C67.9939 33.6509 67.9953 22.0454 67.9967 10.4427H67.9982Z" fill="#3E4D97"/>
</g>
<defs>
<clipPath id="clip0_354_17501">
<rect width="68" height="71" fill="white"/>
</clipPath>
</defs>
</svg>
