<svg width="11" height="12" viewBox="0 0 11 12" fill="none" xmlns="http://www.w3.org/2000/svg">
<path d="M10.5397 4.26999C10.2013 4.42622 9.83225 4.50461 9.45959 4.49939C9.08693 4.49417 8.72019 4.40547 8.38633 4.23982C8.05247 4.07417 7.75999 3.83578 7.53041 3.54219C7.30083 3.2486 7.13999 2.90727 7.05971 2.54333C6.57044 2.31808 6.03835 2.20097 5.49971 2.19999C4.56799 2.1958 3.66726 2.53437 2.96899 3.15123C2.27071 3.7681 1.82364 4.6202 1.71289 5.54532C1.60214 6.47045 1.83544 7.404 2.36837 8.16826C2.90131 8.93252 3.69667 9.47413 4.60305 9.68999L4.49971 10.21C3.47227 9.95956 2.57186 9.34206 1.96812 8.4738C1.36438 7.60555 1.09898 6.54649 1.22193 5.49613C1.34487 4.44578 1.84767 3.47663 2.6356 2.77128C3.42353 2.06592 4.4422 1.67304 5.49971 1.66666C6.01318 1.66664 6.52245 1.75923 7.00305 1.93999C7.01105 1.60129 7.08819 1.26781 7.22971 0.959992C6.08514 0.564228 4.8402 0.568252 3.69821 0.971405C2.55622 1.37456 1.58467 2.15302 0.942246 3.17964C0.299817 4.20626 0.0244707 5.42038 0.161178 6.6237C0.297885 7.82703 0.838566 8.94844 1.69492 9.80479C2.55127 10.6611 3.67268 11.2018 4.876 11.3385C6.07932 11.4752 7.29344 11.1999 8.32006 10.5575C9.34669 9.91503 10.1251 8.94348 10.5283 7.80149C10.9315 6.65951 10.9355 5.41456 10.5397 4.26999ZM7.56638 7.72666C7.54216 7.7633 7.51094 7.7948 7.47452 7.81933C7.43809 7.84387 7.39717 7.86097 7.35412 7.86964C7.31106 7.87831 7.26671 7.87839 7.22363 7.86987C7.18054 7.86135 7.13956 7.8444 7.10305 7.81999L5.13638 6.48666V3.58333C5.13638 3.49492 5.1715 3.41014 5.23401 3.34762C5.29652 3.28511 5.38131 3.24999 5.46971 3.24999C5.55812 3.24999 5.6429 3.28511 5.70542 3.34762C5.76793 3.41014 5.80305 3.49492 5.80305 3.58333V6.13333L7.46971 7.26333C7.50662 7.28728 7.53842 7.3183 7.56328 7.35461C7.58814 7.39091 7.60557 7.43178 7.61456 7.47486C7.62354 7.51793 7.62391 7.56236 7.61564 7.60557C7.60738 7.64879 7.59063 7.68994 7.56638 7.72666Z" fill="#868997"/>
</svg>
