<svg width="12" height="12" viewBox="0 0 12 12" fill="none" xmlns="http://www.w3.org/2000/svg">
<path d="M11.4701 4.44901C11.4356 4.3472 11.372 4.25774 11.2871 4.19168C11.2023 4.12561 11.1 4.08584 10.9928 4.07726L7.85767 3.82814L6.501 0.824989C6.4578 0.728264 6.38752 0.64611 6.29865 0.588442C6.20979 0.530775 6.10613 0.500058 6.0002 0.5C5.89426 0.499942 5.79057 0.530545 5.70164 0.588114C5.61271 0.645684 5.54235 0.727761 5.49903 0.824439L4.14236 3.82814L1.00723 4.07726C0.901894 4.0856 0.801193 4.12412 0.717173 4.1882C0.633154 4.25227 0.569374 4.3392 0.533464 4.43858C0.497554 4.53795 0.491034 4.64557 0.514685 4.74856C0.538336 4.85154 0.591155 4.94553 0.666825 5.01928L2.98367 7.27783L2.16428 10.826C2.1394 10.9334 2.14737 11.0458 2.18716 11.1486C2.22696 11.2514 2.29673 11.3399 2.38744 11.4025C2.47814 11.4652 2.58559 11.4991 2.69583 11.5C2.80607 11.5008 2.91402 11.4685 3.00566 11.4072L6.00002 9.411L8.99437 11.4072C9.08804 11.4694 9.19851 11.5014 9.31093 11.499C9.42334 11.4965 9.5323 11.4597 9.62315 11.3934C9.71401 11.3272 9.7824 11.2347 9.81913 11.1285C9.85586 11.0222 9.85917 10.9072 9.82861 10.799L8.82279 7.27948L11.3173 5.03468C11.4806 4.8873 11.5405 4.65743 11.4701 4.44901Z" fill="#868997"/>
</svg>
