<svg width="38" height="40" viewBox="0 0 38 40" fill="none" xmlns="http://www.w3.org/2000/svg">
<path d="M0.0166016 12V5.96046e-08H2.68112V12C2.68112 13.0609 3.10221 14.0783 3.85175 14.8284C4.60129 15.5786 5.61789 16 6.6779 16C7.73792 16 8.75451 15.5786 9.50406 14.8284C10.2536 14.0783 10.6747 13.0609 10.6747 12V4C10.6747 3.64638 10.5343 3.30724 10.2845 3.05719C10.0346 2.80714 9.69576 2.66667 9.34243 2.66667C8.98909 2.66667 8.65022 2.80714 8.40037 3.05719C8.15053 3.30724 8.01016 3.64638 8.01016 4V13.3333H5.34564V4C5.34564 3.47471 5.44902 2.95457 5.64988 2.46927C5.85074 1.98396 6.14514 1.54301 6.51627 1.17157C6.88741 0.800139 7.32801 0.505501 7.81292 0.304482C8.29783 0.103463 8.81756 0 9.34243 0C9.86729 0 10.387 0.103463 10.8719 0.304482C11.3568 0.505501 11.7974 0.800139 12.1686 1.17157C12.5397 1.54301 12.8341 1.98396 13.035 2.46927C13.2358 2.95457 13.3392 3.47471 13.3392 4V12C13.3392 13.7681 12.6374 15.4638 11.3882 16.714C10.1389 17.9643 8.44459 18.6667 6.6779 18.6667C4.91122 18.6667 3.21689 17.9643 1.96765 16.714C0.718415 15.4638 0.0166016 13.7681 0.0166016 12H0.0166016Z" fill="#868997"/>
<path fill-rule="evenodd" clip-rule="evenodd" d="M33.3227 0H16.0033V12C16.0033 14.4754 15.0207 16.8493 13.2718 18.5997C11.5229 20.35 9.15081 21.3333 6.67745 21.3333H2.68066V36C2.68066 37.0609 3.10175 38.0783 3.85129 38.8284C4.60084 39.5786 5.61743 40 6.67745 40H33.3227C34.3827 40 35.3993 39.5786 36.1488 38.8284C36.8984 38.0783 37.3194 37.0609 37.3194 36V4C37.3194 2.93913 36.8984 1.92172 36.1488 1.17157C35.3993 0.421427 34.3827 0 33.3227 0V0ZM29.3259 10.6667H18.6678V13.3333H29.3259V10.6667ZM29.3259 18.6667H18.6678V21.3333H29.3259V18.6667ZM10.6742 26.6667H29.3259V29.3333H10.6742V26.6667Z" fill="#868997"/>
</svg>
