<svg width="19" height="20" viewBox="0 0 19 20" fill="none" xmlns="http://www.w3.org/2000/svg">
<path d="M9.5 20C10.1193 20.0008 10.7235 19.8086 11.2285 19.4502C11.7335 19.0917 12.1143 18.5849 12.318 18H6.682C6.88566 18.5849 7.26648 19.0917 7.77151 19.4502C8.27654 19.8086 8.8807 20.0008 9.5 20ZM16.5 12.586V8C16.5 4.783 14.315 2.073 11.355 1.258C11.062 0.52 10.346 0 9.5 0C8.654 0 7.938 0.52 7.645 1.258C4.685 2.074 2.5 4.783 2.5 8V12.586L0.793001 14.293C0.699958 14.3857 0.626171 14.4959 0.575885 14.6172C0.5256 14.7386 0.499811 14.8687 0.500001 15V16C0.500001 16.2652 0.605358 16.5196 0.792894 16.7071C0.980431 16.8946 1.23478 17 1.5 17H17.5C17.7652 17 18.0196 16.8946 18.2071 16.7071C18.3946 16.5196 18.5 16.2652 18.5 16V15C18.5002 14.8687 18.4744 14.7386 18.4241 14.6172C18.3738 14.4959 18.3 14.3857 18.207 14.293L16.5 12.586Z" fill="#3E4D97"/>
</svg>
