<svg width="19" height="12" viewBox="0 0 19 12" fill="none" xmlns="http://www.w3.org/2000/svg">
<path d="M12.9823 5.16675C14.3656 5.16675 15.474 4.05008 15.474 2.66675C15.474 1.28341 14.3656 0.166748 12.9823 0.166748C11.599 0.166748 10.4823 1.28341 10.4823 2.66675C10.4823 4.05008 11.599 5.16675 12.9823 5.16675ZM6.31563 5.16675C7.69897 5.16675 8.8073 4.05008 8.8073 2.66675C8.8073 1.28341 7.69897 0.166748 6.31563 0.166748C4.9323 0.166748 3.81563 1.28341 3.81563 2.66675C3.81563 4.05008 4.9323 5.16675 6.31563 5.16675ZM6.31563 6.83342C4.37397 6.83342 0.4823 7.80842 0.4823 9.75008V11.8334H12.149V9.75008C12.149 7.80842 8.2573 6.83342 6.31563 6.83342ZM12.9823 6.83342C12.7406 6.83342 12.4656 6.85008 12.174 6.87508C13.1406 7.57508 13.8156 8.51675 13.8156 9.75008V11.8334H18.8156V9.75008C18.8156 7.80842 14.924 6.83342 12.9823 6.83342Z" fill="#5F6CAF"/>
</svg>
