<svg width="33" height="32" viewBox="0 0 33 32" fill="none" xmlns="http://www.w3.org/2000/svg">
<path d="M16.4147 15.9458C11.6147 15.9458 7.71387 20.0066 7.71387 25.0178C7.7132 25.6257 7.77107 26.2322 7.88667 26.829H24.9459C25.0599 26.232 25.1178 25.6256 25.1187 25.0178C25.1187 20.0066 21.2211 15.9458 16.4147 15.9458Z" fill="#868997"/>
<path d="M18.9023 14.4554C21.283 13.0825 22.1 10.0397 20.7272 7.65898C19.3543 5.27828 16.3115 4.46124 13.9308 5.83408C11.5501 7.20692 10.733 10.2498 12.1059 12.6305C13.4787 15.0112 16.5215 15.8282 18.9023 14.4554Z" fill="#868997"/>
<path d="M21.7934 12.407C22.4071 12.8529 23.1375 13.1103 23.8952 13.1475C24.6529 13.1847 25.405 13.0002 26.0595 12.6165C26.7139 12.2328 27.2422 11.6666 27.5798 10.9872C27.9174 10.3078 28.0496 9.54477 27.9601 8.79144C27.8707 8.03811 27.5635 7.32721 27.0762 6.74578C26.5889 6.16435 25.9427 5.73763 25.2166 5.51786C24.4905 5.29809 23.7161 5.29481 22.9881 5.50842C22.2602 5.72204 21.6104 6.14328 21.1182 6.72056C21.7138 7.53172 22.0891 8.48339 22.2074 9.48276C22.3257 10.4821 22.1831 11.4951 21.7934 12.423V12.407Z" fill="#868997"/>
<path d="M24.0775 13.8525C22.3981 13.8559 20.7819 14.4936 19.5527 15.6381C19.7543 15.7117 19.9527 15.7885 20.1479 15.8749C21.2906 16.3843 22.3223 17.1127 23.1847 18.0189C24.3656 19.2431 25.2091 20.7524 25.6327 22.3997H30.7527C30.8468 21.9297 30.8961 21.4519 30.8999 20.9725C30.8999 17.0461 27.8439 13.8525 24.0775 13.8525Z" fill="#868997"/>
<path d="M12.682 15.8813C12.9188 15.7757 13.1556 15.6797 13.3988 15.5965C12.1751 14.4771 10.5773 13.8551 8.91881 13.8525C5.15561 13.8525 2.09961 17.0461 2.09961 20.9725C2.10026 21.4516 2.14634 21.9294 2.23721 22.3997H7.19401C7.61852 20.7518 8.4618 19.2417 9.64201 18.0157C10.5067 17.1131 11.5394 16.3881 12.682 15.8813Z" fill="#868997"/>
<path d="M8.92258 13.146C9.6889 13.1501 10.4393 12.9274 11.0794 12.506C10.6588 11.5498 10.5031 10.4981 10.6286 9.46102C10.7542 8.42398 11.1563 7.43979 11.793 6.61159C11.354 6.13521 10.8034 5.77564 10.1907 5.56532C9.57805 5.35501 8.92265 5.30059 8.28368 5.40696C7.64471 5.51333 7.04229 5.77715 6.5308 6.1746C6.0193 6.57205 5.61483 7.09062 5.35391 7.68351C5.09298 8.27639 4.9838 8.92493 5.03624 9.57056C5.08867 10.2162 5.30107 10.8386 5.65424 11.3816C6.00742 11.9246 6.49027 12.3712 7.05919 12.6809C7.62812 12.9906 8.26522 13.1537 8.91298 13.1556L8.92258 13.146Z" fill="#868997"/>
</svg>
