<svg width="17" height="22" viewBox="0 0 17 22" fill="none" xmlns="http://www.w3.org/2000/svg">
<path d="M16.5297 5.76641C16.6703 5.90703 16.75 6.09687 16.75 6.29609V20.75C16.75 21.1648 16.4148 21.5 16 21.5H1C0.585156 21.5 0.25 21.1648 0.25 20.75V1.25C0.25 0.835156 0.585156 0.5 1 0.5H10.9539C11.1531 0.5 11.3453 0.579688 11.4859 0.720313L16.5297 5.76641ZM15.0203 6.64062L10.6094 2.22969V6.64062H15.0203ZM7.48117 16.8125V14.667H8.87031C10.2899 14.667 11.2188 13.7377 11.2188 12.3673C11.2188 11.0028 10.2911 10.0625 8.87547 10.0625H6.4375C6.36291 10.0625 6.29137 10.0921 6.23863 10.1449C6.18588 10.1976 6.15625 10.2692 6.15625 10.3438V16.8125C6.15625 16.8871 6.18588 16.9586 6.23863 17.0114C6.29137 17.0641 6.36291 17.0938 6.4375 17.0938H7.19992C7.27451 17.0938 7.34605 17.0641 7.3988 17.0114C7.45154 16.9586 7.48117 16.8871 7.48117 16.8125ZM7.48117 13.547H8.29914C9.41992 13.547 9.87391 13.2439 9.87391 12.3673C9.87391 11.6162 9.44922 11.1927 8.70508 11.1927H7.48117V13.547Z" fill="#FF5F57"/>
</svg>
