<svg width="6" height="10" viewBox="0 0 6 10" fill="none" xmlns="http://www.w3.org/2000/svg">
<path d="M1.4155 9.60164C1.26443 9.60194 1.11803 9.54933 1.00171 9.45294C0.936247 9.39866 0.88213 9.332 0.842464 9.25678C0.802797 9.18156 0.77836 9.09925 0.770553 9.01457C0.762745 8.92989 0.771721 8.8445 0.796964 8.76329C0.822208 8.68208 0.863224 8.60665 0.917664 8.54132L3.81416 5.07587L1.02111 1.60395C0.967405 1.53782 0.927299 1.46172 0.903098 1.38004C0.878897 1.29836 0.871078 1.2127 0.88009 1.12798C0.889103 1.04327 0.914768 0.961167 0.955613 0.886403C0.996457 0.811639 1.05167 0.745685 1.11809 0.692331C1.18499 0.633472 1.26333 0.589076 1.34819 0.561928C1.43306 0.534781 1.52262 0.525468 1.61126 0.534575C1.69989 0.543681 1.78569 0.57101 1.86326 0.614847C1.94084 0.658683 2.00851 0.718081 2.06204 0.789312L5.18483 4.66855C5.27992 4.78424 5.33191 4.92935 5.33191 5.0791C5.33191 5.22886 5.27992 5.37397 5.18483 5.48965L1.95213 9.36889C1.88727 9.44713 1.80488 9.50898 1.71164 9.54942C1.6184 9.58986 1.51695 9.60775 1.4155 9.60164Z" fill="#F76A46"/>
</svg>
