<svg width="24" height="24" viewBox="0 0 24 24" fill="none" xmlns="http://www.w3.org/2000/svg">
<path d="M22.0804 8.54011C21.4037 8.85257 20.6655 9.00935 19.9202 8.9989C19.1748 8.98846 18.4413 8.81106 17.7736 8.47976C17.1059 8.14846 16.521 7.67168 16.0618 7.0845C15.6026 6.49732 15.2809 5.81467 15.1204 5.08677C14.1419 4.63627 13.0777 4.40206 12.0004 4.40011C10.137 4.39173 8.3355 5.06885 6.93895 6.30259C5.54239 7.53633 4.64826 9.24052 4.42676 11.0908C4.20525 12.941 4.67185 14.8081 5.73772 16.3366C6.80359 17.8652 8.39431 18.9484 10.2071 19.3801L10.0004 20.4201C7.94551 19.9192 6.1447 18.6842 4.93721 16.9477C3.72973 15.2112 3.19894 13.0931 3.44483 10.9924C3.69072 8.89168 4.69632 6.95339 6.27218 5.54268C7.84804 4.13196 9.88539 3.34621 12.0004 3.33344C13.0273 3.3334 14.0459 3.51859 15.0071 3.88011C15.0231 3.20271 15.1774 2.53574 15.4604 1.92011C13.1713 1.12858 10.6814 1.13663 8.3974 1.94293C6.11342 2.74924 4.17033 4.30616 2.88547 6.3594C1.60061 8.41265 1.04992 10.8409 1.32333 13.2475C1.59675 15.6542 2.67811 17.897 4.39081 19.6097C6.10351 21.3224 8.34633 22.4038 10.753 22.6772C13.1596 22.9506 15.5879 22.3999 17.6411 21.115C19.6944 19.8302 21.2513 17.8871 22.0576 15.6031C22.8639 13.3191 22.8719 10.8292 22.0804 8.54011ZM16.1337 15.4534C16.0853 15.5267 16.0229 15.5897 15.95 15.6388C15.8772 15.6879 15.7953 15.7221 15.7092 15.7394C15.6231 15.7568 15.5344 15.7569 15.4482 15.7399C15.3621 15.7228 15.2801 15.6889 15.2071 15.6401L11.2737 12.9734V7.16677C11.2737 6.98996 11.344 6.82039 11.469 6.69537C11.594 6.57034 11.7636 6.50011 11.9404 6.50011C12.1172 6.50011 12.2868 6.57034 12.4118 6.69537C12.5368 6.82039 12.6071 6.98996 12.6071 7.16677V12.2668L15.9404 14.5268C16.0142 14.5747 16.0778 14.6367 16.1275 14.7093C16.1773 14.782 16.2121 14.8637 16.2301 14.9498C16.2481 15.036 16.2488 15.1248 16.2323 15.2113C16.2157 15.2977 16.1822 15.38 16.1337 15.4534Z" fill="url(#paint0_linear_138_4128)"/>
<path d="M20.0003 7.33342C21.8413 7.33342 23.3337 5.84103 23.3337 4.00008C23.3337 2.15913 21.8413 0.666748 20.0003 0.666748C18.1594 0.666748 16.667 2.15913 16.667 4.00008C16.667 5.84103 18.1594 7.33342 20.0003 7.33342Z" fill="url(#paint1_linear_138_4128)"/>
<defs>
<linearGradient id="paint0_linear_138_4128" x1="6.9906" y1="1.33228" x2="16.7413" y2="22.7456" gradientUnits="userSpaceOnUse">
<stop stop-color="#F0855E"/>
<stop offset="1" stop-color="#FF7A65"/>
</linearGradient>
<linearGradient id="paint1_linear_138_4128" x1="18.4527" y1="0.666748" x2="21.4884" y2="7.33342" gradientUnits="userSpaceOnUse">
<stop stop-color="#F0855E"/>
<stop offset="1" stop-color="#FF7A65"/>
</linearGradient>
</defs>
</svg>
