<svg width="11" height="11" viewBox="0 0 11 11" fill="none" xmlns="http://www.w3.org/2000/svg">
<path d="M10.9365 4.57382L10.5022 3.18848C10.4553 3.02837 10.3766 2.87935 10.2709 2.7503C10.1652 2.62124 10.0345 2.51481 9.88677 2.43734C9.73901 2.35987 9.57716 2.31295 9.41088 2.29939C9.2446 2.28582 9.07729 2.30588 8.91893 2.35838L8.73202 2.41885C8.58559 2.46725 8.42964 2.47953 8.27744 2.45464C8.12524 2.42975 7.98132 2.36844 7.85794 2.27592L7.79746 2.23194C7.67707 2.13979 7.58001 2.02063 7.51412 1.88408C7.44823 1.74753 7.41536 1.5974 7.41815 1.44581V1.29188C7.42082 0.946663 7.28637 0.614492 7.04432 0.368325C6.92919 0.252029 6.79222 0.159623 6.64128 0.0964148C6.49033 0.0332065 6.32839 0.000440995 6.16474 0H4.76291C4.42657 0.00434638 4.10556 0.141388 3.86978 0.381289C3.634 0.621189 3.50253 0.944522 3.50401 1.28089V1.41283C3.50348 1.5724 3.46715 1.72982 3.3977 1.87349C3.32824 2.01715 3.22743 2.1434 3.1027 2.24293L3.03124 2.2979C2.89344 2.40215 2.73227 2.47116 2.56173 2.49894C2.3912 2.52673 2.21646 2.51244 2.0527 2.45733C1.9023 2.40528 1.74291 2.38429 1.58416 2.39563C1.42541 2.40697 1.27062 2.4504 1.12914 2.5233C0.981842 2.59641 0.851163 2.69905 0.745238 2.82483C0.639313 2.95062 0.560409 3.09686 0.513435 3.25445L0.0626499 4.68377C-0.0418871 5.00602 -0.0150784 5.35651 0.137254 5.65911C0.289587 5.96172 0.555144 6.19202 0.876262 6.3H0.96422C1.11235 6.35551 1.2453 6.44517 1.35228 6.5617C1.45926 6.67823 1.53726 6.81835 1.57993 6.97068L1.61291 7.05864C1.67419 7.22693 1.69469 7.40736 1.67271 7.5851C1.65073 7.76285 1.5869 7.93285 1.48647 8.08115C1.28319 8.35799 1.19744 8.70391 1.24789 9.04364C1.29833 9.38338 1.48089 9.68945 1.75584 9.89528L2.8938 10.7584C3.10927 10.915 3.36956 10.9979 3.63595 10.9948C3.70724 11.0017 3.77905 11.0017 3.85035 10.9948C4.01532 10.9628 4.17206 10.8976 4.311 10.8031C4.44994 10.7086 4.56817 10.5867 4.65846 10.445L4.7849 10.2636C4.87359 10.1364 4.99095 10.0318 5.12751 9.95826C5.26406 9.88473 5.41599 9.84433 5.57103 9.84031C5.7335 9.83631 5.89435 9.87354 6.03855 9.94852C6.18274 10.0235 6.30559 10.1338 6.39563 10.2691L6.4616 10.3626C6.55533 10.5021 6.67662 10.6209 6.81801 10.7117C6.95939 10.8026 7.11788 10.8635 7.28371 10.8908C7.44953 10.9181 7.61919 10.9112 7.78224 10.8704C7.94528 10.8297 8.09826 10.756 8.23176 10.6539L9.34772 9.81832C9.61158 9.6134 9.78705 9.3153 9.83816 8.98514C9.88927 8.65498 9.81214 8.31778 9.62259 8.04267L9.47966 7.83377C9.39371 7.70097 9.33743 7.55118 9.31466 7.39464C9.29189 7.2381 9.30317 7.07848 9.34772 6.9267C9.39314 6.76422 9.47744 6.61524 9.59333 6.49264C9.70923 6.37004 9.85324 6.27751 10.0129 6.22303L10.1229 6.18455C10.441 6.07416 10.7037 5.84439 10.8556 5.54381C11.0074 5.24323 11.0364 4.8954 10.9365 4.57382ZM5.49956 7.42146C5.11901 7.42146 4.74701 7.30862 4.4306 7.0972C4.11418 6.88578 3.86757 6.58528 3.72194 6.2337C3.57631 5.88211 3.53821 5.49525 3.61245 5.12201C3.68669 4.74877 3.86994 4.40594 4.13903 4.13685C4.40811 3.86776 4.75095 3.68451 5.12419 3.61027C5.49742 3.53603 5.88429 3.57413 6.23587 3.71976C6.58745 3.86539 6.88796 4.112 7.09938 4.42842C7.3108 4.74483 7.42364 5.11683 7.42364 5.49738C7.42364 6.00768 7.22093 6.49708 6.86009 6.85791C6.49926 7.21875 6.00986 7.42146 5.49956 7.42146Z" fill="#868997"/>
</svg>
