<svg width="11" height="10" viewBox="0 0 11 10" fill="none" xmlns="http://www.w3.org/2000/svg">
<path fill-rule="evenodd" clip-rule="evenodd" d="M1 3.50003C1.00007 2.98979 1.13027 2.488 1.3783 2.0421C1.62633 1.59621 1.98399 1.22094 2.41746 0.95178C2.85093 0.682623 3.34589 0.528472 3.85554 0.503902C4.36518 0.479331 4.87267 0.585154 5.33003 0.811364C5.78738 1.03757 6.17948 1.3767 6.46925 1.79666C6.75903 2.21663 6.9369 2.70357 6.98605 3.21144C7.0352 3.7193 6.954 4.23131 6.75014 4.69905C6.54628 5.16679 6.22649 5.57481 5.821 5.88453C7.093 6.45353 8 7.60403 8 9.00003C8 9.13264 7.94732 9.25981 7.85355 9.35358C7.75979 9.44735 7.63261 9.50003 7.5 9.50003H0.5C0.367392 9.50003 0.240215 9.44735 0.146447 9.35358C0.0526784 9.25981 0 9.13264 0 9.00003C0 7.60403 0.907 6.45353 2.179 5.88453C1.81208 5.60475 1.51476 5.24397 1.31025 4.83035C1.10574 4.41673 0.999558 3.96145 1 3.50003ZM10.5 9.50003H8.5C8.63261 9.50003 8.75979 9.44735 8.85355 9.35358C8.94732 9.25981 9 9.13264 9 9.00003C9 7.60403 8.093 6.45353 6.821 5.88453C7.25071 5.55626 7.58375 5.11799 7.78489 4.61604C7.98604 4.1141 8.04782 3.56713 7.96371 3.03296C7.8796 2.49879 7.65272 1.99727 7.30706 1.58142C6.9614 1.16558 6.5098 0.850854 6 0.670527C6.67425 0.43118 7.41183 0.440683 8.07969 0.697321C8.74755 0.953959 9.30169 1.44083 9.64216 2.0701C9.98262 2.69937 10.087 3.4296 9.9364 4.12905C9.78583 4.82849 9.39024 5.45109 8.821 5.88453C10.093 6.45353 11 7.60403 11 9.00003C11 9.13264 10.9473 9.25981 10.8536 9.35358C10.7598 9.44735 10.6326 9.50003 10.5 9.50003Z" fill="#868997"/>
</svg>
