<svg width="13" height="10" viewBox="0 0 13 10" fill="none" xmlns="http://www.w3.org/2000/svg">
<path d="M12.5 3.47483C12.2947 3.53718 12.0898 3.59953 11.8737 3.66524C12.1391 4.02785 12.1624 4.45186 12.1216 4.88642C12.0813 5.31762 11.9876 5.72723 11.6312 6.02509C11.7074 6.05243 11.7747 6.07545 11.8415 6.10087C11.9576 6.14452 11.9872 6.26299 11.8989 6.35269C11.8549 6.39729 11.7989 6.43806 11.7415 6.45677C11.4291 6.55845 11.3138 6.8189 11.2843 7.12923C11.2627 7.35562 11.2802 7.58585 11.2802 7.818C11.4734 7.89138 11.6635 7.96093 11.8522 8.03575C11.9141 8.06022 11.9764 8.08899 12.0293 8.12976C12.0696 8.16046 12.0961 8.21322 12.1284 8.25591C12.0876 8.28277 12.0499 8.3221 12.0055 8.33409C11.6357 8.43386 11.2645 8.52835 10.8938 8.62428C9.1307 9.0809 7.36805 9.53752 5.60451 9.99174C5.55519 10.0042 5.49602 10.0028 5.44761 9.98598C4.01848 9.49099 2.5898 8.99264 1.16112 8.49621C0.936532 8.41803 0.791288 8.24296 0.699838 8.02664C0.484214 7.51534 0.438041 6.98054 0.585974 6.43998C0.629458 6.28074 0.729425 6.13924 0.807874 5.98048C0.763494 5.96753 0.697597 5.9541 0.635734 5.92916C0.591354 5.91141 0.552353 5.87832 0.511111 5.85242C0.543836 5.80973 0.568939 5.75025 0.611526 5.72771C0.746908 5.65576 0.888117 5.59533 1.02888 5.53489C1.08984 5.50851 1.15395 5.48405 1.2185 5.47398C1.34671 5.45431 1.3745 5.37277 1.37585 5.24855C1.37944 4.99338 1.38975 4.74012 1.30995 4.49311C1.24361 4.28878 1.13333 4.13673 0.931152 4.06814C0.863013 4.04512 0.797116 3.99812 0.744218 3.94536C0.654113 3.85518 0.684597 3.73863 0.803392 3.69738C0.957153 3.64414 1.11226 3.59474 1.26512 3.54437C0.856737 2.98559 0.796667 2.35774 0.931601 1.70158C1.02664 1.24065 1.30278 1.01042 1.74165 0.946625C2.69156 0.808008 3.64058 0.664115 4.59004 0.524059C5.62826 0.370573 6.66694 0.218526 7.70516 0.0650406C7.84009 0.0448955 7.97458 0.0199541 8.10996 0.00220727C8.15075 -0.0030688 8.19558 0.00124799 8.23503 0.0137187C9.55074 0.436285 10.8665 0.85933 12.1808 1.28717C12.2306 1.30348 12.2951 1.36296 12.3019 1.41044C12.309 1.4608 12.2647 1.53131 12.2252 1.57448C12.1862 1.61717 12.1284 1.6469 12.0737 1.66465C11.8455 1.73804 11.7168 1.91742 11.6828 2.14909C11.6442 2.41002 11.6478 2.6791 11.6429 2.94434C11.6424 2.97839 11.6953 3.0302 11.7339 3.04602C11.9186 3.12277 12.1091 3.18464 12.2933 3.26282C12.3673 3.294 12.431 3.353 12.4996 3.39952C12.5 3.42446 12.5 3.4494 12.5 3.47483ZM7.10625 6.93593C7.24791 6.89372 7.3676 6.85871 7.4873 6.82274C8.74204 6.44622 9.99589 6.0649 11.2529 5.69749C11.4555 5.63802 11.5855 5.52626 11.6541 5.32385C11.7711 4.97803 11.7899 4.62021 11.7168 4.26432C11.6501 3.93816 11.486 3.85278 11.1906 3.95591C10.5952 4.16359 9.99948 4.37128 9.40415 4.57896C8.6609 4.83845 7.9172 5.0965 7.17439 5.35934C7.13181 5.37421 7.0677 5.42506 7.0686 5.45815C7.07532 5.94595 7.09146 6.43375 7.10625 6.93593ZM5.89903 4.53148C5.91382 4.0528 5.92548 3.5861 5.94386 3.11941C5.94744 3.02444 5.92279 2.98127 5.83582 2.95105C4.48111 2.4834 3.1264 2.01431 1.77482 1.53611C1.5453 1.45505 1.37137 1.56009 1.31309 1.786C1.20595 2.20137 1.22792 2.61147 1.39064 3.00717C1.44399 3.1362 1.53678 3.22925 1.67216 3.26954C2.64673 3.55876 3.62085 3.85039 4.59497 4.14153C5.02488 4.26959 5.45478 4.39862 5.89903 4.53148ZM5.54309 9.34086C5.54309 9.26892 5.54175 9.21088 5.54309 9.15332C5.55385 8.7485 5.56013 8.34369 5.5794 7.93935C5.58478 7.82999 5.55519 7.7897 5.46061 7.75708C4.10948 7.28991 2.7588 6.82322 1.41126 6.34405C1.17547 6.26011 1.00198 6.38578 0.948187 6.59251C0.839254 7.00884 0.86391 7.41797 1.0244 7.8132C1.0764 7.94126 1.16874 8.03527 1.30502 8.07605C2.40287 8.40268 3.50026 8.7322 4.59766 9.06075C4.90832 9.1538 5.21898 9.24494 5.54309 9.34086ZM6.13931 4.53388C7.90913 4.06239 9.66371 3.59522 11.4205 3.12756C11.3744 2.68821 11.3569 2.26229 11.5322 1.83061C9.73499 2.22583 7.96337 2.6153 6.18189 3.00669C6.16755 3.51464 6.15365 4.0173 6.13931 4.53388ZM6.86687 6.93785C6.85253 6.42175 6.83863 5.91861 6.82473 5.41163C5.04236 5.01976 3.26895 4.63029 1.50944 4.24369C1.5453 4.46961 1.59103 4.67633 1.60716 4.88546C1.62375 5.09554 1.61075 5.3085 1.61075 5.53921C3.33978 5.99919 5.09122 6.4654 6.86687 6.93785ZM11.1699 6.64527C11.1112 6.65534 11.0731 6.66014 11.0355 6.66829C10.4446 6.79779 9.85289 6.9225 9.26384 7.05872C8.56138 7.2218 7.84503 7.32348 7.16543 7.59064C7.14391 7.59928 7.11656 7.61223 7.09863 7.60456C6.94084 7.53693 6.79156 7.6036 6.64094 7.63525C6.36748 7.69233 6.09538 7.75564 5.81968 7.81704C5.80354 8.32978 5.7883 8.82956 5.77216 9.34326C7.54154 8.87225 9.29746 8.4046 11.0561 7.93647C11.0095 7.49136 10.9893 7.06783 11.1699 6.64527Z" fill="#868997"/>
</svg>
