<svg width="12" height="14" viewBox="0 0 12 14" fill="none" xmlns="http://www.w3.org/2000/svg">
<path fill-rule="evenodd" clip-rule="evenodd" d="M0.538462 9.15527e-05H11.3077C11.4504 9.15527e-05 11.5877 0.0566298 11.6884 0.157861C11.7896 0.258553 11.8462 0.395861 11.8462 0.538553V13.4616C11.8462 13.6043 11.7896 13.7416 11.6884 13.8423C11.5877 13.9436 11.4504 14.0001 11.3077 14.0001H0.538462C0.395769 14.0001 0.258461 13.9436 0.157769 13.8423C0.0565381 13.7416 0 13.6043 0 13.4616V0.538553C0 0.395861 0.0565381 0.258553 0.157769 0.157861C0.258461 0.0566298 0.395769 9.15527e-05 0.538462 9.15527e-05ZM9.15385 11.8462H2.69231C2.39508 11.8462 2.15385 11.605 2.15385 11.3078C2.15385 11.0106 2.39508 10.7693 2.69231 10.7693H9.15385C9.45108 10.7693 9.69231 11.0106 9.69231 11.3078C9.69231 11.605 9.45108 11.8462 9.15385 11.8462ZM9.15385 9.6924H2.69231C2.39508 9.6924 2.15385 9.45117 2.15385 9.15394C2.15385 8.85671 2.39508 8.61548 2.69231 8.61548H9.15385C9.45108 8.61548 9.69231 8.85671 9.69231 9.15394C9.69231 9.45117 9.45108 9.6924 9.15385 9.6924ZM8.16484 4.66789C8.16594 4.68067 8.16649 4.69355 8.16649 4.70648C8.16649 4.82633 8.11906 4.94131 8.03457 5.02631L6.21993 6.84095C6.17754 6.88299 6.12727 6.91626 6.07199 6.93884C6.01672 6.96141 5.95754 6.97286 5.89783 6.97251C5.80772 6.97303 5.7195 6.94671 5.64441 6.8969C5.56932 6.84709 5.51077 6.77604 5.47621 6.69282C5.44166 6.6096 5.43267 6.51797 5.4504 6.42963C5.46812 6.34128 5.51175 6.26021 5.57573 6.19675L6.61792 5.15772H4.08335C3.96303 5.15772 3.84764 5.10992 3.76257 5.02484C3.67749 4.93977 3.62969 4.82438 3.62969 4.70406C3.62969 4.58374 3.67749 4.46835 3.76257 4.38327C3.84764 4.2982 3.96303 4.2504 4.08335 4.2504H6.61899L5.58027 3.21167C5.50595 3.12489 5.46711 3.01325 5.47152 2.89908C5.47593 2.7849 5.52326 2.6766 5.60406 2.5958C5.68485 2.51501 5.79316 2.46768 5.90733 2.46327C6.02151 2.45886 6.13314 2.49769 6.21993 2.57201L8.00559 4.35768C8.01518 4.36579 8.02447 4.37432 8.03341 4.38327C8.10993 4.45978 8.15628 4.56081 8.16484 4.66789Z" fill="white"/>
</svg>
